<svg width="100" height="100" viewBox="0 0 100 100" fill="none" xmlns="http://www.w3.org/2000/svg">
<g clip-path="url(#clip0_196_933)">
<path d="M52.9884 80.0329C70.6677 80.0329 84.9997 65.7009 84.9997 48.0216C84.9997 30.3422 70.6677 16.0103 52.9884 16.0103C35.309 16.0103 20.9771 30.3422 20.9771 48.0216C20.9771 65.7009 35.309 80.0329 52.9884 80.0329Z" fill="#FFBFCB"/>
<path d="M24.339 49.9218C24.339 54.8946 25.474 59.6099 27.5044 63.8177C28.0632 64.9758 26.3922 65.889 25.7181 64.794C22.6975 59.8884 20.9771 54.13 20.9771 48.0215C20.9771 30.283 35.4086 15.9065 53.1804 16.0108C54.4711 16.0184 54.5508 17.9161 53.2667 18.0455C37.8014 19.604 24.339 32.4462 24.339 49.9218Z" fill="#FFD9E0"/>
<path d="M52.9887 73.7476C67.1967 73.7476 78.7147 62.2296 78.7147 48.0216C78.7147 33.8135 67.1967 22.2956 52.9887 22.2956C38.7806 22.2956 27.2627 33.8135 27.2627 48.0216C27.2627 62.2296 38.7806 73.7476 52.9887 73.7476Z" fill="#FF8CA5"/>
<path d="M31.6478 50.945C31.6478 53.0458 31.9017 55.1006 32.3849 57.0752C32.8578 59.0078 30.0889 59.9207 29.3098 58.0899C27.9867 54.9805 27.2627 51.5724 27.2627 48.0214C27.2627 33.7415 38.892 22.1948 53.175 22.2962C55.1627 22.3104 55.3832 25.2097 53.4206 25.5245C41.6485 27.4127 31.6478 37.4188 31.6478 50.945Z" fill="#FFA4B8"/>
<path d="M61.3204 50.6526C66.3255 50.6526 70.3829 46.5951 70.3829 41.59C70.3829 36.5849 66.3255 32.5275 61.3204 32.5275C56.3153 32.5275 52.2578 36.5849 52.2578 41.59C52.2578 46.5951 56.3153 50.6526 61.3204 50.6526Z" fill="#FFBFCB"/>
<path d="M61.2691 32.5276C63.2726 32.5165 63.8349 35.2408 61.9951 36.034C58.8229 37.4012 56.4966 40.544 56.4966 44.3673C56.4966 46.5066 53.7802 46.9766 53.0091 45.2085C50.4092 39.2465 54.813 32.5633 61.2691 32.5276Z" fill="#FFD9E0"/>
<path d="M16.1039 84.3017C15.8382 83.7132 16.0997 83.0205 16.6883 82.7546C20.3217 81.1133 23.8658 77.5692 25.5071 73.9357C27.3681 69.8164 31.2834 65.8548 35.4924 63.9501C37.2662 63.1484 39.0339 61.8987 40.605 60.3362C41.0628 59.8807 41.8031 59.8828 42.2586 60.3407C42.7141 60.7987 42.7122 61.539 42.2542 61.9945C40.4867 63.7523 38.4817 65.1655 36.4561 66.0811C32.7609 67.7536 29.2625 71.3035 27.6387 74.8987C25.7507 79.0779 21.8304 82.9983 17.6511 84.8861C17.0663 85.1502 16.3715 84.8938 16.1039 84.3017Z" fill="#CBE3FA"/>
<path d="M50.5035 52.1144C52.5587 54.1695 50.9406 59.1218 48.8854 61.1769C46.8288 63.2321 43.4961 63.2321 41.441 61.1769C39.3687 59.1047 39.3999 55.7751 41.441 53.7325C43.4961 51.6773 48.4484 50.0592 50.5035 52.1144Z" fill="#CBE3FA"/>
<path d="M44.3643 55.1941C42.7501 56.8095 42.3692 59.2682 43.3844 61.2798C43.6403 61.787 43.073 62.3261 42.578 62.0475C39.7165 60.4373 38.8639 56.3112 41.4409 53.7324C43.3382 51.8351 47.547 50.3933 49.835 51.6185C50.3219 51.8793 50.1842 52.6249 49.6377 52.7038C47.6542 52.9903 45.5376 54.0208 44.3643 55.1941Z" fill="#EEF7FF"/>
</g>
<defs>
<clipPath id="clip0_196_933">
<rect width="69" height="69" fill="white" transform="translate(16 16)"/>
</clipPath>
</defs>
</svg>
