<svg width="100" height="100" viewBox="0 0 100 100" fill="none" xmlns="http://www.w3.org/2000/svg">
<path d="M82.0254 22.404V61.7171C82.0254 65.2471 79.1617 68.1109 75.6316 68.1109C72.1016 68.1109 69.2378 65.2471 69.2378 61.7171V22.404H82.0254Z" fill="#E6F0F8"/>
<path d="M80.2722 46.8682V61.7141C80.2722 64.2831 78.1943 66.3611 75.6252 66.3611C73.0338 66.3611 70.9907 64.2415 70.9907 61.7141V46.8682H80.2722Z" fill="#F04343"/>
<path d="M78.1312 46.8682V59.6486C78.1312 63.0542 74.5671 65.3086 71.5069 63.8424C70.5975 62.0586 71.1645 61.9064 70.9906 46.8682L78.1312 46.8682Z" fill="#FF6161"/>
<path d="M81.5826 79.0789V80.9657C81.5826 82.5562 80.3021 83.8368 78.7117 83.8368H21.9891C20.4121 83.8368 19.1182 82.5562 19.1182 80.9657V79.0789C19.1182 74.7659 22.6225 71.2748 26.9221 71.2748H73.7786C75.5443 71.2748 77.1617 71.8545 78.4691 72.8519C80.3561 74.267 81.5826 76.5314 81.5826 79.0789Z" fill="#FFB63C"/>
<path d="M79.17 77.9466C79.17 79.5371 77.8895 80.8176 76.2991 80.8176C15.8641 80.8033 19.5395 80.8538 19.1182 80.7772V79.0789C19.1182 74.7659 22.6225 71.2748 26.9221 71.2748H73.7786C75.5443 71.2748 77.1617 71.8545 78.4691 72.8519C79.4519 74.9618 79.0919 76.6233 79.17 77.9466Z" fill="#FFCA6C"/>
<path d="M21.9209 79.9336L22.2764 75.3455C22.3805 74.1821 23.5357 73.3083 25.047 73.2873L40.7901 73.1338C32.9477 73.6734 35.9078 73.6436 28.4383 74.3616C26.9588 74.5125 25.3871 74.7014 24.2731 75.575C23.1895 76.4018 22.9192 77.0351 22.5688 78.2563C22.4084 78.797 22.0401 79.3933 21.9209 79.9336Z" fill="white"/>
<path d="M73.2339 79.2281C69.9725 79.2508 66.721 79.5079 64.3723 80.1997C63.2134 80.5411 63.187 81.1451 64.764 81.4752C66.755 81.8921 69.0418 81.8613 71.0085 81.7177C76.8842 81.2888 79.1195 79.187 73.2339 79.2281Z" fill="white"/>
<path d="M59.9866 80.3886C58.2379 80.1701 56.3631 80.063 54.7255 80.225C53.1618 80.3796 53.6579 81.1751 57.4078 81.4093C60.7881 81.6203 63.1172 80.7798 59.9866 80.3886Z" fill="white"/>
<path d="M32.5174 17.4609V71.2696H26.7495V17.4609C26.7495 16.6549 27.4044 16 28.2104 16H31.0566C31.8625 16 32.5174 16.6549 32.5174 17.4609Z" fill="#BBCFEF"/>
<path d="M32.5176 17.5114V71.2697H28.7773V18.9723C28.7773 18.1663 29.4322 17.5114 30.2382 17.5114H32.5176Z" fill="#CBDBF4"/>
<path d="M76.4565 30.9488V36.704L16.2845 36.8608C15.5793 36.8608 15 36.2814 15 35.5763V32.3902C15 31.6723 15.5793 31.1056 16.2845 31.1056L76.4565 30.9488Z" fill="#BBCFEF"/>
<path d="M76.4559 30.9488V34.8528L17.8581 35.0096C17.1403 35.0096 16.561 34.4302 16.561 33.7124V31.1056L76.4559 30.9488Z" fill="#CBDBF4"/>
<path d="M22.2072 38.0167H37.0604C38.6102 38.0167 39.8773 36.7497 39.8773 35.1996L39.8773 32.4365C39.8773 31.3448 39.2572 30.4013 38.3408 29.9295C37.2732 29.3957 37.6368 29.7386 22.1937 29.633C20.6437 29.633 19.3901 30.8865 19.3901 32.4365C19.4217 35.0201 19.3148 35.336 19.498 35.9949C19.8485 37.1675 20.9268 38.0167 22.2072 38.0167Z" fill="#8555F8"/>
<path d="M35.6316 36.3049C37.1816 36.3049 38.4487 35.0379 38.4487 33.4879V30.7247C38.4487 30.4417 38.4082 30.1722 38.3408 29.9295C37.2732 29.3957 37.6368 29.7386 22.1937 29.633C20.6437 29.633 19.3901 30.8865 19.3901 32.4365C19.4217 35.0201 19.3148 35.336 19.498 35.9949C20.6168 36.5734 20.7574 36.203 35.6316 36.3049Z" fill="#A46EF2"/>
<path d="M86.0002 32.4229V35.213C86.0002 36.7899 84.7198 38.0702 83.1428 38.0702H68.1144C66.9283 38.0702 65.9175 37.356 65.4862 36.3182V36.3047C65.1126 35.4555 65.316 35.0074 65.2571 32.4229C65.2571 30.8595 66.5374 29.579 68.101 29.579H83.1562C84.6901 29.579 86.0002 30.8313 86.0002 32.4229Z" fill="#8555F8"/>
<path d="M84.3289 33.6225C84.3289 35.1995 83.0484 36.4799 81.4715 36.4799C66.0471 36.4269 66.3027 36.615 65.4862 36.3182V36.3047C65.1126 35.4556 65.316 35.0074 65.2571 32.4229C65.2571 30.8595 66.5374 29.579 68.101 29.579C83.8464 29.6329 83.3684 29.4493 84.1132 29.7542C84.4686 30.6072 84.2709 31.084 84.3289 33.6225Z" fill="#A46EF2"/>
<path d="M84.3288 31.4866C84.3992 32.2011 84.453 32.915 84.4877 33.6301C84.54 35.2086 83.3447 36.6067 81.6821 36.7315C79.6063 36.8031 74.2753 36.7406 70.9492 36.4799C74.8459 36.1747 79.0039 36.2249 81.6469 36.209C82.2964 36.1773 82.9254 35.8839 83.3835 35.4139C84.4317 34.4842 84.1145 32.8868 84.3288 31.4866Z" fill="white"/>
<path d="M33.8255 26.3981V41.2513C33.8255 42.8012 32.5585 44.0682 31.0085 44.0682H28.2454C27.1537 44.0682 26.2102 43.4481 25.7385 42.5317C25.2047 41.4641 25.5475 41.8277 25.4419 26.3846C25.4419 24.8346 26.6954 23.581 28.2454 23.581C30.829 23.6126 31.1449 23.5058 31.8037 23.689C32.9764 24.0394 33.8255 25.1178 33.8255 26.3981Z" fill="#8555F8"/>
<path d="M32.1137 39.8225C32.1137 41.3726 30.8468 42.6396 29.2968 42.6396C26.7133 42.6081 26.3974 42.7149 25.7385 42.5317C25.2047 41.4641 25.5475 41.8277 25.4419 26.3846C25.4419 24.8346 26.6954 23.581 28.2454 23.581C30.829 23.6126 31.1449 23.5058 31.8037 23.689C32.0059 24.0799 32.0118 24.9484 32.1137 39.8225Z" fill="#A46EF2"/>
<path d="M84.477 19.951C84.477 21.3123 83.3719 22.404 82.0241 22.404H69.233C68.2896 22.404 67.4809 21.8783 67.0765 21.0832C66.8878 20.7462 66.7935 20.3688 66.7935 19.951C66.7935 18.6032 67.8852 17.5114 69.233 17.5114H82.0241C83.3731 17.5114 84.477 18.6087 84.477 19.951Z" fill="#BBCFEF"/>
<path d="M80.7571 21.2583H67.9796C67.6561 21.2583 67.3596 21.1908 67.0765 21.0831C66.8878 20.7461 66.7935 20.3687 66.7935 19.9509C66.7935 18.6031 67.8852 17.5113 69.233 17.5113C82.8344 17.566 82.214 17.381 82.9271 17.6865C83.77 19.1916 82.6689 21.2583 80.7571 21.2583Z" fill="#CBDBF4"/>
<path d="M80.2714 46.8571C80.2714 47.7602 78.1958 48.4746 75.6348 48.4746C73.074 48.4746 70.9849 47.7602 70.9849 46.8571C70.9849 45.9676 73.074 45.2532 75.6348 45.2532C78.1958 45.2532 80.2714 45.9676 80.2714 46.8571Z" fill="#D30707"/>
<path d="M82.0239 22.404V23.7383L69.2329 22.404H82.0239Z" fill="#CBDBF4"/>
<path d="M78.2233 50.3238C78.0907 50.0125 77.8951 49.7733 77.7254 50.0637C77.2668 50.8486 77.6387 54.6046 77.979 55.7601C78.2902 56.8165 78.9221 55.7119 78.6966 52.6232C78.6302 51.714 78.4668 50.8955 78.2233 50.3238Z" fill="white"/>
<path d="M78.0689 57.8334C77.6492 61.1917 78.3904 61.6304 78.5514 59.0524C78.6512 57.4545 78.2538 56.3536 78.0689 57.8334Z" fill="white"/>
<path d="M69.2329 38.0703L82.0253 40.5756V38.0703" fill="#CBDBF4"/>
<path d="M26.4577 30.1302C26.5583 29.8941 26.7067 29.7127 26.8354 29.9329C27.1833 30.5283 26.9012 33.3773 26.643 34.2538C26.4105 35.0435 25.9252 34.2518 26.0987 31.8744C26.1491 31.1848 26.273 30.5639 26.4577 30.1302Z" fill="white"/>
<path d="M26.2558 35.6217C26.2868 35.4397 26.3442 35.26 26.4205 35.3052C26.7063 35.4743 26.7572 38.7523 26.4073 37.8943C26.2864 37.598 26.234 37.1554 26.2087 36.7512C26.184 36.3559 26.199 35.956 26.2558 35.6217Z" fill="white"/>
<path d="M32.5176 68.4859V71.2716H26.7539V63.5263H28.7808V65.8266C28.7808 67.2953 29.9714 68.4859 31.4401 68.4859H32.5176Z" fill="#BBCFEF"/>
</svg>
