<svg width="100" height="100" viewBox="0 0 100 100" fill="none" xmlns="http://www.w3.org/2000/svg">
<path d="M25.983 64.5358C22.6787 64.5358 20 67.2144 20 70.5187C20 73.823 22.6787 76.5017 25.983 76.5017C29.2873 76.5017 31.9659 73.823 31.9659 70.5187V64.5358H25.983Z" fill="#DAD7DC"/>
<path d="M70.4411 15H37.7985C34.4942 15 31.8155 17.6788 31.8155 20.9831V64.5358V66.5075V70.5187C31.8155 73.823 29.1368 76.5017 25.8325 76.5017H69.2053C72.5096 76.5017 75.1882 73.823 75.1882 70.5187V19.7472C75.1882 17.1253 73.0629 15 70.4411 15Z" fill="#E6E7E8"/>
<path d="M74.3034 26.9677H39.8325C44.7213 24.4765 44.7213 17.4923 39.8325 15.0011H74.3034C77.4076 15.0011 80.1589 17.2904 80.4303 20.3827C80.4655 20.7829 80.4655 21.1859 80.4303 21.5861C80.1589 24.6784 77.4076 26.9677 74.3034 26.9677Z" fill="#DAD7DC"/>
<path d="M35.4375 30.9094H71.5664V41.1859H35.4375V30.9094Z" fill="#F58941"/>
<path d="M35.4375 43.3664H71.5664V44.4308H35.4375V43.3664Z" fill="#DAD7DC"/>
<path d="M35.4375 45.8794H71.5664V46.9438H35.4375V45.8794Z" fill="#DAD7DC"/>
<path d="M35.4375 48.3924H71.5664V49.4568H35.4375V48.3924Z" fill="#DAD7DC"/>
<path d="M35.4375 50.9058H71.5664V51.9703H35.4375V50.9058Z" fill="#DAD7DC"/>
<path d="M35.4375 53.4188H71.5664V54.4833H35.4375V53.4188Z" fill="#DAD7DC"/>
<path d="M35.4375 55.9319H71.5664V56.9964H35.4375V55.9319Z" fill="#DAD7DC"/>
<path d="M35.4375 58.4449H50.5105V59.5094H35.4375V58.4449Z" fill="#DAD7DC"/>
<path d="M35.4375 60.9584H50.5105V62.0228H35.4375V60.9584Z" fill="#DAD7DC"/>
<path d="M35.4375 63.4714H50.5105V64.5358H35.4375V63.4714Z" fill="#DAD7DC"/>
<path d="M71.7768 82.0958L67.2932 80.5164L65.7138 85L60.6533 74.4357L66.7163 71.5314L71.7768 82.0958Z" fill="#FEED32"/>
<path d="M52.8237 82.0958L57.3074 80.5164L58.8867 85L63.9472 74.4357L57.8842 71.5314L52.8237 82.0958Z" fill="#FFCB08"/>
<path d="M62.3009 78.3012C67.2569 78.3012 71.2746 74.2836 71.2746 69.3275C71.2746 64.3715 67.2569 60.3538 62.3009 60.3538C57.3448 60.3538 53.3271 64.3715 53.3271 69.3275C53.3271 74.2836 57.3448 78.3012 62.3009 78.3012Z" fill="#672658"/>
<path d="M62.3009 75.7449C65.8449 75.7449 68.7179 72.8719 68.7179 69.3278C68.7179 65.7838 65.8449 62.9108 62.3009 62.9108C58.7568 62.9108 55.8838 65.7838 55.8838 69.3278C55.8838 72.8719 58.7568 75.7449 62.3009 75.7449Z" fill="#F58941"/>
<path d="M66.6791 67.9469H63.6221L62.6775 65.0396C62.5588 64.674 62.0417 64.674 61.923 65.0396L60.9783 67.9469H57.9214C57.5371 67.9469 57.3773 68.4387 57.6882 68.6643L60.1613 70.4613L59.2167 73.3686C59.0979 73.7342 59.5162 74.0381 59.8271 73.812L62.3002 72.0152L64.7734 73.812C65.0842 74.0381 65.5025 73.7342 65.3838 73.3686L64.4392 70.4613L66.9122 68.6643C67.2232 68.4387 67.0633 67.9469 66.6791 67.9469Z" fill="#E6E7E8"/>
</svg>
