<svg width="100" height="100" viewBox="0 0 100 100" fill="none" xmlns="http://www.w3.org/2000/svg">
<path d="M68.8967 81.7458C68.8967 82.4582 68.6137 83.1414 68.11 83.6452C67.6062 84.1489 66.923 84.4319 66.2106 84.4319C65.4982 84.4319 64.8149 84.1489 64.3112 83.6452C63.8074 83.1414 63.5244 82.4582 63.5244 81.7458C63.5244 80.2624 66.2106 76.4111 66.2106 76.4111C66.2106 76.4111 68.8967 80.2624 68.8967 81.7458Z" fill="#FFA76F"/>
<path d="M80.9158 27.9874L73.9712 26.2318L66.0918 57.3751C65.6783 59.0083 65.5497 60.7005 65.7116 62.3774C65.8734 64.0542 65.7449 65.7464 65.3319 67.3796L64.7093 69.8509C64.6493 70.0882 64.6365 70.3351 64.6719 70.5774C64.7072 70.8197 64.7899 71.0526 64.9153 71.2629C65.0407 71.4732 65.2063 71.6568 65.4026 71.8031C65.599 71.9494 65.8222 72.0556 66.0596 72.1156C66.5389 72.2368 67.0468 72.1626 67.4715 71.9094C67.8962 71.6562 68.203 71.2447 68.3243 70.7653L68.9475 68.2929C69.3608 66.6598 70.0527 65.1101 70.9926 63.7121C71.9322 62.3137 72.6238 60.7639 73.037 59.1307L80.9158 27.9874Z" fill="#F58941"/>
<path d="M80.2498 15.8775C81.1703 16.1102 81.9605 16.699 82.4468 17.5144C82.9331 18.3298 83.0756 19.305 82.8429 20.2255L81.3855 25.9894L74.4445 24.2345L75.9018 18.4705C76.1345 17.5501 76.7234 16.7598 77.5388 16.2735C78.3542 15.7872 79.3294 15.6448 80.2498 15.8775Z" fill="#F58941"/>
<path d="M83.2645 25.861L72.8529 23.2286C71.8946 22.9863 70.9212 23.5668 70.6789 24.5251C70.4366 25.4835 71.0171 26.4568 71.9755 26.6991L82.387 29.3315C83.3454 29.5739 84.3187 28.9934 84.561 28.035C84.8033 27.0767 84.2228 26.1033 83.2645 25.861Z" fill="#FFA76F"/>
<path d="M73.5439 36.2649C73.4573 36.265 73.371 36.2542 73.2872 36.2327L71.5507 35.7934C71.2821 35.7253 71.0516 35.5533 70.9098 35.3152C70.7681 35.0772 70.7266 34.7926 70.7947 34.524C70.8628 34.2554 71.0348 34.0249 71.2728 33.8831C71.5109 33.7413 71.7955 33.6999 72.0641 33.768L73.7999 34.2073C74.0471 34.2696 74.263 34.42 74.4069 34.6304C74.5508 34.8407 74.6129 35.0964 74.5814 35.3493C74.5499 35.6022 74.4271 35.8349 74.236 36.0036C74.0449 36.1722 73.7987 36.2652 73.5439 36.2649Z" fill="#FFA76F"/>
<path d="M72.6667 39.7366C72.5802 39.7367 72.4939 39.7259 72.4101 39.7044L70.6736 39.2656C70.4089 39.1943 70.1828 39.0217 70.0442 38.7851C69.9056 38.5486 69.8655 38.267 69.9327 38.0012C69.9998 37.7354 70.1688 37.5066 70.4031 37.3643C70.6374 37.2219 70.9183 37.1774 71.1852 37.2403L72.9216 37.6796C73.1681 37.7423 73.3833 37.8928 73.5267 38.1028C73.6702 38.3129 73.7321 38.568 73.7008 38.8205C73.6695 39.0729 73.5472 39.3052 73.3569 39.4739C73.1665 39.6426 72.9211 39.736 72.6667 39.7366Z" fill="#FFA76F"/>
<path d="M71.7879 43.209C71.7012 43.2092 71.6147 43.1986 71.5306 43.1773L69.7948 42.7374C69.5318 42.6643 69.3079 42.4913 69.1709 42.2553C69.0339 42.0193 68.9948 41.739 69.0618 41.4745C69.1288 41.2099 69.2966 40.9821 69.5294 40.8397C69.7622 40.6973 70.0415 40.6517 70.3075 40.7126L72.044 41.152C72.2906 41.2147 72.5058 41.3653 72.6493 41.5754C72.7927 41.7856 72.8545 42.0409 72.8231 42.2934C72.7917 42.5459 72.6692 42.7783 72.4786 42.9468C72.288 43.1154 72.0424 43.2086 71.7879 43.209Z" fill="#FFA76F"/>
<path d="M70.9095 46.6813C70.8231 46.6813 70.737 46.6705 70.6534 46.649L68.9169 46.2103C68.6509 46.14 68.4234 45.9676 68.2837 45.7306C68.1441 45.4935 68.1036 45.211 68.171 44.9442C68.2385 44.6775 68.4084 44.4481 68.644 44.306C68.8795 44.1638 69.1617 44.1203 69.4291 44.1849L71.1649 44.6243C71.4115 44.687 71.6267 44.8375 71.7701 45.0476C71.9136 45.2577 71.9755 45.5129 71.9441 45.7654C71.9127 46.0179 71.7903 46.2502 71.5998 46.4188C71.4093 46.5875 71.1639 46.6808 70.9095 46.6813Z" fill="#FFA76F"/>
<path d="M70.0314 50.153C69.9449 50.1534 69.8586 50.1428 69.7748 50.1214L68.0389 49.6821C67.906 49.6485 67.7809 49.589 67.6709 49.5071C67.561 49.4252 67.4682 49.3224 67.398 49.2047C67.3277 49.0869 67.2813 48.9565 67.2615 48.8208C67.2416 48.6851 67.2487 48.5468 67.2823 48.4139C67.3159 48.281 67.3753 48.1559 67.4572 48.0459C67.5392 47.936 67.6419 47.8432 67.7597 47.773C67.8774 47.7027 68.0079 47.6563 68.1436 47.6365C68.2793 47.6166 68.4175 47.6237 68.5505 47.6573L70.2863 48.096C70.5328 48.1587 70.748 48.3092 70.8915 48.5193C71.0349 48.7293 71.0968 48.9845 71.0655 49.2369C71.0343 49.4893 70.9119 49.7217 70.7216 49.8903C70.5312 50.059 70.2858 50.1524 70.0314 50.153Z" fill="#FFA76F"/>
<path d="M69.1525 53.6259C69.0657 53.626 68.9793 53.6151 68.8952 53.5937L67.1593 53.1531C66.8908 53.0851 66.6602 52.9132 66.5184 52.6752C66.3765 52.4373 66.3351 52.1527 66.403 51.8841C66.471 51.6155 66.6429 51.3849 66.8809 51.2431C67.1189 51.1013 67.4035 51.0598 67.6721 51.1278L69.4086 51.5671C69.6557 51.6294 69.8716 51.7798 70.0155 51.9902C70.1594 52.2005 70.2215 52.4562 70.19 52.7091C70.1586 52.962 70.0357 53.1947 69.8446 53.3633C69.6535 53.532 69.4073 53.6249 69.1525 53.6247V53.6259Z" fill="#FFA76F"/>
<path d="M39.7624 63.3104C52.886 63.3104 63.5247 52.6716 63.5247 39.548C63.5247 26.4244 52.886 15.7856 39.7624 15.7856C26.6388 15.7856 16 26.4244 16 39.548C16 52.6716 26.6388 63.3104 39.7624 63.3104Z" fill="#D6D6D6"/>
<path d="M39.7624 59.7288C50.9079 59.7288 59.9432 50.6935 59.9432 39.5479C59.9432 28.4024 50.9079 19.3671 39.7624 19.3671C28.6168 19.3671 19.5815 28.4024 19.5815 39.5479C19.5815 50.6935 28.6168 59.7288 39.7624 59.7288Z" fill="#E8E8EE"/>
<path d="M49.382 27.0729C49.1647 27.0731 48.9528 27.0052 48.7761 26.8789C48.0033 26.3278 47.1819 25.8483 46.3222 25.4463C46.1952 25.3899 46.0807 25.3088 45.9854 25.2077C45.8902 25.1066 45.8161 24.9875 45.7674 24.8574C45.7187 24.7273 45.6965 24.5888 45.702 24.45C45.7075 24.3111 45.7406 24.1748 45.7995 24.049C45.8583 23.9231 45.9417 23.8103 46.0446 23.7171C46.1476 23.6238 46.2681 23.552 46.3992 23.506C46.5302 23.4599 46.6692 23.4404 46.8078 23.4486C46.9465 23.4569 47.0821 23.4927 47.2068 23.554C48.182 24.0096 49.1135 24.5535 49.9897 25.1788C50.17 25.3074 50.3049 25.49 50.3747 25.7002C50.4445 25.9105 50.4457 26.1375 50.378 26.3484C50.3104 26.5593 50.1775 26.7433 49.9984 26.8738C49.8194 27.0042 49.6035 27.0743 49.382 27.0741V27.0729Z" fill="#D6D6D6"/>
<path d="M52.1974 41.9458C53.6809 41.9458 54.8835 40.7432 54.8835 39.2596C54.8835 37.7761 53.6809 36.5735 52.1974 36.5735C50.7139 36.5735 49.5112 37.7761 49.5112 39.2596C49.5112 40.7432 50.7139 41.9458 52.1974 41.9458Z" fill="#B560E8"/>
<path d="M27.3059 41.9045C28.2949 41.9045 29.0967 41.1028 29.0967 40.1138C29.0967 39.1248 28.2949 38.323 27.3059 38.323C26.3169 38.323 25.5151 39.1248 25.5151 40.1138C25.5151 41.1028 26.3169 41.9045 27.3059 41.9045Z" fill="#B560E8"/>
<path d="M35.1677 30.5595C36.1567 30.5595 36.9585 29.7578 36.9585 28.7687C36.9585 27.7797 36.1567 26.978 35.1677 26.978C34.1787 26.978 33.377 27.7797 33.377 28.7687C33.377 29.7578 34.1787 30.5595 35.1677 30.5595Z" fill="#B560E8"/>
<path d="M40.1921 47.3683C39.9346 47.3677 39.6864 47.272 39.4951 47.0996C39.3039 46.9272 39.183 46.6902 39.1558 46.4341C39.1285 46.1781 39.1968 45.921 39.3476 45.7122C39.4983 45.5034 39.7208 45.3576 39.9725 45.3029L43.2657 44.5902C43.401 44.5577 43.5414 44.5527 43.6787 44.5752C43.816 44.5978 43.9474 44.6476 44.0651 44.7217C44.1829 44.7957 44.2847 44.8925 44.3646 45.0065C44.4444 45.1204 44.5007 45.2491 44.5301 45.3851C44.5596 45.5211 44.5615 45.6616 44.5359 45.7983C44.5103 45.9351 44.4576 46.0653 44.381 46.1814C44.3044 46.2976 44.2053 46.3972 44.0896 46.4745C43.974 46.5518 43.844 46.6052 43.7074 46.6316L40.4142 47.3444C40.3412 47.3602 40.2668 47.3682 40.1921 47.3683Z" fill="#954ACD"/>
<path d="M39.519 45.3691C39.3138 45.3688 39.1132 45.308 38.9423 45.1945C38.7714 45.0809 38.6377 44.9195 38.5579 44.7305C38.4781 44.5414 38.4557 44.3331 38.4935 44.1314C38.5313 43.9297 38.6276 43.7436 38.7705 43.5963L41.622 40.6642C41.8157 40.4686 42.0789 40.3575 42.3541 40.3549C42.6294 40.3523 42.8945 40.4585 43.092 40.6503C43.2894 40.8421 43.4031 41.1041 43.4084 41.3794C43.4137 41.6546 43.3101 41.9208 43.1203 42.1201L40.2682 45.0522C40.171 45.1526 40.0546 45.2325 39.9259 45.2869C39.7971 45.3414 39.6588 45.3694 39.519 45.3691Z" fill="#954ACD"/>
<path d="M38.2021 44.5251C37.9488 44.5248 37.7043 44.4325 37.514 44.2654C37.3237 44.0982 37.2006 43.8677 37.1676 43.6166L36.6489 39.6578C36.6291 39.5209 36.6368 39.3814 36.6713 39.2475C36.7059 39.1135 36.7667 38.9878 36.8503 38.8775C36.9338 38.7673 37.0384 38.6747 37.158 38.6053C37.2776 38.5358 37.4098 38.4907 37.547 38.4727C37.6841 38.4547 37.8235 38.4642 37.957 38.5005C38.0905 38.5368 38.2154 38.5992 38.3245 38.6842C38.4337 38.7692 38.5249 38.875 38.5928 38.9955C38.6607 39.116 38.704 39.2488 38.7202 39.3862L39.2396 43.345C39.2753 43.6197 39.2006 43.8973 39.0318 44.117C38.8631 44.3367 38.614 44.4805 38.3394 44.5167C38.2939 44.5225 38.248 44.5253 38.2021 44.5251Z" fill="#954ACD"/>
<path d="M43.462 50.1958C43.3847 50.1957 43.3077 50.1873 43.2322 50.1707L40.0536 49.4544C39.7832 49.3938 39.5479 49.2282 39.3996 48.9942C39.2513 48.7601 39.202 48.4767 39.2626 48.2063C39.3233 47.9359 39.4888 47.7006 39.7229 47.5523C39.957 47.404 40.2404 47.3547 40.5108 47.4153L43.6894 48.1316C43.9405 48.1877 44.162 48.3343 44.3117 48.5436C44.4613 48.7528 44.5284 49.0099 44.5003 49.2656C44.4721 49.5213 44.3506 49.7576 44.159 49.9292C43.9674 50.1009 43.7192 50.1958 43.462 50.1958Z" fill="#954ACD"/>
<path d="M42.1865 53.1841C41.9148 53.1845 41.6537 53.0786 41.4589 52.8892L39.2717 50.7653C39.1733 50.6698 39.0946 50.5558 39.0402 50.4298C38.9858 50.3039 38.9568 50.1684 38.9547 50.0312C38.9506 49.7542 39.0567 49.4868 39.2496 49.288C39.4426 49.0891 39.7067 48.9751 39.9838 48.9709C40.2608 48.9668 40.5282 49.0729 40.727 49.2659L42.9142 51.3873C43.0634 51.5322 43.1661 51.7182 43.2089 51.9217C43.2518 52.1252 43.233 52.3369 43.1548 52.5296C43.0766 52.7224 42.9427 52.8874 42.7702 53.0036C42.5977 53.1197 42.3945 53.1817 42.1865 53.1817V53.1841Z" fill="#954ACD"/>
<path d="M33.646 47.9437C33.369 47.9502 33.1007 47.8463 32.9002 47.655C32.6997 47.4637 32.5834 47.2006 32.5769 46.9235C32.5705 46.6465 32.6743 46.3782 32.8656 46.1777C33.0569 45.9772 33.32 45.8609 33.5971 45.8544L36.9626 45.6957C37.2396 45.6827 37.5105 45.7803 37.7155 45.967C37.9206 46.1537 38.0431 46.4143 38.0561 46.6913C38.0691 46.9684 37.9715 47.2392 37.7848 47.4443C37.598 47.6494 37.3375 47.7719 37.0604 47.7849L33.6956 47.9437H33.646Z" fill="#954ACD"/>
<path d="M37.1487 45.6788C36.9595 45.6792 36.7737 45.6281 36.6114 45.5308L33.1009 43.4314C32.8719 43.2849 32.709 43.0549 32.6468 42.7902C32.5847 42.5256 32.6281 42.2471 32.768 42.0139C32.9079 41.7808 33.1332 41.6114 33.396 41.5417C33.6587 41.472 33.9384 41.5075 34.1754 41.6407L37.6859 43.7394C37.8822 43.8568 38.0345 44.0353 38.1196 44.2476C38.2046 44.4599 38.2176 44.6942 38.1566 44.9146C38.0956 45.1351 37.964 45.3294 37.7819 45.4677C37.5998 45.6061 37.3774 45.6809 37.1487 45.6806V45.6788Z" fill="#954ACD"/>
<path d="M34.5839 51.3581C34.3503 51.3581 34.1235 51.2797 33.9397 51.1356C33.7558 50.9915 33.6256 50.7899 33.5698 50.5631C33.514 50.3363 33.5358 50.0973 33.6318 49.8843C33.7278 49.6714 33.8923 49.4967 34.0992 49.3883L36.9871 47.8816C37.1092 47.8117 37.244 47.7671 37.3837 47.7506C37.5233 47.734 37.6649 47.7458 37.7999 47.7853C37.9348 47.8247 38.0605 47.8911 38.1692 47.9803C38.2779 48.0694 38.3675 48.1797 38.4326 48.3043C38.4977 48.429 38.537 48.5655 38.548 48.7057C38.5591 48.8459 38.5418 48.9869 38.497 49.1202C38.4523 49.2535 38.3811 49.3764 38.2877 49.4816C38.1943 49.5867 38.0807 49.6719 37.9536 49.7321L35.0656 51.2429C34.9166 51.3194 34.7514 51.3589 34.5839 51.3581Z" fill="#954ACD"/>
<path d="M36.5811 53.9183C36.3962 53.9183 36.2146 53.8692 36.0549 53.776C35.8952 53.6829 35.7631 53.549 35.6721 53.3881C35.581 53.2272 35.5343 53.045 35.5367 52.8601C35.5391 52.6753 35.5905 52.4943 35.6857 52.3358L37.2532 49.7231C37.3217 49.6013 37.4138 49.4945 37.5242 49.4089C37.6347 49.3234 37.7611 49.2609 37.8962 49.225C38.0312 49.1892 38.172 49.1809 38.3103 49.2004C38.4487 49.22 38.5816 49.2671 38.7014 49.339C38.8212 49.4109 38.9254 49.506 39.0077 49.6189C39.0901 49.7317 39.149 49.8599 39.1809 49.9959C39.2129 50.1319 39.2172 50.2729 39.1937 50.4106C39.1702 50.5483 39.1193 50.6799 39.044 50.7976L37.4765 53.4109C37.3838 53.5656 37.2526 53.6937 37.0957 53.7826C36.9387 53.8715 36.7615 53.9183 36.5811 53.9183Z" fill="#954ACD"/>
<path d="M39.5185 54.5856C39.2652 54.5852 39.0207 54.4927 38.8304 54.3255C38.6401 54.1583 38.5171 53.9276 38.4841 53.6765L38.0382 50.274C38.0021 49.9993 38.0768 49.7215 38.2456 49.5017C38.4144 49.282 38.6636 49.1383 38.9383 49.1023C39.2131 49.0662 39.4909 49.1408 39.7106 49.3097C39.9304 49.4785 40.0741 49.7277 40.1101 50.0024L40.556 53.4049C40.5917 53.6796 40.517 53.9573 40.3483 54.1769C40.1795 54.3966 39.9305 54.5404 39.6558 54.5766C39.6103 54.5826 39.5644 54.5856 39.5185 54.5856Z" fill="#954ACD"/>
<path d="M39.3077 51.9144C38.7257 51.9907 38.136 51.8517 37.6494 51.5234C37.1629 51.1951 36.8132 50.7002 36.6663 50.1319L35.5835 45.9487C35.4791 45.5454 35.4617 45.1245 35.5323 44.714C35.6028 44.3035 35.7599 43.9126 35.9929 43.5673C36.2259 43.222 36.5297 42.9302 36.884 42.7111C37.2383 42.4921 37.6351 42.3508 38.0482 42.2967C38.4611 42.2427 38.8809 42.277 39.2796 42.3974C39.6783 42.5178 40.0469 42.7216 40.361 42.9952C40.675 43.2688 40.9273 43.606 41.1011 43.9845C41.275 44.363 41.3665 44.7741 41.3695 45.1906L41.4011 49.5117C41.4055 50.0987 41.195 50.667 40.8094 51.1095C40.4238 51.5521 39.8897 51.8383 39.3077 51.9144Z" fill="#B560E8"/>
</svg>
