<svg width="60" height="60" viewBox="0 0 60 60" fill="none" xmlns="http://www.w3.org/2000/svg">
<path d="M40.2943 37.623C50.0234 37.623 57.9104 29.736 57.9104 20.0069C57.9104 10.2778 50.0234 2.39075 40.2943 2.39075C30.5652 2.39075 22.6782 10.2778 22.6782 20.0069C22.6782 29.736 30.5652 37.623 40.2943 37.623Z" fill="#662658"/>
<path d="M59.3013 20.0069C59.3013 9.52643 50.7749 1 40.2945 1C29.814 1 21.2876 9.52643 21.2876 20.0069C21.2876 30.4873 29.814 39.0137 40.2945 39.0137C50.7749 39.0137 59.3013 30.4873 59.3013 20.0069ZM24.0691 20.0069C24.0691 11.0597 31.3473 3.78149 40.2945 3.78149C49.2416 3.78149 56.5198 11.0597 56.5198 20.0069C56.5198 28.954 49.2416 36.2322 40.2945 36.2322C31.3473 36.2322 24.0691 28.954 24.0691 20.0069Z" fill="#E1D6EC"/>
<path d="M42.1487 25.5698C46.7572 25.5698 50.4931 21.8339 50.4931 17.2253C50.4931 12.6168 46.7572 8.88086 42.1487 8.88086C37.5401 8.88086 33.8042 12.6168 33.8042 17.2253C33.8042 21.8339 37.5401 25.5698 42.1487 25.5698Z" fill="#E1D6EC"/>
<path d="M51.884 17.2255C51.884 15.3 51.3131 13.4178 50.2433 11.8169C49.1736 10.2159 47.6532 8.96812 45.8743 8.23129C44.0954 7.49445 42.138 7.30166 40.2496 7.6773C38.3611 8.05293 36.6265 8.98012 35.265 10.3416C33.9035 11.7031 32.9763 13.4378 32.6006 15.3262C32.225 17.2147 32.4178 19.1721 33.1546 20.951C33.8915 22.7298 35.1392 24.2503 36.7402 25.32C38.3411 26.3897 40.2234 26.9607 42.1488 26.9607C44.7298 26.9576 47.2042 25.931 49.0293 24.1059C50.8543 22.2809 51.881 19.8065 51.884 17.2255ZM35.1951 17.2255C35.1951 15.8501 35.6029 14.5057 36.367 13.3622C37.1311 12.2186 38.2171 11.3274 39.4877 10.8011C40.7584 10.2747 42.1565 10.137 43.5054 10.4053C44.8543 10.6737 46.0933 11.3359 47.0658 12.3084C48.0383 13.2809 48.7006 14.52 48.9689 15.8689C49.2372 17.2177 49.0995 18.6159 48.5732 19.8865C48.0469 21.1572 47.1556 22.2432 46.0121 23.0073C44.8686 23.7714 43.5241 24.1792 42.1488 24.1792C40.3052 24.1771 38.5377 23.4438 37.2341 22.1402C35.9304 20.8366 35.1972 19.0691 35.1951 17.2255Z" fill="#E1D6EC"/>
<path d="M42.1488 21.3976C44.4531 21.3976 46.321 19.5296 46.321 17.2253C46.321 14.9211 44.4531 13.0531 42.1488 13.0531C39.8445 13.0531 37.9766 14.9211 37.9766 17.2253C37.9766 19.5296 39.8445 21.3976 42.1488 21.3976Z" fill="#662658"/>
<path d="M24.7341 42.1476C25.0209 40.7137 25.4601 40.4869 26.5212 39.9386C27.2145 39.5806 28.077 39.135 28.9434 38.269C29.2043 38.0082 29.3508 37.6544 29.3508 37.2854C29.3508 36.9165 29.2043 36.5627 28.9434 36.3018C28.6825 36.041 28.3287 35.8944 27.9598 35.8944C27.5909 35.8944 27.2371 36.041 26.9762 36.3018C26.4161 36.862 25.847 37.156 25.2446 37.4672C23.9842 38.1183 22.5558 38.8563 22.0067 41.6017C21.6875 43.197 21.1992 44.4173 18.1256 44.4173C17.7568 44.4173 17.403 44.5638 17.1422 44.8246C16.8814 45.0855 16.7349 45.4392 16.7349 45.808C16.7349 46.1769 16.8814 46.5306 17.1422 46.7914C17.403 47.0523 17.7568 47.1988 18.1256 47.1988C23.1434 47.1991 24.301 44.3161 24.7341 42.1476Z" fill="#E1D6EC"/>
<path d="M33.532 37.6134C35.7898 35.3554 36.0353 32.9045 34.1876 31.0573C32.3399 29.21 29.8895 29.455 27.6315 31.7129C26.6528 32.6916 26.0499 33.699 25.8394 34.7067C25.6483 35.6223 25.6904 36.9834 26.9759 38.269C27.7987 39.0918 28.7404 39.4991 29.7317 39.4991C30.9671 39.4991 32.2795 38.8658 33.532 37.6134Z" fill="#E1D6EC"/>
<path d="M26.0448 53.9484C26.3315 52.5147 26.7707 52.2878 27.832 51.7395C28.5251 51.3814 29.3878 50.9358 30.2542 50.0697C30.3839 49.9407 30.4869 49.7873 30.5572 49.6185C30.6276 49.4496 30.6639 49.2685 30.6641 49.0855C30.6644 48.9026 30.6285 48.7214 30.5586 48.5523C30.4887 48.3832 30.3861 48.2296 30.2567 48.1002C30.1273 47.9709 29.9737 47.8683 29.8046 47.7984C29.6355 47.7286 29.4543 47.6927 29.2714 47.693C29.0884 47.6933 28.9073 47.7296 28.7384 47.8C28.5696 47.8704 28.4162 47.9734 28.2872 48.1031C27.7271 48.6632 27.1581 48.9571 26.5558 49.2683C25.2954 49.9195 23.867 50.6574 23.3179 53.403C22.9988 54.9982 22.5104 56.2186 19.4366 56.2186C19.0678 56.2186 18.7141 56.3651 18.4532 56.6259C18.1924 56.8867 18.0459 57.2405 18.0459 57.6093C18.0459 57.9782 18.1924 58.3319 18.4532 58.5927C18.7141 58.8535 19.0678 59.0001 19.4366 59.0001C24.4542 59.0001 25.6112 56.117 26.0448 53.9484Z" fill="#E1D6EC"/>
<path d="M34.8431 49.4142C37.1008 47.1563 37.3464 44.7055 35.4986 42.8582C34.2132 41.5726 32.8518 41.5306 31.9365 41.7217C30.9282 41.9321 29.9213 42.535 28.9426 43.5137C26.6847 45.7716 26.4393 48.2224 28.2869 50.0698C29.1097 50.8927 30.0514 51.2999 31.0429 51.2999C32.2782 51.2999 33.5905 50.6667 34.8431 49.4142Z" fill="#E1D6EC"/>
<path d="M8.99934 43.4587C9.28606 42.0249 9.72531 41.798 10.7866 41.2498C11.4796 40.8918 12.3422 40.446 13.2082 39.5801C13.4678 39.319 13.6133 38.9656 13.6128 38.5974C13.6123 38.2292 13.4658 37.8763 13.2055 37.6159C12.9451 37.3556 12.5921 37.2091 12.2239 37.2086C11.8557 37.2081 11.5024 37.3537 11.2413 37.6133C10.6812 38.1734 10.1122 38.4673 9.50986 38.7786C8.24949 39.4297 6.82108 40.1678 6.27185 42.9132C5.95291 44.5085 5.46453 45.7288 2.39075 45.7288C2.0219 45.7288 1.66816 45.8753 1.40734 46.1361C1.14652 46.3969 1 46.7507 1 47.1195C1 47.4884 1.14652 47.8421 1.40734 48.1029C1.66816 48.3637 2.0219 48.5103 2.39075 48.5103C7.40879 48.5103 8.56566 45.6273 8.99934 43.4587Z" fill="#E1D6EC"/>
<path d="M17.7977 38.9244C20.0554 36.6666 20.301 34.2157 18.4532 32.3684C17.1678 31.0828 15.8062 31.0409 14.8911 31.2319C13.8828 31.4423 12.8759 32.0453 11.8972 33.024C9.63931 35.2818 9.39384 37.7326 11.2415 39.58C12.0643 40.4029 13.006 40.8102 13.9974 40.8101C15.2328 40.81 16.5451 40.177 17.7977 38.9244Z" fill="#E1D6EC"/>
</svg>
