<svg width="60" height="60" viewBox="0 0 60 60" fill="none" xmlns="http://www.w3.org/2000/svg">
<path d="M39.4678 5.83678C35.6413 2.58388 33.1722 0.965324 30.3968 1.00056C25.2921 1.00056 25.3589 2.58388 21.5325 5.83678C21.2177 6.11426 20.8803 6.36504 20.5239 6.58651L21.1436 8.65587V8.61091C21.5082 8.77496 21.7822 9.14193 21.8478 9.8309C21.861 9.99096 21.8635 10.1517 21.8553 10.3121C21.7423 13.644 23.3812 14.943 24.3436 15.282C25.3059 15.621 26.7201 18.9517 24.8525 22.1146C22.9848 25.2776 25.1482 26.3087 25.7327 27.6435C26.0025 28.2565 27.3359 30.5282 27.534 34.1736H34.0921C34.182 30.5282 35.3023 28.1982 35.5709 27.587C36.1553 26.254 38.0181 25.2736 36.1493 22.1118C34.2804 18.9501 35.696 15.6197 36.6596 15.2806C37.6232 14.9416 39.2636 13.6432 39.1506 10.3108C39.1443 10.1504 39.1488 9.98973 39.164 9.82993C39.2296 9.14095 39.5067 8.77423 39.8797 8.61019L40.9466 6.8107C40.4121 6.55397 39.9147 6.22638 39.4678 5.83678Z" fill="#662658"/>
<path d="M27.7688 22.1146C29.6364 18.9516 28.2235 15.6209 27.2599 15.2819C26.2963 14.9429 24.6586 13.6439 24.7717 10.312C24.7798 10.1516 24.7773 9.99089 24.7641 9.83084C24.6985 9.14186 24.4245 8.77489 24.06 8.61085V8.65581L23.4402 6.58644C23.7967 6.36497 24.134 6.11419 24.4488 5.83671C27.7711 3.01238 28.1592 1.44693 31.5451 1.08337C31.1654 1.02359 30.7813 0.995871 30.3968 1.0005C25.2921 1.0005 25.3589 2.58381 21.5325 5.83671C21.2177 6.11419 20.8803 6.36497 20.5239 6.58644L21.1436 8.65581V8.61085C21.5082 8.77489 21.7822 9.14186 21.8478 9.83084C21.861 9.99089 21.8635 10.1516 21.8553 10.312C21.7423 13.6439 23.3812 14.9429 24.3436 15.2819C25.3059 15.6209 26.7201 18.9516 24.8525 22.1146C22.9848 25.2776 25.1482 26.3086 25.7327 27.6434C26.0025 28.2564 27.3359 30.5281 27.534 34.1735H30.4503C30.2522 30.5281 28.9193 28.2564 28.649 27.6428C28.0645 26.3086 25.8999 25.2763 27.7688 22.1146Z" fill="#662658"/>
<path d="M57.2183 3.07598C56.8997 2.58951 56.4146 2.23603 55.8539 2.08188C55.2932 1.92773 54.6956 1.98351 54.1731 2.23876C54.1525 2.24969 54.1318 2.26063 54.1099 2.27157C53.311 2.69481 52.4125 2.89424 51.5096 2.84875C50.212 2.79762 48.925 3.10048 47.7864 3.72486C46.9105 4.20716 46.1377 4.85655 45.5117 5.63626C44.83 6.46376 43.2455 7.87817 40.9465 6.81129C28.4501 3.75888 20.6793 6.50751 20.5238 6.5634C20.5232 6.5641 20.5223 6.56453 20.5214 6.56462C17.9696 8.06895 16.2149 6.51966 15.4883 5.63626C14.8623 4.85655 14.0895 4.20716 13.2136 3.72486C12.075 3.10048 10.788 2.79762 9.49042 2.84875C8.58745 2.89424 7.68898 2.69481 6.89005 2.27157C6.86817 2.26063 6.84752 2.24969 6.82686 2.23876C6.3044 1.98351 5.70675 1.92773 5.14608 2.08188C4.58541 2.23603 4.10028 2.58951 3.78175 3.07598C0.633348 7.82592 8.01161 10.8759 8.01161 10.8759L9.51959 8.8284C9.41387 8.79073 4.62383 7.08955 5.3043 5.09553C5.99207 3.07963 6.59477 4.66659 8.10032 4.62406C9.60586 4.58153 13.4238 5.02383 15.1967 7.7117C15.4692 8.12572 15.8339 8.47094 16.2623 8.72026C16.6886 8.96203 17.1656 9.1003 17.6551 9.12394C18.1445 9.14758 18.6327 9.05592 19.0802 8.85635C19.689 8.5951 20.5262 8.34721 21.1204 8.61089V8.60968C21.1204 8.60968 23.8569 6.13932 26.0769 8.51976C26.6821 9.16864 27.0369 10.08 27.1049 11.0399C27.3565 14.5213 28.156 16.7644 28.7976 17.6442C29.0613 18.0063 29.3104 18.773 29.3298 19.2493C29.4283 21.8084 26.8206 27.2352 30.5 31.3873C33.1903 26.709 31.1185 21.1474 31.1319 19.2651C31.1343 18.7876 31.3798 18.0063 31.6434 17.6442C32.285 16.7644 33.6435 14.5213 33.8951 11.0399C33.9631 10.08 34.3179 9.16864 34.9231 8.51976C37.1431 6.13932 39.8796 8.61089 39.8796 8.61089C40.4738 8.34721 41.311 8.5951 41.9198 8.85635C42.3673 9.05592 42.8555 9.14758 43.3449 9.12394C43.8344 9.1003 44.3114 8.96203 44.7377 8.72026C45.166 8.47094 45.5308 8.12572 45.8033 7.7117C47.5762 5.02383 51.3954 4.58031 52.8997 4.62406C54.404 4.6678 55.0079 3.07963 55.6957 5.09553C56.3762 7.08955 51.444 8.71054 51.3382 8.74577L52.9884 10.8759C52.9884 10.8759 60.3666 7.82592 57.2183 3.07598Z" fill="#E1D6EC"/>
<path d="M27.2397 46.4294H33.7601V52.4297H27.2397V46.4294Z" fill="#662658"/>
<path d="M29.1899 53.725H31.8098V57.939H29.1899V53.725Z" fill="#E1D6EC"/>
<path d="M45.395 24.6701C46.7154 24.5488 48.0451 24.7618 49.2615 25.2894C50.4779 25.817 51.542 26.6423 52.3558 27.6891C53.1695 28.7359 53.7067 29.9707 53.9179 31.2797C54.1291 32.5887 54.0075 33.9298 53.5643 35.1795C53.1211 36.4291 52.3706 37.5471 51.3818 38.4305C50.3931 39.3139 49.1979 39.9343 47.9064 40.2345C46.6149 40.5347 45.2687 40.5051 43.9916 40.1484C42.7146 39.7916 41.5479 39.1193 40.5989 38.1932C40.5004 38.0979 40.3819 38.0258 40.252 37.982C40.1221 37.9383 39.9841 37.9241 39.848 37.9405C36.0714 38.3876 35.3423 36.2928 35.3423 36.2928C35.3423 36.2928 37.5781 35.1834 38.1857 33.645C38.2377 33.5109 38.2577 33.3665 38.244 33.2233C38.2121 32.8447 38.2065 32.4642 38.227 32.0848C38.3394 30.1965 39.124 28.4108 40.4387 27.0508C41.7535 25.6908 43.5116 24.8463 45.395 24.6701Z" fill="#662658"/>
<path d="M9.52101 8.82837C10.374 8.32019 11.3715 8.10949 12.3571 8.22931C13.3098 8.34718 14.2928 8.75668 14.9818 9.77131C15.2274 10.1855 15.3571 10.658 15.3573 11.1395C15.3572 11.5355 15.2705 11.9266 15.1033 12.2854C14.8233 12.8879 14.3297 13.365 13.7181 13.6245C12.4155 14.181 11.3619 14.5164 10.3801 14.3183C8.83568 14.006 7.74936 12.1761 8.01183 10.8759C8.19166 9.98761 8.76399 9.28891 9.5198 8.82837H9.52101Z" fill="#662658"/>
<path d="M51.3372 8.74584H51.3384C52.1634 9.20395 52.7977 9.93302 52.9885 10.876C53.251 12.1762 52.1647 14.0061 50.6202 14.3184C49.6384 14.5165 48.5849 14.1811 47.2823 13.6246C46.6707 13.3651 46.1771 12.888 45.897 12.2855C45.7298 11.9267 45.6431 11.5356 45.6431 11.1396C45.6432 10.6581 45.7729 10.1856 46.0185 9.77141C46.7075 8.75678 47.6906 8.34728 48.6432 8.22941C49.5731 8.11704 50.5148 8.29757 51.3372 8.74584Z" fill="#662658"/>
<path d="M32.9445 57.696H28.0536C27.8374 57.696 27.63 57.782 27.4771 57.9349C27.3242 58.0878 27.2383 58.2952 27.2383 58.5114C27.2383 58.7276 27.3242 58.935 27.4771 59.0879C27.63 59.2408 27.8374 59.3267 28.0536 59.3267H32.9445C33.1608 59.3267 33.3682 59.2408 33.5211 59.0879C33.674 58.935 33.7599 58.7276 33.7599 58.5114C33.7599 58.2952 33.674 58.0878 33.5211 57.9349C33.3682 57.782 33.1608 57.696 32.9445 57.696Z" fill="#E1D6EC"/>
<path d="M27.2192 46.4464H30.1355V52.4005H27.2192V46.4464Z" fill="#662658"/>
<path d="M34.3544 52.1868H26.6456C26.4093 52.1868 26.1828 52.2806 26.0158 52.4476C25.8487 52.6147 25.7549 52.8412 25.7549 53.0775C25.7549 53.3137 25.8487 53.5402 26.0158 53.7073C26.1828 53.8743 26.4093 53.9681 26.6456 53.9681H34.3544C34.5906 53.9681 34.8171 53.8743 34.9842 53.7073C35.1512 53.5402 35.245 53.3137 35.245 53.0775C35.245 52.8412 35.1512 52.6147 34.9842 52.4476C34.8171 52.2806 34.5906 52.1868 34.3544 52.1868Z" fill="#E1D6EC"/>
<path d="M37.7725 37.5078C37.7725 37.5078 40.0084 36.3984 40.6159 34.86C40.668 34.7259 40.6879 34.5816 40.6743 34.4384C40.6424 34.0597 40.6367 33.6793 40.6573 33.2998C40.7263 32.1093 41.0637 30.9498 41.6443 29.9082C42.225 28.8666 43.0337 27.9698 44.01 27.285C44.9864 26.6003 46.105 26.1453 47.2821 25.9541C48.4592 25.7629 49.6643 25.8405 50.8071 26.1811C49.6617 25.3357 48.3091 24.8154 46.8923 24.6754C45.4756 24.5354 44.0473 24.7807 42.7585 25.3855C41.4697 25.9903 40.3683 26.9321 39.5706 28.1113C38.7729 29.2905 38.3087 30.6634 38.227 32.0847C38.2065 32.4641 38.2121 32.8446 38.244 33.2233C38.2577 33.3664 38.2377 33.5108 38.1857 33.6449C37.5781 35.1833 35.3423 36.2927 35.3423 36.2927C35.3423 36.2927 35.8249 37.6788 38.0379 37.9552C37.9282 37.8198 37.8388 37.6691 37.7725 37.5078Z" fill="#662658"/>
<path d="M44.5253 35.9841C44.3528 35.9843 44.1858 35.9231 44.0543 35.8113C43.2697 35.1464 43.0922 34.3636 42.9627 33.7921C42.8201 33.1636 42.7983 33.0671 42.2896 32.9973C41.3078 32.8637 40.5641 32.2729 40.1382 31.2906C40.0613 31.1131 40.0581 30.9124 40.1292 30.7326C40.2003 30.5528 40.3399 30.4086 40.5173 30.3317C40.6948 30.2548 40.8955 30.2516 41.0753 30.3227C41.2551 30.3938 41.3993 30.5334 41.4762 30.7108C41.7666 31.3812 42.1923 31.5128 42.4871 31.5528C43.9969 31.7594 44.2303 32.7886 44.3847 33.4698C44.4917 33.9415 44.584 34.3489 44.997 34.6989C45.111 34.7954 45.1925 34.9247 45.2306 35.069C45.2687 35.2134 45.2615 35.3661 45.2101 35.5062C45.1586 35.6464 45.0653 35.7675 44.9429 35.8529C44.8204 35.9384 44.6747 35.9842 44.5253 35.9841Z" fill="#E1D6EC"/>
<path d="M50.2146 36.3608H50.2024C50.1067 36.3592 50.0122 36.3388 49.9243 36.3007C49.8365 36.2625 49.757 36.2075 49.6904 36.1387C49.6239 36.0698 49.5715 35.9886 49.5363 35.8995C49.5012 35.8104 49.4839 35.7153 49.4855 35.6195C49.4977 34.8891 49.1642 34.5941 48.9123 34.4356C47.6224 33.6247 47.8349 32.5907 47.9755 31.9065C48.0727 31.4326 48.1568 31.0234 47.9252 30.5344C47.8424 30.3596 47.8324 30.1591 47.8975 29.977C47.9625 29.7949 48.0972 29.6461 48.272 29.5633C48.4467 29.4806 48.6472 29.4706 48.8293 29.5356C49.0114 29.6007 49.1602 29.7354 49.243 29.9101C49.6832 30.8396 49.5217 31.6258 49.4037 32.1999C49.2741 32.8312 49.254 32.9282 49.6884 33.2013C50.5269 33.7287 50.9613 34.5733 50.9434 35.6437C50.9403 35.835 50.8621 36.0173 50.7258 36.1514C50.5894 36.2856 50.4058 36.3607 50.2146 36.3608Z" fill="#E1D6EC"/>
<path d="M41.3451 35.984C41.1761 35.9842 41.0124 35.9258 40.8817 35.8188C40.751 35.7118 40.6615 35.5628 40.6284 35.3971C40.5953 35.2315 40.6207 35.0595 40.7002 34.9105C40.7797 34.7614 40.9085 34.6446 41.0645 34.5799C41.2205 34.5152 41.3941 34.5065 41.5558 34.5555C41.7175 34.6045 41.8571 34.708 41.951 34.8484C42.0449 34.9889 42.0871 35.1575 42.0706 35.3256C42.0541 35.4937 41.9797 35.6509 41.8603 35.7703C41.7236 35.9069 41.5383 35.9837 41.3451 35.984Z" fill="#E1D6EC"/>
<path d="M43.9881 29.5643C43.8192 29.5646 43.6555 29.5062 43.5248 29.3991C43.3941 29.2921 43.3046 29.1431 43.2715 28.9774C43.2384 28.8118 43.2637 28.6398 43.3433 28.4908C43.4228 28.3418 43.5515 28.2249 43.7076 28.1602C43.8636 28.0955 44.0372 28.0869 44.1989 28.1358C44.3605 28.1848 44.5002 28.2883 44.5941 28.4288C44.6879 28.5692 44.7302 28.7378 44.7137 28.9059C44.6971 29.074 44.6228 29.2312 44.5033 29.3506C44.3665 29.487 44.1813 29.5638 43.9881 29.5643Z" fill="#E1D6EC"/>
<path d="M24.9107 41.3824C24.7174 41.3824 24.5319 41.3056 24.3952 41.1688C24.2585 41.0321 24.1816 40.8467 24.1816 40.6533V40.3664C24.1816 40.173 24.2585 39.9876 24.3952 39.8509C24.5319 39.7141 24.7174 39.6373 24.9107 39.6373C25.1041 39.6373 25.2895 39.7141 25.4263 39.8509C25.563 39.9876 25.6398 40.173 25.6398 40.3664V40.6533C25.6398 40.8467 25.563 41.0321 25.4263 41.1688C25.2895 41.3056 25.1041 41.3824 24.9107 41.3824Z" fill="#E1D6EC"/>
<path d="M24.9107 50.848C24.7174 50.848 24.5319 50.7712 24.3952 50.6345C24.2585 50.4978 24.1816 50.3123 24.1816 50.1189V42.7431C24.1816 42.5498 24.2585 42.3643 24.3952 42.2276C24.5319 42.0909 24.7174 42.014 24.9107 42.014C25.1041 42.014 25.2895 42.0909 25.4263 42.2276C25.563 42.3643 25.6398 42.5498 25.6398 42.7431V50.1189C25.6398 50.3123 25.563 50.4978 25.4263 50.6345C25.2895 50.7712 25.1041 50.848 24.9107 50.848Z" fill="#E1D6EC"/>
<path d="M30.5001 34.0491C30.3067 34.0491 30.1213 33.9723 29.9845 33.8356C29.8478 33.6988 29.771 33.5134 29.771 33.32V28.0292C29.771 27.8359 29.8478 27.6504 29.9845 27.5137C30.1213 27.377 30.3067 27.3002 30.5001 27.3002C30.6934 27.3002 30.8789 27.377 31.0156 27.5137C31.1523 27.6504 31.2292 27.8359 31.2292 28.0292V33.32C31.2292 33.5134 31.1523 33.6988 31.0156 33.8356C30.8789 33.9723 30.6934 34.0491 30.5001 34.0491Z" fill="#E1D6EC"/>
<path d="M31.7222 34.5429V36.6815H29.2774V34.5429C29.2769 34.4214 29.295 34.3005 29.3308 34.1844C29.3928 33.9828 29.5059 33.8007 29.659 33.6557C29.8122 33.5107 30.0002 33.4077 30.2048 33.3567C30.4095 33.3058 30.6238 33.3085 30.8271 33.3648C31.0303 33.421 31.2156 33.5288 31.3649 33.6777C31.5934 33.9077 31.7218 34.2187 31.7222 34.5429Z" fill="#E1D6EC"/>
<path d="M31.7488 36.6815H29.2505C29.1469 36.6814 29.0443 36.7017 28.9486 36.7413C28.8529 36.7809 28.7659 36.839 28.6926 36.9122C28.6194 36.9855 28.5613 37.0725 28.5217 37.1682C28.4821 37.2639 28.4618 37.3665 28.4619 37.4701V39.6938H32.5375V37.4701C32.5376 37.3665 32.5172 37.2639 32.4777 37.1682C32.4381 37.0725 32.38 36.9855 32.3067 36.9122C32.2335 36.839 32.1465 36.7809 32.0508 36.7413C31.955 36.7017 31.8524 36.6814 31.7488 36.6815Z" fill="#662658"/>
<path d="M31.9445 36.7322C31.8801 36.7207 31.8145 36.7184 31.7494 36.7253H29.2511C28.8149 36.7253 28.4346 37.034 28.4346 37.4702V39.6416H31.3509V37.4702C31.3542 37.2988 31.4143 37.1334 31.5217 36.9999C31.6291 36.8664 31.7778 36.7722 31.9445 36.7322Z" fill="#662658"/>
<path d="M32.7261 39.4508H28.2738C27.9996 39.4508 27.7365 39.5598 27.5426 39.7537C27.3487 39.9476 27.2397 40.2106 27.2397 40.4849V46.6723H33.7601V40.4849C33.7601 40.2106 33.6512 39.9476 33.4573 39.7537C33.2633 39.5598 33.0003 39.4508 32.7261 39.4508Z" fill="#662658"/>
<path d="M31.1903 39.3986H28.274C27.9923 39.4096 27.7257 39.5285 27.5293 39.7307C27.333 39.933 27.2219 40.203 27.2192 40.4849V46.6893H30.1355V40.4849C30.1382 40.203 30.2493 39.933 30.4456 39.7307C30.642 39.5285 30.9086 39.4096 31.1903 39.3986Z" fill="#662658"/>
<path d="M49.0999 28.3652C49.2154 28.6325 49.5143 29.3239 49.1595 29.872C49.149 29.8894 49.1372 29.9061 49.1242 29.9218C49.0307 30.0351 48.9061 30.1187 48.7658 30.1624L48.1849 30.3519C48.0631 30.3917 47.9333 30.4009 47.807 30.3787C47.697 30.3595 47.5905 30.3238 47.4911 30.273C46.9358 29.9753 46.8374 29.2948 46.8058 29.0809C46.7013 28.3567 46.9358 27.2631 47.5446 27.0723C48.1971 26.8694 48.8581 27.8026 49.0999 28.3652Z" fill="#E1D6EC"/>
<path d="M46.6161 35.5613C47.0111 36.1773 47.2492 37.2709 46.7729 37.695C46.2625 38.1495 45.2746 37.5711 44.8226 37.1592C44.6063 36.9635 44.0498 36.4568 44.1458 35.8116C44.1488 35.7911 44.1528 35.7708 44.1579 35.7508C44.1965 35.6093 44.275 35.4819 44.384 35.3838L44.5261 35.255L44.836 34.9719C44.9306 34.8856 45.0449 34.8239 45.1689 34.7921C45.2768 34.7643 45.3882 34.7529 45.4994 34.7581C46.1289 34.8006 46.4995 35.379 46.6161 35.5613Z" fill="#E1D6EC"/>
</svg>
