<svg width="60" height="60" viewBox="0 0 60 60" fill="none" xmlns="http://www.w3.org/2000/svg">
<path d="M29.5653 19.5642C28.9191 18.4334 28.5792 17.1536 28.5792 15.8512V6.61278L22.6722 5.32568L20.9746 26.5097L31.9726 26.5836L32.6477 24.9583L29.5653 19.5642Z" fill="#E1D6EC"/>
<path d="M21.0951 2.87097V15.8513C21.0951 17.1537 20.7552 18.4335 20.1091 19.5643L17.0259 24.9598L21.317 27.6265L22.9976 19.5643C23.249 18.4335 23.3812 17.1537 23.3812 15.8513V9.41942C23.3812 7.8695 24.6377 6.61299 26.1876 6.61299H28.5787V2.87097H21.0951Z" fill="#E1D6EC"/>
<path d="M41.3287 40.1504L32.6476 24.9585C32.0589 25.1531 31.3976 25.3227 30.2457 25.3227C27.5384 25.3227 27.5384 24.3872 24.8312 24.3872C23.3137 24.3872 22.6473 24.6815 21.8774 24.94L13.2734 43.1423H39.0759C41.0681 43.1422 42.317 41.8801 41.3287 40.1504Z" fill="#662658"/>
<path d="M22.8896 42.1613C20.5158 42.1613 18.7421 39.9795 19.2265 37.6556L21.8772 24.9398C21.2745 25.1421 20.6083 25.3226 19.4203 25.3226C18.2727 25.3226 17.6129 25.1538 17.0261 24.9598L8.34568 40.1503C7.3573 41.88 8.60623 44.0322 10.5984 44.0322H39.0758C40.3116 44.0322 41.2586 43.203 41.5658 42.1613H22.8896Z" fill="#662658"/>
<path d="M28.579 4.7419H21.0951C20.0617 4.7419 19.2241 3.90419 19.2241 2.87095C19.2241 1.83771 20.0618 1 21.0951 1H28.579C29.6122 1 30.4499 1.83771 30.4499 2.87095C30.4499 3.9043 29.6122 4.7419 28.579 4.7419Z" fill="#662658"/>
<path d="M52.9001 44.0323C52.9001 47.8372 51.4803 51.3105 49.1418 53.9513C46.3996 57.048 42.3939 58.5811 37.9324 58.5811C29.6659 58.5811 23.3364 52.2987 23.3364 44.0322C23.3364 39.5521 24.933 35.5317 28.052 32.7887C30.688 30.4704 34.1461 29.0645 37.9324 29.0645C46.1987 29.0646 52.9001 35.7658 52.9001 44.0323Z" fill="#662658"/>
<path d="M39.2273 57.7048C30.9609 57.7048 24.2596 51.0035 24.2596 42.7371C24.2596 38.9338 25.7148 35.4293 28.0517 32.7888C24.9535 35.5311 22.9644 39.5694 22.9644 44.0323C22.9644 52.2988 29.6656 59 37.9321 59C42.3952 59 46.3992 57.05 49.1415 53.9513C46.501 56.2885 43.031 57.7048 39.2273 57.7048Z" fill="#E1D6EC"/>
<path d="M47.2869 44.0322C47.2869 43.2327 46.3458 42.5675 46.1488 41.8302C45.9449 41.0672 46.4213 40.0219 46.0348 39.3538C45.6428 38.6763 44.4955 38.5687 43.9458 38.0188C43.3959 37.4689 43.2883 36.3216 42.6108 35.9296C41.9427 35.5431 40.8973 36.0195 40.1343 35.8155C39.3969 35.6184 38.7317 34.6772 37.9321 34.6772C37.1326 34.6772 36.4674 35.6184 35.7301 35.8154C34.9671 36.0193 33.9218 35.5428 33.2537 35.9293C32.5762 36.3213 32.4686 37.4686 31.9187 38.0184C31.3689 38.5682 30.2215 38.6758 29.8295 39.3534C29.443 40.0214 29.9194 41.0669 29.7154 41.8298C29.5183 42.5673 28.5771 43.2325 28.5771 44.032C28.5771 44.8315 29.5183 45.4967 29.7153 46.2341C29.9192 46.997 29.4427 48.0424 29.8292 48.7104C30.2212 49.3879 31.3685 49.4956 31.9183 50.0454C32.4681 50.5953 32.5757 51.7426 33.2533 52.1346C33.9213 52.5211 34.9668 52.0446 35.7297 52.2486C36.4672 52.4457 37.1324 53.3869 37.9319 53.3869C38.7314 53.3869 39.3966 52.4457 40.134 52.2487C40.8969 52.0448 41.9423 52.5213 42.6103 52.1348C43.2878 51.7428 43.3955 50.5955 43.9453 50.0458C44.4952 49.4959 45.6425 49.3883 46.0346 48.7107C46.4211 48.0427 45.9446 46.9973 46.1486 46.2343C46.3459 45.497 47.2869 44.8318 47.2869 44.0322Z" fill="#E1D6EC"/>
<path d="M43.5455 44.0323C43.5455 40.9324 41.0324 38.4194 37.9326 38.4194C36.8636 38.4194 35.8644 38.7183 35.014 39.237C33.3984 40.2224 32.6006 42.0014 32.6006 44.0324C32.6006 47.1323 34.8327 49.3178 37.9326 49.3178C39.9624 49.3178 41.7406 48.5678 42.7263 46.9537C43.246 46.1026 43.5455 45.1025 43.5455 44.0323Z" fill="#662658"/>
<path d="M39.8031 47.7741C36.7032 47.7741 34.1903 45.2612 34.1903 42.1613C34.1903 41.0912 34.494 40.0878 35.0136 39.2368C33.3994 40.2226 32.3193 42.0023 32.3193 44.0322C32.3193 47.1322 34.8323 49.6451 37.9322 49.6451C39.9621 49.6451 41.7401 48.5678 42.7259 46.9535C41.8749 47.4732 40.8732 47.7741 39.8031 47.7741Z" fill="#662658"/>
<path d="M36.9969 46.8386C38.0302 46.8386 38.8679 46.0009 38.8679 44.9676C38.8679 43.9343 38.0302 43.0967 36.9969 43.0967C35.9636 43.0967 35.126 43.9343 35.126 44.9676C35.126 46.0009 35.9636 46.8386 36.9969 46.8386Z" fill="#E1D6EC"/>
</svg>
