<svg width="60" height="60" viewBox="0 0 60 60" fill="none" xmlns="http://www.w3.org/2000/svg">
<g clip-path="url(#clip0_956_1540)">
<path d="M51.5607 43.6615L42.6287 57.8112C34.8141 57.8112 28.479 51.4761 28.479 43.6615C28.479 35.8469 34.8141 29.5118 42.6287 29.5118L51.5607 43.6615Z" fill="#662658"/>
<path d="M56.7781 43.6616C56.7781 51.4762 50.443 57.8113 42.6284 57.8113V29.5121C50.4432 29.5121 56.7781 35.847 56.7781 43.6616Z" fill="#662658"/>
<path d="M48.7359 43.6616L42.6286 53.3363C37.2853 53.3363 32.9539 49.0048 32.9539 43.6616C32.9539 38.3183 37.2853 33.9868 42.6286 33.9868L48.7359 43.6616Z" fill="#E1D6EC"/>
<path d="M52.3032 43.6616C52.3032 49.0048 47.9717 53.3363 42.6284 53.3363V33.9868C47.9715 33.9868 52.3032 38.3184 52.3032 43.6616Z" fill="#E1D6EC"/>
<path d="M46.8035 43.6615L42.6287 50.2748C38.9763 50.2748 36.0154 47.3139 36.0154 43.6615C36.0154 40.0091 38.9762 37.0481 42.6287 37.0481L46.8035 43.6615Z" fill="#E1D6EC"/>
<path d="M49.2418 43.6615C49.2418 47.3139 46.281 50.2748 42.6284 50.2748V37.0481C46.2808 37.0483 49.2418 40.0091 49.2418 43.6615Z" fill="#E1D6EC"/>
<path d="M44.3016 43.6614L42.6288 46.3112C41.1654 46.3112 39.979 45.1248 39.979 43.6614C39.979 42.198 41.1654 41.0116 42.6288 41.0116L44.3016 43.6614Z" fill="#662658"/>
<path d="M45.2785 43.6614C45.2785 45.1248 44.0921 46.3112 42.6287 46.3112V41.0116C44.0921 41.0116 45.2785 42.198 45.2785 43.6614Z" fill="#662658"/>
<path d="M21.0668 4.21399H10.4414V47.3687C10.4414 53.1361 15.1167 57.8114 20.8841 57.8114C20.9454 57.8114 21.0058 57.8078 21.0668 57.8068L23.3404 25.8939L21.0668 4.21399Z" fill="#E1D6EC"/>
<path d="M21.0674 57.8067C26.7501 57.7087 31.3274 53.0746 31.3274 47.3685V4.21399H21.0674V57.8067Z" fill="#E1D6EC"/>
<path d="M20.8845 6.76561H8.7605V1.66199H20.8845L22.0909 4.21388L20.8845 6.76561Z" fill="#662658"/>
<path d="M20.8848 1.66199H33.0088V6.76561H20.8848V1.66199Z" fill="#662658"/>
<path d="M21.0195 15.1815H13.1685V47.0683C13.1685 51.3297 16.6231 54.7844 20.8845 54.7844C20.9297 54.7844 20.9745 54.7817 21.0195 54.781L22.6994 31.2006L21.0195 15.1815Z" fill="#662658"/>
<path d="M21.0193 54.781C25.2183 54.7087 28.6003 51.2845 28.6003 47.0683V15.1815H21.0193V54.781Z" fill="#662658"/>
<path d="M24.8097 26.6531C23.6956 26.6531 22.7925 28.4951 22.7925 29.6092C22.7925 30.7233 23.6956 31.6264 24.8097 31.6264C25.9238 31.6264 26.8269 30.7233 26.8269 29.6092C26.8269 28.4951 25.9238 26.6531 24.8097 26.6531Z" fill="#E1D6EC"/>
<path d="M24.9983 33.7652C25.3243 33.2283 25.6614 32.6731 25.7008 31.5495L25.7111 31.2561L23.9289 31.1937L23.9398 31.5083C23.9738 32.4788 23.7238 32.9642 23.459 33.4783C23.1713 34.0366 22.8739 34.614 22.9132 35.7376C22.9526 36.8613 23.2897 37.4165 23.6157 37.9534C23.9159 38.4475 24.1994 38.9143 24.2333 39.885C24.238 40.0169 24.2369 40.1392 24.2317 40.2545C24.1987 40.9874 23.9813 41.411 23.7524 41.8551C23.4648 42.4136 23.1674 42.991 23.2066 44.1146C23.2461 45.2383 23.5832 45.7935 23.9092 46.3303C24.2088 46.8237 24.4917 47.2897 24.5266 48.2568V48.2928L25.1136 48.3031C25.153 47.1793 24.8556 46.6019 24.5678 46.0436C24.3029 45.5296 24.0529 45.044 24.0869 44.0735C24.1208 43.103 24.4043 42.6362 24.7045 42.1418C24.9969 41.6603 25.2975 41.1626 25.385 40.2545C25.395 40.1501 25.403 40.0417 25.407 39.926C25.4465 38.8023 25.1489 38.2249 24.8614 37.6666C24.5965 37.1526 24.3464 36.6672 24.3805 35.6966C24.4148 34.7261 24.6982 34.2593 24.9983 33.7652Z" fill="#E1D6EC"/>
<path d="M17.934 18.3148C16.8198 18.3148 15.9167 20.1568 15.9167 21.2709C15.9167 22.385 16.8198 23.2881 17.934 23.2881C19.0481 23.2881 19.9512 22.385 19.9512 21.2709C19.9512 20.1568 19.0479 18.3148 17.934 18.3148Z" fill="#E1D6EC"/>
<path d="M18.1225 25.4267C18.4485 24.8898 18.7857 24.3346 18.8251 23.211L18.8354 22.9176L17.0532 22.8552L17.0641 23.1698C17.0981 24.1403 16.8481 24.6257 16.5832 25.1398C16.2956 25.6981 15.9982 26.2755 16.0374 27.3991C16.0769 28.5228 16.414 29.078 16.74 29.6148C17.0402 30.109 17.3236 30.5758 17.3576 31.5465C17.3623 31.6784 17.3612 31.8007 17.356 31.916C17.323 32.6489 17.1056 33.0725 16.8767 33.5166C16.589 34.0751 16.2916 34.6525 16.3309 35.7761C16.3703 36.8998 16.7074 37.455 17.0334 37.9918C17.333 38.4852 17.616 38.9512 17.6509 39.9183V39.9543L18.2378 39.9646C18.2772 38.8408 17.9799 38.2634 17.692 37.7051C17.4272 37.1911 17.1772 36.7055 17.2112 35.735C17.2451 34.7645 17.5286 34.2977 17.8288 33.8033C18.1211 33.3218 18.4218 32.8241 18.5092 31.916C18.5193 31.8116 18.5272 31.7032 18.5313 31.5875C18.5707 30.4638 18.2732 29.8864 17.9857 29.3281C17.7208 28.8141 17.4707 28.3285 17.5048 27.3581C17.539 26.3878 17.8225 25.921 18.1225 25.4267Z" fill="#E1D6EC"/>
</g>
<defs>
<clipPath id="clip0_956_1540">
<rect width="60" height="60" fill="white"/>
</clipPath>
</defs>
</svg>
