<?xml version="1.0" standalone="no"?>
<!DOCTYPE svg PUBLIC "-//W3C//DTD SVG 20010904//EN"
 "http://www.w3.org/TR/2001/REC-SVG-20010904/DTD/svg10.dtd">
<svg version="1.0" xmlns="http://www.w3.org/2000/svg"
 width="1080.000000pt" height="1080.000000pt" viewBox="0 0 1080.000000 1080.000000"
 preserveAspectRatio="xMidYMid meet">

<g transform="translate(0.000000,1080.000000) scale(0.100000,-0.100000)"
fill="#6F3161" stroke="none">
<path d="M5145 9229 c-759 -60 -1465 -343 -2080 -833 -133 -106 -449 -424
-554 -557 -250 -319 -433 -634 -568 -979 -56 -141 -113 -309 -113 -329 0 -4
87 -11 193 -15 545 -19 1002 -82 1297 -177 129 -42 264 -107 360 -173 l80 -55
46 92 c127 254 293 477 464 624 293 252 637 389 1066 424 294 24 575 -32 853
-168 88 -43 127 -69 176 -117 74 -73 129 -177 149 -284 8 -40 16 -75 19 -78 2
-3 71 21 153 52 82 31 219 80 304 109 85 29 373 141 640 247 267 107 608 241
758 299 214 81 272 107 269 120 -2 8 -40 69 -84 135 -476 710 -1166 1231
-1977 1493 -455 147 -975 208 -1451 170z m575 -253 c911 -126 1695 -554 2271
-1241 185 -221 206 -262 153 -304 -53 -41 -69 -30 -208 148 -477 608 -1208
1059 -1966 1211 -386 78 -887 81 -1290 10 -456 -82 -890 -261 -1275 -528 -218
-150 -522 -425 -690 -622 -203 -238 -382 -525 -514 -820 -80 -177 -117 -216
-167 -169 -34 32 -31 64 17 177 303 712 854 1330 1526 1711 389 220 910 386
1348 430 61 6 124 13 140 15 72 10 546 -4 655 -18z m-316 -281 c314 -13 654
-80 975 -190 549 -188 1049 -545 1442 -1031 117 -143 130 -176 83 -213 -55
-43 -68 -34 -209 144 -105 132 -342 369 -480 478 -204 163 -434 305 -662 406
-284 128 -651 225 -945 251 -82 7 -119 15 -157 35 -60 30 -78 31 -139 6 -33
-14 -93 -23 -202 -31 -660 -47 -1216 -259 -1710 -650 -133 -105 -420 -393
-530 -530 -154 -194 -292 -421 -391 -642 -48 -107 -84 -158 -113 -158 -7 0
-26 10 -41 22 -24 19 -27 26 -23 63 11 95 227 494 380 701 480 648 1104 1067
1867 1253 187 46 594 102 686 95 22 -2 98 -6 169 -9z m-426 -411 c31 -21 29
-65 -4 -98 -25 -25 -32 -26 -124 -26 -83 0 -101 3 -123 20 -40 32 -43 57 -11
91 27 28 30 29 134 29 79 0 111 -4 128 -16z m1711 -390 c33 -27 38 -49 18 -75
-23 -30 -56 -39 -146 -39 -82 0 -92 2 -120 26 -21 18 -31 35 -31 54 0 48 30
60 146 60 96 0 105 -2 133 -26z m-2498 -103 c16 -16 29 -35 29 -41 0 -6 -13
-25 -29 -41 -29 -28 -32 -29 -131 -29 -106 0 -132 7 -150 40 -12 23 8 72 37
89 10 6 62 11 116 11 96 0 99 -1 128 -29z m1471 -150 c30 -27 31 -29 18 -60
-17 -42 -43 -51 -148 -51 -98 0 -132 13 -146 53 -8 23 -6 31 19 57 28 29 31
30 127 30 93 0 99 -1 130 -29z m1351 -462 c12 -7 25 -17 29 -23 14 -21 8 -66
-12 -86 -18 -18 -33 -20 -139 -20 -118 0 -120 0 -141 27 -25 32 -20 69 12 96
16 14 40 17 125 17 59 0 114 -5 126 -11z m-3437 -234 c-7 -26 -7 -26 24 -10
29 15 31 15 39 -7 10 -26 -1 -52 -26 -67 -14 -7 -20 -4 -29 17 l-11 27 -10
-35 -9 -35 -93 0 c-85 0 -94 2 -112 24 -25 30 -24 66 1 91 17 17 33 20 126 20
l106 0 -6 -25z"/>
<path d="M7530 6826 c-1588 -613 -1516 -584 -1549 -612 -17 -14 -101 -122
-187 -242 -87 -119 -182 -248 -211 -285 -47 -58 -51 -67 -31 -63 13 3 58 10
101 16 43 7 97 20 120 30 33 15 3067 1196 3139 1223 15 5 12 19 -31 116 -64
142 -133 274 -146 277 -5 1 -548 -206 -1205 -460z"/>
<path d="M7920 6355 c-569 -223 -1041 -407 -1049 -410 -9 -3 13 -24 60 -56
232 -158 304 -316 279 -608 -47 -546 -338 -1039 -795 -1346 -412 -276 -883
-367 -1365 -263 -147 31 -262 73 -415 148 -186 93 -303 178 -460 335 -148 148
-237 267 -325 438 -34 64 -63 117 -66 117 -2 0 -29 -20 -59 -44 -163 -133
-362 -212 -710 -281 -282 -56 -574 -87 -952 -101 -101 -4 -183 -11 -183 -15 0
-13 66 -189 103 -276 352 -814 971 -1473 1762 -1873 187 -95 294 -140 490
-207 839 -286 1759 -263 2590 64 483 190 896 463 1276 842 311 312 514 593
709 981 378 754 488 1613 315 2453 -45 220 -132 501 -156 504 -8 1 -480 -180
-1049 -402z m755 101 c37 -56 105 -398 141 -707 20 -180 15 -638 -11 -819 -56
-407 -174 -786 -353 -1142 -416 -825 -1043 -1397 -1887 -1723 -315 -122 -616
-197 -940 -236 -162 -20 -567 -17 -730 5 -530 72 -1026 254 -1505 555 -459
288 -847 693 -1134 1184 -70 120 -212 411 -221 453 -8 40 25 84 64 84 39 0 61
-29 116 -150 259 -572 674 -1062 1205 -1422 572 -388 1179 -571 1895 -571 267
0 428 16 665 63 787 157 1544 646 2043 1319 295 397 519 916 612 1418 45 245
58 411 52 708 -7 337 -31 521 -107 825 -16 64 -27 126 -23 139 7 26 56 51 85
43 11 -2 26 -14 33 -26z m-268 -133 c21 -27 84 -319 110 -508 14 -101 17 -198
17 -435 0 -266 -3 -324 -23 -450 -69 -451 -213 -841 -459 -1250 -610 -1014
-1591 -1554 -2822 -1554 -336 1 -594 38 -892 128 -628 191 -1208 618 -1666
1225 -135 179 -290 454 -348 618 -22 61 -11 98 32 109 52 13 73 -13 192 -238
133 -249 167 -305 277 -454 530 -714 1243 -1128 2115 -1228 744 -85 1412 66
2006 456 265 173 583 460 769 693 298 373 509 818 609 1285 58 270 90 631 76
840 -14 193 -36 349 -72 518 -18 81 -32 169 -33 197 0 43 3 51 25 62 29 15 70
9 87 -14z m-349 -629 c32 -22 30 -76 -4 -103 -23 -18 -41 -21 -134 -21 -88 0
-112 3 -128 18 -32 26 -37 63 -12 95 21 27 23 27 139 27 89 0 122 -4 139 -16z
m-76 -1054 c22 -27 23 -58 2 -88 -14 -21 -22 -22 -140 -22 -111 0 -126 2 -144
20 -26 26 -25 42 5 79 32 37 47 40 164 37 84 -3 97 -6 113 -26z m-4415 -822
c11 -10 32 -18 46 -18 24 0 27 -4 27 -34 0 -59 -16 -66 -151 -66 -106 0 -121
2 -139 20 -29 29 -26 74 8 100 24 19 37 21 108 18 60 -2 87 -8 101 -20z m3463
-68 c11 -11 20 -33 20 -50 0 -17 -9 -39 -20 -50 -18 -18 -33 -20 -135 -20
-110 0 -117 1 -140 25 -14 13 -25 34 -25 45 0 12 11 32 25 45 23 24 30 25 140
25 102 0 117 -2 135 -20z m-1760 -499 c59 -16 62 -103 4 -127 -35 -15 -178
-18 -224 -5 -58 16 -64 101 -10 128 27 14 186 16 230 4z m-970 -181 c29 -29
26 -74 -6 -99 -23 -18 -41 -21 -131 -21 -102 0 -105 1 -134 29 -31 32 -36 58
-16 83 18 24 33 26 155 27 99 1 114 -1 132 -19z m2060 0 c28 -28 25 -57 -9
-91 -29 -28 -32 -29 -136 -29 -99 0 -107 2 -130 25 -14 13 -25 34 -25 45 0 12
11 32 25 45 23 24 30 25 140 25 102 0 117 -2 135 -20z"/>
<path d="M5245 6735 c-737 -116 -1224 -822 -1075 -1557 102 -497 460 -874 958
-1005 131 -34 361 -43 502 -19 110 19 271 71 362 117 167 83 352 237 464 386
154 205 254 499 254 748 0 74 -3 90 -33 146 -21 42 -47 74 -77 96 -25 19 -65
49 -89 69 -54 42 -84 50 -130 37 -20 -6 -270 -95 -555 -197 -285 -103 -525
-186 -532 -184 -11 2 -4 33 29 128 42 123 45 129 202 345 288 400 348 480 369
497 11 10 72 37 133 60 79 30 113 48 113 59 0 23 -52 92 -89 118 -49 35 -190
98 -271 121 -172 48 -371 61 -535 35z"/>
<path d="M1785 6360 c-7 -12 -60 -282 -70 -357 l-7 -51 524 -5 c691 -5 733
-13 947 -166 134 -97 226 -154 270 -169 19 -7 64 -12 101 -12 87 0 95 9 109
126 6 51 18 111 26 134 26 74 21 92 -44 152 -161 149 -530 265 -1025 323 -240
27 -819 45 -831 25z"/>
<path d="M1687 5718 c-14 -180 -5 -515 19 -686 l5 -44 517 5 c699 7 684 4 932
187 52 39 133 89 179 113 79 39 89 42 187 45 l104 4 0 57 0 56 -93 1 c-139 2
-228 41 -397 177 -80 64 -178 116 -275 144 -53 15 -123 18 -616 21 l-556 3 -6
-83z"/>
<path d="M3430 5177 c-64 -27 -155 -84 -220 -137 -68 -56 -148 -104 -215 -129
-134 -50 -166 -53 -732 -58 l-533 -5 5 -21 c2 -12 9 -49 15 -82 13 -69 56
-244 72 -294 l10 -34 177 7 c562 21 996 81 1286 178 169 56 383 185 406 244
13 31 10 88 -6 135 -8 24 -21 78 -28 119 -10 63 -16 76 -37 87 -41 21 -138 16
-200 -10z"/>
</g>
</svg>
