<?xml version="1.0" standalone="no"?>
<!DOCTYPE svg PUBLIC "-//W3C//DTD SVG 20010904//EN"
 "http://www.w3.org/TR/2001/REC-SVG-20010904/DTD/svg10.dtd">
<svg version="1.0" xmlns="http://www.w3.org/2000/svg"
 width="1080.000000pt" height="1080.000000pt" viewBox="0 0 1080.000000 1080.000000"
 preserveAspectRatio="xMidYMid meet">

<g transform="translate(0.000000,1080.000000) scale(0.100000,-0.100000)"
fill="#6F3161" stroke="none">
<path d="M6403 8319 c-325 -31 -648 -167 -888 -375 l-47 -41 75 -101 c334
-449 461 -933 382 -1457 -15 -98 -69 -318 -99 -402 l-14 -41 71 29 c348 144
755 188 1109 119 231 -45 500 -159 718 -305 l115 -77 23 29 c148 183 263 435
314 686 20 96 23 142 23 317 -1 174 -4 221 -24 310 -68 316 -207 582 -420 803
-163 169 -307 274 -496 362 -258 121 -555 172 -842 144z m1214 -1034 c188 -64
327 -218 368 -410 26 -126 12 -244 -44 -351 -172 -335 -593 -416 -863 -166
-118 109 -180 247 -180 401 0 164 45 274 157 386 115 116 228 163 393 164 75
1 109 -4 169 -24z"/>
<path d="M3874 8250 c-191 -20 -374 -75 -559 -166 -168 -83 -293 -172 -430
-309 -231 -230 -376 -499 -447 -825 -30 -140 -33 -474 -5 -615 89 -451 331
-819 702 -1069 99 -68 293 -159 410 -195 193 -59 250 -66 495 -66 196 0 238 3
327 23 226 49 447 145 623 270 122 86 296 261 382 382 126 178 219 396 269
630 19 89 23 136 23 310 0 184 -3 218 -27 331 -106 500 -407 899 -847 1123
-290 147 -608 208 -916 176z m705 -545 c231 -55 403 -262 418 -505 17 -269
-170 -509 -439 -564 -95 -20 -133 -20 -223 -1 -250 53 -420 253 -433 510 -7
156 30 267 130 387 66 80 216 165 318 181 59 10 170 6 229 -8z"/>
<path d="M6430 5793 c-631 -82 -1168 -527 -1358 -1123 -57 -179 -67 -253 -67
-495 1 -190 4 -234 24 -325 109 -506 421 -912 870 -1135 197 -98 369 -146 598
-167 215 -20 429 7 654 82 328 109 608 316 808 597 435 612 392 1454 -103
2023 -222 254 -552 447 -894 521 -76 16 -141 21 -297 24 -110 2 -216 1 -235
-2z m41 -1897 c136 -29 259 -113 338 -232 69 -102 93 -183 94 -309 0 -164 -54
-287 -176 -402 -67 -62 -162 -115 -242 -134 -28 -6 -91 -11 -141 -11 -152 0
-281 57 -386 171 -100 107 -148 233 -148 382 0 130 33 228 109 329 126 167
346 249 552 206z"/>
<path d="M2775 5043 c-79 -106 -182 -311 -225 -447 -56 -180 -73 -313 -67
-536 4 -144 11 -219 26 -288 151 -679 678 -1175 1366 -1283 115 -18 379 -16
495 5 311 55 563 173 798 373 l34 29 -80 106 c-192 258 -307 506 -370 797 -24
116 -26 144 -27 356 0 196 4 247 23 346 19 101 75 316 98 373 6 16 4 18 -12
11 -10 -4 -82 -30 -159 -56 -484 -167 -960 -149 -1405 51 -107 49 -256 132
-345 194 -33 23 -66 45 -72 49 -8 5 -35 -22 -78 -80z m1168 -758 c90 -31 154
-73 226 -150 231 -247 186 -636 -95 -825 -100 -66 -191 -94 -309 -94 -306 0
-545 242 -545 551 0 154 52 276 165 388 95 95 183 136 335 159 50 7 157 -7
223 -29z"/>
</g>
</svg>
