<?xml version="1.0" standalone="no"?>
<!DOCTYPE svg PUBLIC "-//W3C//DTD SVG 20010904//EN"
 "http://www.w3.org/TR/2001/REC-SVG-20010904/DTD/svg10.dtd">
<svg version="1.0" xmlns="http://www.w3.org/2000/svg"
 width="1080.000000pt" height="1080.000000pt" viewBox="0 0 1080.000000 1080.000000"
 preserveAspectRatio="xMidYMid meet">

<g transform="translate(0.000000,1080.000000) scale(0.100000,-0.100000)"
fill="#6F3161" stroke="none">
<path d="M5225 7920 c-181 -21 -381 -88 -519 -175 -126 -79 -174 -121 -186
-164 -19 -69 -16 -74 40 -69 38 4 65 16 122 55 145 99 263 155 423 200 123 34
357 43 490 19 134 -25 264 -70 410 -141 92 -45 144 -65 178 -67 26 -2 47 -2
47 -1 0 1 -9 27 -20 57 -17 45 -30 61 -73 89 -130 86 -291 150 -458 182 -102
19 -344 27 -454 15z"/>
<path d="M3627 7479 c-522 -43 -935 -304 -1134 -715 -29 -61 -65 -156 -80
-210 -25 -91 -27 -115 -27 -289 -1 -177 1 -197 27 -298 51 -194 119 -329 273
-540 51 -69 76 -93 160 -150 54 -37 122 -83 149 -102 231 -166 497 -195 773
-84 207 83 340 227 393 426 18 66 21 105 20 258 -2 269 9 320 127 613 l57 143
40 -6 c22 -3 44 -10 49 -15 5 -5 -4 -80 -22 -183 -18 -95 -32 -207 -32 -248 0
-157 55 -280 188 -416 152 -156 180 -236 187 -531 6 -244 10 -281 55 -437 65
-225 84 -358 84 -600 1 -235 -12 -342 -69 -587 -38 -160 -61 -315 -71 -478
l-6 -105 31 -29 c30 -29 31 -29 52 -10 11 10 25 26 29 35 5 8 38 188 74 400
76 446 90 519 112 561 29 56 106 172 161 243 30 38 64 87 75 109 25 50 37 175
38 397 0 347 -42 565 -162 834 -115 259 -153 428 -177 805 -12 183 -27 244
-87 367 -122 248 -399 425 -791 504 -134 27 -457 38 -585 20 -295 -42 -510
-135 -663 -286 -96 -95 -145 -185 -171 -314 -37 -187 26 -342 162 -398 29 -12
42 -23 39 -32 -3 -8 -51 -117 -108 -242 -117 -262 -101 -252 -176 -109 -149
285 -147 637 4 945 108 221 273 377 530 500 336 161 698 177 1108 50 499 -155
746 -198 1147 -198 374 1 627 40 1041 163 199 60 358 88 533 96 316 15 604
-47 812 -175 331 -204 534 -612 494 -996 -11 -105 -45 -263 -61 -280 -14 -15
-72 57 -115 141 -45 89 -55 186 -29 283 68 260 -29 505 -257 658 -313 208
-812 263 -1284 142 -315 -80 -514 -227 -629 -463 -83 -170 -109 -295 -125
-598 -11 -211 -21 -254 -89 -400 -152 -323 -220 -682 -222 -1168 -1 -243 19
-295 165 -450 51 -54 98 -111 104 -126 14 -37 38 -162 112 -582 57 -329 71
-381 114 -437 14 -19 16 -17 42 39 24 53 26 65 20 135 -9 106 -43 310 -77 473
-47 223 -60 323 -66 514 -7 206 3 314 47 504 32 141 43 210 65 425 22 204 50
374 80 471 22 73 33 91 96 160 39 43 84 98 101 122 41 59 93 175 109 242 18
78 15 240 -6 330 -20 83 -31 230 -18 230 30 0 142 -134 182 -219 59 -125 51
-248 -25 -397 -24 -48 -44 -95 -44 -105 0 -10 12 -60 26 -111 14 -51 39 -140
55 -198 39 -139 95 -254 150 -309 51 -51 152 -101 254 -125 93 -21 399 -66
454 -66 25 0 81 4 125 10 45 5 120 14 168 19 115 13 181 45 250 120 53 58 266
403 344 557 85 169 124 339 124 539 0 468 -261 880 -682 1080 -281 133 -591
187 -883 155 -144 -16 -237 -38 -446 -105 -433 -140 -716 -183 -1104 -172
-323 10 -556 52 -910 167 -237 77 -320 96 -485 110 -127 11 -151 11 -293 -1z
m311 -439 c202 -21 373 -69 524 -147 171 -87 274 -186 343 -328 50 -103 65
-179 75 -385 14 -289 50 -460 147 -685 154 -362 188 -542 181 -970 l-3 -210
-41 -80 c-36 -70 -44 -80 -71 -83 -16 -2 -34 3 -40 10 -11 14 -99 654 -138
1005 -37 340 -63 413 -190 537 -145 141 -195 247 -194 405 0 53 8 113 20 156
43 158 51 207 39 254 -18 73 -43 97 -153 151 -77 37 -123 68 -186 124 -46 42
-90 76 -99 76 -30 0 -92 -23 -92 -35 0 -19 66 -90 150 -160 l80 -67 -45 -63
c-137 -191 -195 -426 -195 -785 0 -209 -40 -326 -146 -432 -177 -177 -491
-225 -729 -112 -216 102 -343 318 -306 519 17 93 70 193 143 271 128 138 133
154 63 220 -30 29 -56 45 -82 49 -71 12 -122 36 -145 68 -34 47 -31 140 7 230
37 92 112 204 166 251 195 167 560 253 917 216z m3177 0 c146 -14 290 -50 460
-117 185 -73 246 -106 301 -165 65 -70 95 -141 101 -242 6 -93 -5 -140 -44
-186 -28 -34 -32 -34 -87 -19 -27 7 -60 31 -100 71 -95 94 -120 104 -251 100
-197 -5 -219 -5 -300 3 -74 6 -86 5 -165 -23 -46 -17 -87 -29 -91 -26 -4 2
-22 29 -39 58 -32 56 -90 115 -115 118 -8 0 -21 1 -27 2 -7 1 -16 -17 -19 -39
-5 -30 -1 -54 17 -97 30 -71 30 -79 1 -106 -50 -47 -62 -38 -148 101 -44 71
-79 132 -79 136 0 5 41 41 90 81 91 72 112 95 125 138 5 19 1 25 -29 37 -34
14 -39 14 -79 -6 -65 -33 -127 -78 -188 -136 -31 -29 -75 -59 -99 -68 -143
-51 -167 -117 -110 -315 42 -144 48 -251 21 -355 -29 -108 -69 -171 -180 -284
-156 -160 -173 -215 -176 -561 -2 -264 0 -257 -120 -748 -44 -181 -61 -234
-76 -242 -21 -12 -25 -4 -74 131 -23 63 -25 85 -25 222 0 358 43 667 126 899
14 40 50 121 80 180 73 146 83 186 99 393 8 99 24 229 35 288 110 580 498 838
1165 777z m525 -750 c71 -69 156 -120 226 -134 45 -10 73 -45 90 -112 20 -75
66 -168 115 -233 29 -39 39 -61 39 -89 -1 -54 -31 -112 -85 -163 -59 -55 -75
-85 -86 -166 -5 -35 -18 -81 -28 -102 -25 -49 -88 -105 -137 -122 -54 -19
-162 -16 -203 5 -32 17 -35 17 -82 -4 -86 -36 -155 -37 -345 0 -93 18 -192 37
-220 42 -122 22 -182 96 -191 239 -5 72 -10 87 -40 128 -77 106 -86 123 -90
163 -6 57 24 102 102 149 33 20 67 48 75 62 13 24 13 32 -3 76 -35 98 -10 194
60 229 107 55 312 94 446 86 45 -3 116 -1 157 4 130 16 121 19 200 -58z"/>
<path d="M4008 6599 c-25 -13 -54 -43 -84 -89 -92 -140 -204 -195 -422 -207
-101 -5 -116 -9 -147 -32 -19 -14 -34 -28 -35 -31 0 -3 19 -21 43 -39 l42 -33
120 6 c135 6 211 24 304 69 150 73 273 262 235 361 -8 20 -10 20 -56 -5z"/>
</g>
</svg>
