<?xml version="1.0" standalone="no"?>
<!DOCTYPE svg PUBLIC "-//W3C//DTD SVG 20010904//EN"
 "http://www.w3.org/TR/2001/REC-SVG-20010904/DTD/svg10.dtd">
<svg version="1.0" xmlns="http://www.w3.org/2000/svg"
 width="1080.000000pt" height="1080.000000pt" viewBox="0 0 1080.000000 1080.000000"
 preserveAspectRatio="xMidYMid meet">

<g transform="translate(0.000000,1080.000000) scale(0.100000,-0.100000)"
fill="#6F3161" stroke="none">
<path d="M4525 8988 c-226 -25 -507 -105 -699 -197 -165 -79 -277 -160 -416
-300 -141 -141 -203 -228 -290 -406 -109 -222 -153 -397 -154 -615 0 -205 41
-374 136 -565 39 -76 116 -205 123 -205 2 0 -15 42 -39 93 -84 181 -124 335
-133 513 -17 321 94 642 314 914 187 230 493 418 819 504 281 73 658 79 977
15 627 -126 1425 -718 1959 -1451 338 -463 603 -1017 738 -1543 85 -330 116
-614 107 -968 -7 -277 -35 -490 -103 -777 -5 -24 -5 -24 10 -5 22 26 90 238
127 392 111 466 111 928 -1 1431 -264 1185 -905 2107 -1931 2778 -331 217
-659 345 -997 388 -135 17 -412 20 -547 4z"/>
<path d="M3212 7538 c-58 -314 -25 -593 100 -842 22 -43 37 -80 35 -82 -2 -3
-48 -11 -102 -19 -206 -31 -368 -109 -505 -245 -97 -96 -149 -170 -198 -282
-148 -343 -113 -790 90 -1143 84 -145 215 -297 337 -390 l50 -38 -16 -36 c-69
-159 -98 -310 -97 -511 0 -184 19 -298 75 -457 54 -152 177 -372 239 -428 20
-18 20 -14 -7 40 -51 101 -121 285 -147 387 -37 144 -49 256 -43 403 8 202 58
368 167 558 28 48 50 89 50 91 0 2 -33 29 -73 59 -101 78 -237 220 -297 313
-134 206 -193 411 -193 679 0 264 74 455 230 595 73 65 213 134 313 154 110
22 314 40 333 30 19 -11 122 -142 191 -242 28 -42 74 -129 100 -192 109 -260
217 -411 390 -543 250 -190 287 -553 80 -777 -99 -106 -225 -165 -381 -177
-46 -3 -83 -9 -83 -14 0 -12 127 -22 198 -16 241 23 462 214 517 448 18 76 19
198 4 286 -6 35 -10 66 -8 68 2 2 45 -5 94 -15 223 -45 446 -51 579 -15 145
40 287 144 378 278 54 80 138 256 179 377 19 55 36 100 39 100 3 0 32 -53 64
-117 81 -163 136 -243 241 -348 159 -160 338 -260 680 -380 416 -147 552 -232
643 -402 116 -218 74 -531 -143 -1068 -230 -570 -420 -929 -635 -1200 -202
-254 -432 -395 -710 -436 -153 -22 -375 1 -770 81 -693 140 -1234 371 -1747
746 -35 25 -63 41 -63 36 0 -5 48 -56 108 -113 405 -391 1086 -718 1852 -888
271 -61 312 -66 525 -65 186 0 207 2 300 27 126 34 297 117 404 197 162 120
353 339 496 570 166 269 410 806 535 1180 192 571 168 923 -80 1170 -139 140
-282 210 -665 325 -319 96 -432 146 -577 252 -275 202 -419 465 -478 876 -10
71 -22 132 -25 136 -7 6 0 -247 11 -414 5 -81 3 -100 -21 -170 -52 -156 -179
-346 -302 -452 -232 -201 -413 -228 -767 -116 -349 111 -516 269 -707 671
-111 233 -177 320 -378 502 -112 101 -196 210 -256 334 -74 152 -98 269 -133
646 l-8 85 -12 -67z"/>
<path d="M4995 5985 c-46 -86 -164 -162 -301 -193 -41 -9 -74 -20 -74 -23 0
-11 43 -19 107 -19 74 0 146 24 202 69 48 38 94 126 89 171 l-3 31 -20 -36z"/>
<path d="M3770 5523 c-61 -22 -107 -126 -96 -215 22 -166 118 -271 255 -280
59 -4 63 16 7 32 -93 26 -166 116 -187 232 -15 84 -3 135 43 173 27 23 39 26
85 23 29 -2 53 -2 53 0 0 1 -15 11 -32 22 -32 19 -94 25 -128 13z"/>
<path d="M5372 5040 c-69 -31 -110 -69 -139 -128 -30 -62 -34 -112 -19 -259
10 -93 23 -61 -147 -356 -75 -130 -94 -155 -102 -141 -116 198 -263 342 -413
405 l-47 19 30 -22 c184 -140 317 -324 381 -528 9 -30 20 -58 23 -63 6 -6 86
88 226 268 68 87 146 206 172 261 28 63 33 126 18 261 l-8 73 40 40 c34 33 47
40 80 40 98 0 117 -105 64 -365 -16 -82 -39 -211 -51 -285 -37 -241 -83 -404
-151 -543 -89 -180 -170 -253 -300 -272 -80 -12 -260 34 -430 110 -59 26 -101
40 -105 34 -8 -13 -19 -6 140 -92 201 -110 267 -132 391 -132 89 0 107 3 160
28 141 66 278 260 361 514 19 57 66 262 105 456 64 317 71 360 65 430 -9 123
-56 206 -139 246 -56 27 -146 28 -205 1z"/>
<path d="M6559 4212 c-163 -176 -414 -587 -590 -965 -44 -95 -88 -180 -98
-191 -16 -16 -40 -19 -187 -23 -282 -9 -576 37 -1010 158 -377 105 -537 179
-746 348 -149 120 -266 262 -413 501 -100 163 -121 189 -162 207 -103 43 -187
-113 -169 -315 4 -41 17 -99 29 -130 l22 -57 6 135 c6 134 20 194 56 249 15
24 17 22 108 -165 216 -441 435 -672 785 -830 586 -264 1279 -376 1714 -277
105 23 122 45 191 238 119 334 236 602 409 941 64 125 115 229 112 231 -2 2
-28 -23 -57 -55z"/>
</g>
</svg>
