<?xml version="1.0" standalone="no"?>
<!DOCTYPE svg PUBLIC "-//W3C//DTD SVG 20010904//EN"
 "http://www.w3.org/TR/2001/REC-SVG-20010904/DTD/svg10.dtd">
<svg version="1.0" xmlns="http://www.w3.org/2000/svg"
 width="1080.000000pt" height="1080.000000pt" viewBox="0 0 1080.000000 1080.000000"
 preserveAspectRatio="xMidYMid meet">

<g transform="translate(0.000000,1080.000000) scale(0.100000,-0.100000)"
fill="#6F3161" stroke="none">
<path d="M7300 8548 c-177 -34 -441 -154 -589 -266 -136 -103 -231 -245 -266
-395 -8 -37 -22 -154 -30 -259 -8 -106 -22 -220 -30 -253 -30 -112 -107 -231
-253 -387 -155 -167 -186 -204 -214 -267 -52 -117 -167 -242 -328 -356 -276
-196 -405 -341 -534 -601 -65 -130 -138 -296 -132 -301 4 -4 88 90 161 182
195 243 354 431 399 472 30 26 99 73 152 103 134 75 235 152 327 248 85 90
121 142 190 277 129 250 293 355 555 355 165 0 361 41 508 106 150 66 319 209
410 346 176 264 250 670 159 863 -67 140 -225 183 -485 133z"/>
<path d="M4178 7535 c-319 -52 -559 -228 -699 -512 -59 -121 -74 -187 -88
-393 -19 -282 -56 -358 -288 -601 -59 -63 -186 -202 -280 -309 -232 -265 -263
-296 -378 -388 -136 -108 -145 -119 -213 -257 -139 -279 -277 -439 -479 -552
-70 -40 -65 -41 24 -8 232 88 382 219 505 441 91 167 189 257 428 397 181 106
317 243 411 417 115 211 178 282 308 343 61 29 72 31 245 38 219 9 331 34 481
108 234 113 413 308 511 555 48 120 67 222 67 366 1 107 -3 133 -22 184 -30
75 -78 128 -144 157 -43 19 -72 23 -177 25 -74 2 -161 -3 -212 -11z"/>
<path d="M8095 5775 c-94 -7 -192 -21 -238 -34 -237 -65 -441 -239 -558 -476
-70 -144 -100 -266 -106 -444 l-6 -144 -147 -227 c-261 -403 -296 -443 -765
-886 -223 -210 -304 -331 -249 -371 46 -33 73 -13 188 144 87 119 141 167 257
228 238 126 401 287 530 520 72 132 126 198 204 249 90 60 122 68 315 76 208
9 289 28 436 99 129 63 237 144 346 259 194 204 287 436 275 679 -6 136 -24
171 -124 253 -108 89 -131 94 -358 75z"/>
<path d="M4959 4650 c-98 -12 -214 -46 -299 -87 -56 -28 -96 -57 -156 -117
-100 -100 -131 -161 -179 -349 -61 -239 -136 -416 -252 -592 -87 -131 -150
-206 -466 -550 -265 -288 -284 -311 -270 -327 27 -30 -13 -61 433 345 209 191
239 222 352 360 154 189 264 246 474 247 324 1 628 249 713 581 59 232 25 408
-91 466 -54 27 -157 36 -259 23z"/>
</g>
</svg>
