<svg width="60" height="60" viewBox="0 0 60 60" fill="none" xmlns="http://www.w3.org/2000/svg">
<path d="M27.2443 7.0974C27.2443 7.0974 27.2545 7.11913 27.2646 7.14085C27.2646 7.14085 27.2713 7.15534 27.2747 7.16258C27.3142 7.28521 27.3147 7.39961 27.2866 7.50966C27.247 7.65157 27.147 7.77751 27.0094 7.84166C27.0022 7.84503 26.9877 7.85179 26.9732 7.85854C26.9587 7.86529 26.9442 7.87204 26.937 7.87542C26.796 7.93232 26.6353 7.9279 26.5045 7.87427C26.5045 7.87427 26.5045 7.87427 26.5011 7.86702C26.3915 7.82112 26.3042 7.74722 26.2463 7.64196L26.2328 7.613C26.2261 7.59851 26.2193 7.58403 26.2126 7.56954C26.1484 7.43194 26.1417 7.28519 26.1881 7.15777L26.1954 7.15439C26.1954 7.15439 26.1997 7.12591 26.2036 7.1153C26.25 6.98788 26.3422 6.88316 26.4692 6.81516C26.4837 6.8084 26.4909 6.80503 26.5054 6.79828C26.5199 6.79152 26.5271 6.78815 26.5416 6.7814C26.672 6.72063 26.8149 6.72455 26.9423 6.77095C26.9529 6.77482 26.9635 6.77868 26.9741 6.78255C26.9741 6.78255 26.9777 6.78384 26.9848 6.78641C27.1156 6.84005 27.2236 6.93954 27.2844 7.0699L27.2443 7.0974Z" fill="#96C720"/>
<path d="M25.1825 1.74647C27.468 6.64951 25.6408 11.3538 24.1784 15.1387C23.9711 15.6585 23.7749 16.1643 23.6043 16.6494C23.3955 17.2228 23.1162 17.8907 22.8253 18.5906C21.2036 22.4497 18.7523 28.2737 21.5611 34.2993L20.8223 34.6436C17.8616 28.2921 20.3937 22.263 22.069 18.2731C22.3561 17.5839 22.6315 16.9265 22.8398 16.371C23.021 15.8898 23.2138 15.3768 23.4178 14.8497C24.826 11.2135 26.5875 6.68968 24.4471 2.09806L25.1858 1.75372L25.1825 1.74647Z" fill="#E1D6EC"/>
<path d="M26.7685 1.00717C29.368 6.58374 27.3132 11.8967 25.8021 15.766C25.602 16.2824 25.4135 16.767 25.2468 17.2415C25.0225 17.8573 24.7321 18.5393 24.4335 19.2603C22.8461 23.0418 20.6624 28.2296 23.1438 33.5527L21.5577 34.2921C18.7489 28.2665 21.2003 22.4425 22.822 18.5833C23.1129 17.8835 23.3955 17.2228 23.6009 16.6422C23.7788 16.1537 23.9784 15.6552 24.1751 15.1315C25.6374 11.3466 27.4646 6.6423 25.1791 1.73926L26.7652 0.999927L26.7685 1.00717Z" fill="#E1D6EC"/>
<path d="M26.0294 1.35148C28.4837 6.61663 26.4951 11.7312 25.041 15.477C24.8409 15.9934 24.6413 16.492 24.4746 16.9664C24.2542 17.5717 23.9749 18.2396 23.6801 18.9501C22.0352 22.8729 19.7714 28.248 22.408 33.9043L21.5606 34.2993C18.7518 28.2737 21.2032 22.4497 22.8249 18.5905C23.1158 17.8907 23.3985 17.23 23.6039 16.6494C23.7817 16.1609 23.9813 15.6624 24.178 15.1387C25.6403 11.3538 27.4676 6.6495 25.182 1.74646L26.0294 1.35148Z" fill="#E1D6EC"/>
<path d="M26.8233 3.0535C26.8233 3.0535 26.8368 3.08247 26.8436 3.09695C26.8469 3.10419 26.8503 3.11144 26.8537 3.11868C26.8932 3.24131 26.8937 3.35571 26.8584 3.46914C26.8584 3.46914 26.8571 3.47268 26.8545 3.47976C26.8149 3.62166 26.7149 3.74761 26.5773 3.81175C26.5773 3.81175 26.5628 3.8185 26.5483 3.82525C26.5338 3.83201 26.5266 3.83538 26.5121 3.84213C26.3711 3.89903 26.2104 3.89462 26.0796 3.84098C26.0796 3.84098 26.076 3.83969 26.069 3.83712C25.9594 3.79121 25.8721 3.71732 25.8142 3.61206C25.8142 3.61206 25.8041 3.59033 25.8007 3.58309C25.7939 3.5686 25.7872 3.55412 25.7804 3.53963C25.7163 3.40203 25.7096 3.25528 25.756 3.12786C25.756 3.12786 25.7573 3.12432 25.7598 3.11724C25.7598 3.11724 25.7676 3.09601 25.7714 3.08539C25.8178 2.95797 25.9101 2.85326 26.0371 2.78525L26.0443 2.78187C26.0443 2.78187 26.066 2.77174 26.0733 2.76837C26.0805 2.76499 26.0878 2.76162 26.1023 2.75486L26.1095 2.75149C26.2399 2.69072 26.3827 2.69465 26.5102 2.74104L26.542 2.75264C26.542 2.75264 26.542 2.75264 26.5526 2.75651C26.6834 2.81015 26.7915 2.90963 26.8523 3.03999L26.8233 3.0535Z" fill="#F7C23E"/>
<path d="M27.2446 7.09734C27.2446 7.09734 27.2548 7.11907 27.2649 7.1408C27.2649 7.1408 27.2716 7.15528 27.275 7.16252C27.3145 7.28515 27.315 7.39956 27.2869 7.50961C27.2473 7.65151 27.1473 7.77746 27.0097 7.8416L20.144 11.042L19.6511 9.98462L26.5168 6.78423C26.6472 6.72346 26.7901 6.72738 26.9175 6.77378C26.9281 6.77764 26.9387 6.78151 26.9493 6.78538C26.9493 6.78538 26.9529 6.78667 26.96 6.78924C27.0908 6.84288 27.1988 6.94237 27.2596 7.07273L27.2446 7.09734Z" fill="#662658"/>
<path d="M13.752 13.3868C13.9549 13.0277 14.1921 12.7232 14.4292 12.4187C14.7474 12.288 19.9768 9.83274 19.9768 9.83274C20.3553 9.85028 20.7409 9.86444 21.1503 9.9293C20.9368 10.2845 20.7068 10.5856 20.4697 10.8901C20.4697 10.8901 15.2335 13.3309 14.9221 13.4761C14.5437 13.4585 14.1613 13.4516 13.7453 13.3723L13.752 13.3868Z" fill="#E1D6EC"/>
<path opacity="0.3" d="M27.2449 7.09743C27.2449 7.09743 27.2551 7.11916 27.2652 7.14088L13.78 13.4269L13.5842 13.0068L26.9101 6.7951C26.9101 6.7951 26.9313 6.80283 26.9419 6.8067C26.9419 6.8067 26.9455 6.80799 26.9525 6.81057C27.0833 6.86421 27.1914 6.96369 27.2522 7.09405L27.2449 7.09743Z" fill="white"/>
<path opacity="0.2" d="M27.272 7.5165C27.2324 7.6584 27.1324 7.78435 26.9948 7.84849C26.9876 7.85187 26.9731 7.85862 26.9586 7.86537L14.0021 13.9049L13.9177 13.7239L27.2653 7.50202L27.272 7.5165Z" fill="black"/>
<path d="M18.429 6.32278L10.8101 9.87427L11.3029 10.9316L18.9218 7.38015L18.429 6.32278Z" fill="#E1D6EC"/>
<path d="M26.8229 3.05349C26.8229 3.05349 26.8364 3.08246 26.8432 3.09695C26.8466 3.10419 26.8499 3.11143 26.8533 3.11867C26.8928 3.2413 26.8933 3.35571 26.858 3.46913C26.858 3.46913 26.8567 3.47267 26.8541 3.47975C26.8145 3.62165 26.7145 3.7476 26.5769 3.81175L18.8276 7.424C18.8276 7.424 18.8276 7.424 18.8204 7.42738C18.7702 7.43315 18.5626 7.44175 18.3087 7.4455C18.0475 7.45263 17.7473 7.45154 17.5117 7.43792C17.476 7.43694 17.4475 7.43258 17.4191 7.42822C17.5751 7.21444 17.8373 6.90706 18.0402 6.68027C18.173 6.5302 18.2797 6.41874 18.3203 6.37338C18.3348 6.36663 18.3386 6.35601 18.3386 6.35601L26.0155 2.77751C26.0155 2.77751 26.0188 2.78475 26.0261 2.78138L26.0913 2.75099C26.2216 2.69023 26.3645 2.69415 26.4919 2.74055L26.5238 2.75215C26.5238 2.75215 26.5238 2.75215 26.5344 2.75601C26.6652 2.80965 26.7733 2.90914 26.834 3.0395L26.8229 3.05349Z" fill="#662658"/>
<path opacity="0.3" d="M26.523 2.76993C26.6538 2.82357 26.7619 2.92306 26.8226 3.05342C26.8294 3.0679 26.8362 3.08239 26.8429 3.09687L11.0764 10.4463L10.8806 10.0262L26.4805 2.75447L26.5124 2.76607C26.5124 2.76607 26.5124 2.76607 26.523 2.76993Z" fill="white"/>
<path opacity="0.2" d="M26.8505 3.47245C26.8505 3.47245 26.8505 3.47245 26.8467 3.48306C26.807 3.62497 26.707 3.75092 26.5694 3.81506L11.3027 10.9315L11.2183 10.7505L26.8471 3.4652L26.8505 3.47245Z" fill="black"/>
<path d="M26.3607 11.6882C26.3607 11.6882 26.3743 11.7172 26.381 11.7317C26.381 11.7317 26.3878 11.7462 26.3911 11.7534C26.4307 11.876 26.4311 11.9904 26.4031 12.1005C26.4031 12.1005 26.4018 12.104 26.3992 12.1111C26.3595 12.253 26.2596 12.379 26.122 12.4431C26.122 12.4431 26.1075 12.4498 26.093 12.4566C26.0857 12.46 26.0713 12.4667 26.064 12.4701L26.0568 12.4735C25.9158 12.5304 25.7551 12.526 25.6243 12.4723C25.6243 12.4723 25.6207 12.471 25.6136 12.4685C25.5075 12.4298 25.4167 12.3487 25.3589 12.2434C25.3589 12.2434 25.3487 12.2217 25.3454 12.2144C25.3386 12.2 25.3319 12.1855 25.3251 12.171C25.261 12.0334 25.2543 11.8866 25.3007 11.7592C25.3007 11.7592 25.3019 11.7557 25.3045 11.7486L25.3161 11.7167C25.3625 11.5893 25.4548 11.4846 25.5818 11.4166C25.5962 11.4098 25.6107 11.4031 25.618 11.3997C25.6252 11.3963 25.6469 11.3862 25.6542 11.3828C25.7845 11.3221 25.9274 11.326 26.0548 11.3724C26.0655 11.3763 26.0761 11.3801 26.0867 11.384C26.0867 11.384 26.0902 11.3853 26.0973 11.3879C26.2281 11.4415 26.3362 11.541 26.397 11.6713L26.3607 11.6882Z" fill="#795E81"/>
<path d="M21.6532 13.2391L17.4309 15.2073L17.9238 16.2647L22.1461 14.2965L21.6532 13.2391Z" fill="#E1D6EC"/>
<path d="M26.3608 11.6881C26.3608 11.6881 26.3743 11.7171 26.381 11.7316C26.381 11.7316 26.3878 11.746 26.3911 11.7533C26.4307 11.8759 26.4311 11.9903 26.4031 12.1004C26.4031 12.1004 26.4018 12.1039 26.3992 12.111C26.3595 12.2529 26.2596 12.3788 26.122 12.443L21.9504 14.3875C21.9219 14.3832 21.794 14.3546 21.6376 14.3217C21.4812 14.2889 21.2969 14.2337 21.1376 14.1757C21.1164 14.168 21.0912 14.1709 21.0739 14.1525C21.1324 13.9754 21.2425 13.7389 21.3401 13.57C21.3971 13.4465 21.4425 13.3548 21.4609 13.3374L25.5962 11.4097C25.6107 11.403 25.6252 11.3962 25.6325 11.3929C25.7628 11.3321 25.9057 11.336 26.0331 11.3824C26.0437 11.3863 26.0544 11.3901 26.065 11.394C26.065 11.394 26.0685 11.3953 26.0756 11.3979C26.2064 11.4515 26.3145 11.551 26.3752 11.6814L26.3608 11.6881Z" fill="#662658"/>
<path opacity="0.3" d="M26.0684 11.4014C26.1992 11.455 26.3072 11.5545 26.368 11.6848C26.3748 11.6993 26.3815 11.7138 26.3883 11.7283L17.6975 15.7794L17.5017 15.3594L26.0187 11.3893C26.0187 11.3893 26.0399 11.397 26.0505 11.4009C26.0505 11.4009 26.054 11.4022 26.0611 11.4047L26.0684 11.4014Z" fill="#662658"/>
<path opacity="0.2" d="M26.3925 12.0965C26.3925 12.0965 26.3925 12.0965 26.3886 12.1071C26.349 12.249 26.249 12.375 26.1114 12.4391L17.9204 16.2573L17.8394 16.0835L26.3853 12.0999L26.3925 12.0965Z" fill="black"/>
<path d="M21.2383 27.9523C21.2383 27.9523 21.2586 27.9958 21.2615 28.0209C21.301 28.1435 21.3015 28.2579 21.2734 28.3679C21.2734 28.3679 21.2721 28.3715 21.2695 28.3786C21.2299 28.5205 21.1299 28.6464 20.9923 28.7106C20.9851 28.7139 20.9706 28.7207 20.9561 28.7274C20.9416 28.7342 20.9271 28.7409 20.9199 28.7443C20.7789 28.8012 20.6182 28.7968 20.4874 28.7432C20.4874 28.7432 20.4838 28.7419 20.4768 28.7393C20.3706 28.7006 20.2799 28.6195 20.2147 28.5176C20.2147 28.5176 20.1839 28.4703 20.1737 28.4486C20.1096 28.311 20.1029 28.1642 20.1493 28.0368C20.1493 28.0368 20.1506 28.0333 20.1532 28.0262C20.1962 27.8915 20.2962 27.7656 20.4304 27.6942C20.4449 27.6874 20.4594 27.6807 20.4666 27.6773C20.4738 27.6739 20.4956 27.6638 20.5028 27.6604C20.6404 27.5963 20.8012 27.6007 20.9353 27.6616C20.9353 27.6616 20.9389 27.6629 20.9459 27.6654C21.0767 27.7191 21.1848 27.8186 21.2456 27.9489L21.2383 27.9523Z" fill="#F7C23E"/>
<path d="M27.3937 24.4394L27.8866 25.4967L20.9123 28.7478C20.7713 28.8047 20.6106 28.8003 20.4798 28.7466C20.4798 28.7466 20.4762 28.7453 20.4691 28.7428C20.363 28.7041 20.2722 28.623 20.2071 28.5211C20.2071 28.5211 20.1762 28.4738 20.1661 28.452C20.102 28.3144 20.0953 28.1677 20.1417 28.0403C20.1417 28.0403 20.143 28.0367 20.1455 28.0296C20.1886 27.895 20.2885 27.769 20.4228 27.6976L27.3971 24.4466L27.3937 24.4394Z" fill="#633567"/>
<path d="M33.7671 22.1119C33.7671 22.1119 33.715 22.1891 33.6923 22.235C33.5947 22.4039 33.4609 22.5897 33.3421 22.7509C33.201 22.94 33.0933 23.0872 33.0933 23.0872L27.8933 25.5111L27.5423 25.6659C27.5423 25.6659 27.3637 25.661 27.1388 25.6513C26.9389 25.6387 26.7106 25.6217 26.5185 25.5878C26.4649 25.5863 26.4186 25.5815 26.3761 25.566C26.4776 25.3865 26.6597 25.1341 26.8079 24.9415C26.9417 24.7558 27.0601 24.6124 27.0601 24.6124L32.6077 22.0265C32.6077 22.0265 32.7829 22.0241 33.0291 22.0416C33.2753 22.0591 33.5678 22.0814 33.7778 22.1158L33.7671 22.1119Z" fill="#EAE2F2"/>
<path opacity="0.3" d="M33.602 21.7571L33.7978 22.1772L20.204 28.5138C20.204 28.5138 20.1731 28.4665 20.163 28.4448C20.0989 28.3072 20.0922 28.1604 20.1386 28.033L33.602 21.7571Z" fill="white"/>
<path opacity="0.2" d="M33.9328 22.4668L34.0172 22.6478L27.8902 25.5039L20.9849 28.7139C20.9776 28.7173 20.9632 28.724 20.9487 28.7308C20.9342 28.7375 20.9197 28.7443 20.9125 28.7477C20.7715 28.8046 20.6107 28.8001 20.4799 28.7465L33.9361 22.474L33.9328 22.4668Z" fill="black"/>
<path d="M21.79 31.9355C21.79 31.9355 21.8103 31.979 21.8132 32.0041C21.8566 32.1161 21.8531 32.2411 21.8251 32.3511C21.7888 32.5003 21.6888 32.6262 21.5474 32.701C21.5474 32.701 21.5329 32.7077 21.5184 32.7145C21.5039 32.7212 21.4967 32.7246 21.4822 32.7314C21.334 32.7917 21.1771 32.7766 21.0391 32.7264C20.9295 32.6805 20.8388 32.5993 20.7809 32.4941C20.7635 32.4757 20.7534 32.454 20.7433 32.4323C20.6791 32.2946 20.6763 32.1373 20.7193 32.0026C20.7623 31.868 20.8623 31.742 20.9965 31.6706C20.9965 31.6706 21.0183 31.6605 21.0328 31.6537C21.0472 31.647 21.0545 31.6436 21.0617 31.6402C21.1993 31.5761 21.3601 31.5805 21.4942 31.6414C21.625 31.695 21.7404 31.7911 21.8079 31.936L21.79 31.9355Z" fill="#57739A"/>
<path d="M21.9269 23.4527C21.9269 23.4527 21.9471 23.4961 21.95 23.5212C21.9934 23.6332 21.99 23.7583 21.9619 23.8683C21.9257 24.0175 21.8257 24.1434 21.6808 24.2109C21.6736 24.2143 21.6591 24.221 21.6446 24.2278C21.6301 24.2346 21.6157 24.2413 21.6084 24.2447C21.4602 24.305 21.2961 24.2933 21.1653 24.2397C21.0557 24.1938 20.965 24.1126 20.9071 24.0074C20.8897 23.989 20.8796 23.9673 20.8695 23.9456C20.8053 23.808 20.8025 23.6506 20.8455 23.5159C20.8886 23.3813 20.9885 23.2553 21.1228 23.1839C21.1373 23.1772 21.1445 23.1738 21.159 23.1671C21.1735 23.1603 21.1807 23.1569 21.1952 23.1502C21.3328 23.086 21.4935 23.0904 21.6277 23.1513C21.7585 23.205 21.8738 23.3011 21.9414 23.4459L21.9269 23.4527Z" fill="#96C720"/>
<path d="M36.2095 24.5706L28.5906 28.1221L29.0835 29.1794L36.7024 25.628L36.2095 24.5706Z" fill="#EAE2F2"/>
<path d="M30.112 28.0565C30.112 28.0565 30.0598 28.1338 30.0265 28.1757C29.8821 28.3577 29.7043 28.5816 29.5387 28.7558C29.3909 28.9304 29.2547 29.0733 29.2141 29.1186C29.1996 29.1254 29.1958 29.136 29.1958 29.136L21.5407 32.7044L21.4649 32.7309C21.3166 32.7912 21.1598 32.7761 21.0217 32.7259C20.9122 32.68 20.8214 32.5988 20.7636 32.4936C20.7462 32.4752 20.7361 32.4535 20.7259 32.4318C20.6618 32.2942 20.659 32.1368 20.702 32.0021C20.745 31.8675 20.845 31.7415 20.9792 31.6701L28.6995 28.0714C28.6995 28.0714 28.6995 28.0714 28.7067 28.068C28.7497 28.0656 28.95 28.0604 29.19 28.0455C29.4868 28.0394 29.8552 28.0352 30.112 28.0565Z" fill="#633567"/>
<path opacity="0.3" d="M36.2978 24.741L36.4936 25.1611L20.7633 32.4936C20.7633 32.4936 20.7358 32.4535 20.7257 32.4318C20.6615 32.2942 20.6587 32.1368 20.7017 32.0022L36.3016 24.7304L36.2978 24.741Z" fill="white"/>
<path opacity="0.2" d="M36.6286 25.4507L36.7097 25.6245L21.4646 32.7308C21.3164 32.7911 21.1595 32.7761 21.0215 32.7258L36.6214 25.4541L36.6286 25.4507Z" fill="black"/>
<path d="M29.5887 19.2375L25.3665 21.2057L25.8593 22.2631L30.0816 20.2949L29.5887 19.2375Z" fill="#EAE2F2"/>
<path d="M26.4602 21.3394C26.4602 21.3394 26.437 21.4031 26.4254 21.4349C26.3674 21.5942 26.3027 21.739 26.2346 21.8765C26.1819 21.9716 26.1292 22.0667 26.0766 22.1618C25.9824 22.2057 25.0047 22.6614 23.9329 23.161L21.6008 24.2481C21.4526 24.3084 21.2885 24.2967 21.1577 24.2431C21.0481 24.1972 20.9574 24.116 20.8995 24.0108C20.8822 23.9924 20.872 23.9707 20.8619 23.949C20.7978 23.8114 20.795 23.654 20.838 23.5193C20.881 23.3847 20.981 23.2587 21.1152 23.1873L21.1876 23.1536C22.5202 22.5324 25.4316 21.1753 25.5909 21.101C25.6976 21.1218 25.797 21.146 25.9037 21.1668C26.092 21.2113 26.273 21.2592 26.4781 21.3399L26.4602 21.3394Z" fill="#662658"/>
<path opacity="0.3" d="M29.6767 19.408L29.8725 19.828L20.8993 24.0108C20.8993 24.0108 20.8718 23.9708 20.8617 23.949C20.7975 23.8114 20.7947 23.6541 20.8377 23.5194L29.6806 19.3974L29.6767 19.408Z" fill="white"/>
<path opacity="0.2" d="M30.0076 20.1176L30.0886 20.2915L21.6006 24.2481C21.4524 24.3083 21.2883 24.2967 21.1575 24.243L30.0076 20.1176Z" fill="black"/>
<path d="M38.5842 26.3553L37.8455 26.6996C35.0367 20.674 29.0001 18.8067 25.0018 17.5672C24.2787 17.34 23.5909 17.1317 23.0142 16.9157C22.5257 16.7378 22.0156 16.5701 21.488 16.384C17.6524 15.0776 12.8746 13.4521 10.5891 8.54907L11.3278 8.20473C13.4682 12.7963 18.0654 14.3561 21.7558 15.6156C22.294 15.8056 22.8147 15.9772 23.2926 16.1512C23.8519 16.3488 24.5253 16.5639 25.2449 16.7839C29.3779 18.0663 35.6235 20.0038 38.5842 26.3553Z" fill="#662658"/>
<path d="M37.8456 26.6995L36.2596 27.4389C33.7782 22.1158 28.4082 20.449 24.4842 19.2367C23.7399 19.0018 23.0309 18.7857 22.415 18.5614C21.9478 18.3913 21.4449 18.2202 20.928 18.038C16.9929 16.7074 11.6026 14.8649 9.00317 9.28833L10.5892 8.549C12.8748 13.452 17.6525 15.0775 21.4915 16.3912C22.0229 16.5666 22.5365 16.7416 23.0177 16.9228C23.5911 17.1316 24.2822 17.3472 25.0053 17.5744C29.0036 18.8138 35.0402 20.6812 37.849 26.7068L37.8456 26.6995Z" fill="#662658"/>
<path d="M37.8452 26.6995L36.9978 27.0945C34.3612 21.4383 28.7889 19.7159 24.7269 18.4533C23.986 18.2256 23.2948 18.01 22.6968 17.7863C22.2296 17.6162 21.7195 17.4484 21.1919 17.2624C17.3988 15.9714 12.1958 14.2091 9.74146 8.94397L10.5888 8.54898C12.8743 13.452 17.6521 15.0775 21.4911 16.3912C22.0225 16.5666 22.5361 16.7416 23.0172 16.9228C23.5906 17.1316 24.2818 17.3472 25.0048 17.5744C29.0032 18.8138 35.0398 20.6812 37.8486 26.7068L37.8452 26.6995Z" fill="#662658"/>
<path d="M39.06 32.4455C39.06 32.4455 39.0736 32.4745 39.0803 32.489C39.0803 32.489 39.0871 32.5034 39.0904 32.5107C39.13 32.6333 39.1304 32.7477 39.1024 32.8578C39.0627 32.9997 38.9627 33.1256 38.8251 33.1898C38.8179 33.1931 38.8034 33.1999 38.7889 33.2066C38.7744 33.2134 38.7599 33.2201 38.7527 33.2235C38.6117 33.2804 38.451 33.276 38.3202 33.2224C38.3202 33.2224 38.3202 33.2224 38.3168 33.2151C38.2106 33.1765 38.1199 33.0953 38.0654 32.9973L38.0519 32.9683C38.0451 32.9539 38.0384 32.9394 38.0316 32.9249C37.9675 32.7873 37.9608 32.6405 38.0072 32.5131C38.0072 32.5131 38.0085 32.5096 38.0111 32.5025C38.0111 32.5025 38.0188 32.4813 38.0227 32.4706C38.0691 32.3432 38.1613 32.2385 38.2883 32.1705C38.3028 32.1638 38.31 32.1604 38.3245 32.1536C38.339 32.1469 38.3462 32.1435 38.3607 32.1367C38.4911 32.076 38.634 32.0799 38.7614 32.1263C38.772 32.1302 38.7826 32.134 38.7932 32.1379C38.7932 32.1379 38.7968 32.1392 38.8039 32.1418C38.9346 32.1954 39.0427 32.2949 39.1035 32.4252L39.06 32.4455Z" fill="#96C720"/>
<path d="M36.9979 27.0946C39.2834 31.9977 37.4562 36.702 35.9939 40.4869C35.7865 41.0067 35.5903 41.5125 35.4197 41.9975C35.211 42.5709 34.9317 43.2389 34.6408 43.9387C33.0191 47.7979 30.5677 53.6218 33.3765 59.6474L32.6378 59.9918C29.6771 53.6403 32.2091 47.6112 33.8845 43.6212C34.1715 42.932 34.4469 42.2747 34.6552 41.7192C34.8365 41.238 35.0293 40.7249 35.2332 40.1979C36.6414 36.5616 38.4029 32.0378 36.2626 27.4462L37.0013 27.1019L36.9979 27.0946Z" fill="#633567"/>
<path d="M38.5842 26.3552C41.1837 31.9318 39.1255 37.2374 37.6177 41.114C37.4177 41.6305 37.2292 42.115 37.0624 42.5895C36.8382 43.2053 36.5478 43.8873 36.2492 44.6084C34.6618 48.3898 32.4781 53.5777 34.9594 58.9007L33.3734 59.6401C30.5646 53.6145 33.016 47.7905 34.6376 43.9314C34.9285 43.2315 35.2112 42.5708 35.4166 41.9902C35.5945 41.5018 35.794 41.0032 35.9907 40.4795C37.4531 36.6946 39.2803 31.9903 36.9948 27.0873L38.5808 26.3479L38.5842 26.3552Z" fill="#633567"/>
<path d="M37.8455 26.6995C40.2999 31.9646 38.3113 37.0792 36.8571 40.825C36.6571 41.3414 36.4575 41.84 36.2907 42.3144C36.0703 42.9197 35.791 43.5876 35.4963 44.2981C33.8514 48.221 31.5875 53.5961 34.2241 59.2523L33.3768 59.6473C30.568 53.6217 33.0194 47.7977 34.6411 43.9386C34.932 43.2387 35.2146 42.578 35.42 41.9974C35.5979 41.509 35.7975 41.0104 35.9942 40.4867C37.4565 36.7018 39.2837 31.9975 36.9982 27.0945L37.8455 26.6995Z" fill="#662658"/>
<path d="M33.054 53.3005C33.054 53.3005 33.0743 53.3439 33.0772 53.369C33.1167 53.4916 33.1171 53.606 33.0891 53.7161C33.0891 53.7161 33.0878 53.7196 33.0852 53.7267C33.0456 53.8686 32.9456 53.9946 32.808 54.0587C32.8007 54.0621 32.7863 54.0688 32.7718 54.0756C32.7573 54.0823 32.7428 54.0891 32.7356 54.0925C32.5946 54.1494 32.4338 54.1449 32.303 54.0913C32.303 54.0913 32.2995 54.09 32.2924 54.0874C32.1829 54.0415 32.0955 53.9676 32.0304 53.8658C32.0304 53.8658 31.9995 53.8184 31.9894 53.7967C31.9253 53.6591 31.9186 53.5124 31.965 53.3849C31.965 53.3849 31.9663 53.3814 31.9688 53.3743C32.0119 53.2397 32.1118 53.1137 32.2461 53.0423C32.2605 53.0356 32.275 53.0288 32.2823 53.0254C32.2895 53.0221 32.3112 53.0119 32.3185 53.0086C32.4561 52.9444 32.6168 52.9488 32.751 53.0097C32.751 53.0097 32.7545 53.011 32.7616 53.0136C32.8924 53.0672 33.0005 53.1667 33.0613 53.2971L33.054 53.3005Z" fill="#F7C23E"/>
<path d="M39.2099 49.7874L39.7028 50.8448L32.7284 54.0958C32.5875 54.1527 32.4267 54.1483 32.2959 54.0946C32.2959 54.0946 32.2924 54.0934 32.2853 54.0908C32.1758 54.0449 32.0884 53.971 32.0233 53.8691C32.0233 53.8691 31.9924 53.8218 31.9823 53.8C31.9181 53.6624 31.9114 53.5157 31.9578 53.3883C31.9578 53.3883 31.9591 53.3847 31.9617 53.3777C32.0047 53.243 32.1047 53.117 32.2389 53.0457L39.2133 49.7946L39.2099 49.7874Z" fill="#E1D6EC"/>
<path d="M45.5833 47.46C45.5833 47.46 45.5311 47.5372 45.5084 47.583C45.4108 47.752 45.277 47.9377 45.1582 48.0989C45.0171 48.2881 44.9094 48.4353 44.9094 48.4353L39.7095 50.8592L39.3585 51.014C39.3585 51.014 39.1799 51.0091 38.9549 50.9994C38.7551 50.9867 38.5267 50.9697 38.3346 50.9358C38.2811 50.9344 38.2347 50.9295 38.1922 50.9141C38.2937 50.7345 38.4758 50.4821 38.6241 50.2896C38.7579 50.1038 38.8728 49.9533 38.8728 49.9533L44.4204 47.3673C44.4204 47.3673 44.5956 47.3649 44.8452 47.3897C45.0914 47.4072 45.3839 47.4295 45.5939 47.4639L45.5833 47.46Z" fill="#642F61"/>
<path opacity="0.3" d="M45.4182 47.1052L45.614 47.5252L32.0202 53.8619C32.0202 53.8619 31.9893 53.8145 31.9792 53.7928C31.915 53.6552 31.9083 53.5085 31.9547 53.381L45.4182 47.1052Z" fill="#E1D6EC"/>
<path opacity="0.2" d="M45.7484 47.8149L45.8328 47.996L39.7058 50.852L32.8006 54.062C32.7933 54.0654 32.7788 54.0722 32.7643 54.0789C32.7499 54.0857 32.7354 54.0924 32.7281 54.0958C32.5872 54.1527 32.4264 54.1483 32.2956 54.0946L45.7518 47.8221L45.7484 47.8149Z" fill="#642F61"/>
<path d="M33.6062 57.2835C33.6062 57.2835 33.6264 57.327 33.6293 57.3521C33.6727 57.4641 33.6693 57.5891 33.6412 57.6992C33.605 57.8483 33.505 57.9743 33.3635 58.049C33.3635 58.049 33.349 58.0558 33.3346 58.0625C33.3201 58.0693 33.3128 58.0726 33.2984 58.0794C33.1501 58.1397 32.9966 58.1319 32.8552 58.0744C32.7457 58.0285 32.6549 57.9473 32.5971 57.8421C32.5797 57.8237 32.5696 57.802 32.5594 57.7803C32.4953 57.6427 32.4925 57.4853 32.5355 57.3506C32.5785 57.216 32.6785 57.09 32.8127 57.0186C32.8127 57.0186 32.8344 57.0085 32.8489 57.0018C32.8634 56.995 32.8706 56.9916 32.8779 56.9883C33.0155 56.9241 33.1762 56.9285 33.3104 56.9894C33.4412 57.0431 33.5565 57.1392 33.624 57.284L33.6062 57.2835Z" fill="#57739A"/>
<path d="M33.7425 48.8007C33.7425 48.8007 33.7628 48.8441 33.7657 48.8693C33.8091 48.9813 33.8056 49.1063 33.7776 49.2163C33.7413 49.3655 33.6414 49.4914 33.4999 49.5662C33.4926 49.5696 33.4782 49.5763 33.4637 49.5831C33.4492 49.5898 33.4347 49.5966 33.4275 49.5999C33.2792 49.6602 33.1151 49.6486 32.9809 49.5877C32.8714 49.5418 32.784 49.4679 32.7228 49.3554C32.7054 49.337 32.6953 49.3153 32.6852 49.2936C32.621 49.156 32.6182 48.9986 32.6612 48.8639C32.7042 48.7293 32.8042 48.6033 32.9384 48.532C32.9529 48.5252 32.9602 48.5218 32.9747 48.5151C32.9891 48.5083 32.9964 48.5049 33.0109 48.4982C33.1485 48.4341 33.3092 48.4385 33.4434 48.4993C33.5742 48.553 33.6895 48.6491 33.757 48.7939L33.7425 48.8007Z" fill="#96C720"/>
<path d="M48.0251 49.9186L40.4062 53.4701L40.8991 54.5275L48.518 50.976L48.0251 49.9186Z" fill="#642F61"/>
<path d="M41.9271 53.4046C41.9271 53.4046 41.875 53.4818 41.8416 53.5238C41.6972 53.7057 41.5195 53.9296 41.3538 54.1038C41.2061 54.2785 41.0699 54.4213 41.0293 54.4667C41.0148 54.4734 41.011 54.484 41.011 54.484L33.3558 58.0524L33.28 58.0789C33.1318 58.1392 32.9783 58.1314 32.8369 58.0739C32.7273 58.028 32.6366 57.9468 32.5787 57.8416C32.5614 57.8232 32.5512 57.8015 32.5411 57.7798C32.477 57.6422 32.4741 57.4848 32.5172 57.3501C32.5602 57.2155 32.6602 57.0895 32.7944 57.0182L40.5147 53.4194C40.5147 53.4194 40.5147 53.4194 40.5219 53.416C40.5649 53.4136 40.7652 53.4084 41.0051 53.3935C41.302 53.3874 41.6703 53.3832 41.9271 53.4046Z" fill="#E1D6EC"/>
<path opacity="0.3" d="M48.1134 50.089L48.3093 50.5091L32.579 57.8416C32.579 57.8416 32.5515 57.8016 32.5414 57.7798C32.4772 57.6422 32.4744 57.4849 32.5174 57.3502L48.1173 50.0784L48.1134 50.089Z" fill="#642F61"/>
<path opacity="0.2" d="M48.4448 50.7988L48.5258 50.9726L33.2808 58.079C33.1326 58.1393 32.9791 58.1315 32.8376 58.074L48.4376 50.8022L48.4448 50.7988Z" fill="#E1D6EC"/>
<path d="M41.4044 44.5855L37.1821 46.5537L37.675 47.6111L41.8973 45.6429L41.4044 44.5855Z" fill="#642F61"/>
<path d="M38.2759 46.6874C38.2759 46.6874 38.2527 46.7511 38.2411 46.783C38.1831 46.9422 38.1184 47.087 38.0502 47.2246C37.9976 47.3196 37.9449 47.4147 37.8956 47.517C37.8015 47.5609 36.8238 48.0167 35.7519 48.5163L33.4199 49.6034C33.2717 49.6636 33.1076 49.652 32.9734 49.5911C32.8638 49.5452 32.7765 49.4713 32.7152 49.3588C32.6979 49.3405 32.6877 49.3187 32.6776 49.297C32.6135 49.1594 32.6106 49.002 32.6536 48.8674C32.6967 48.7327 32.7966 48.6068 32.9309 48.5354L33.0033 48.5016C34.3359 47.8804 37.2473 46.5233 37.4066 46.449C37.5133 46.4698 37.6127 46.494 37.7194 46.5148C37.9076 46.5593 38.0886 46.6072 38.2938 46.6879L38.2759 46.6874Z" fill="#E1D6EC"/>
<path opacity="0.3" d="M41.4929 44.756L41.6887 45.1761L32.7155 49.3589C32.7155 49.3589 32.688 49.3188 32.6778 49.2971C32.6137 49.1594 32.6109 49.0021 32.6539 48.8674L41.4967 44.7454L41.4929 44.756Z" fill="#642F61"/>
<path opacity="0.2" d="M41.824 45.4657L41.9084 45.6467L33.4204 49.6033C33.2722 49.6636 33.108 49.6519 32.9739 49.5911L41.824 45.4657Z" fill="black"/>
<path d="M50.3996 51.7033L49.6609 52.0477C46.8521 46.0221 40.8155 44.1547 36.8171 42.9153C36.0941 42.6881 35.4063 42.4798 34.8296 42.2637C34.3411 42.0859 33.831 41.9182 33.3034 41.7321C29.4644 40.4184 24.6866 38.7929 22.4011 33.8899L23.1398 33.5455C25.2768 38.1299 29.8775 39.6969 33.5678 40.9565C34.106 41.1464 34.6267 41.318 35.1046 41.492C35.664 41.6897 36.3373 41.9048 37.0569 42.1247C41.1899 43.4071 47.4355 45.3446 50.3962 51.6961L50.3996 51.7033Z" fill="#E1D6EC"/>
<path d="M49.661 52.0477L48.075 52.787C45.5937 47.4639 40.227 45.8044 36.2996 44.5848C35.5553 44.3499 34.8463 44.1338 34.2304 43.9096C33.7632 43.7394 33.2603 43.5683 32.7434 43.3861C28.805 42.0483 23.4181 40.213 20.8186 34.6365L22.4047 33.8971C24.6902 38.8002 29.468 40.4256 33.307 41.7393C33.8384 41.9148 34.3519 42.0898 34.8331 42.271C35.4065 42.4798 36.0977 42.6954 36.8207 42.9225C40.819 44.162 46.8556 46.0293 49.6644 52.0549L49.661 52.0477Z" fill="#E1D6EC"/>
<path d="M49.6613 52.0476L48.814 52.4426C46.1773 46.7863 40.6084 45.0712 36.543 43.8014C35.8021 43.5737 35.1109 43.3581 34.513 43.1343C34.0457 42.9642 33.5356 42.7965 33.008 42.6104C29.2115 41.3122 24.0085 39.5499 21.5542 34.2848L22.4015 33.8898C24.6871 38.7928 29.4648 40.4183 33.3038 41.732C33.8353 41.9074 34.3488 42.0824 34.83 42.2636C35.4034 42.4724 36.0945 42.688 36.8176 42.9152C40.8159 44.1546 46.8525 46.022 49.6613 52.0476Z" fill="#E1D6EC"/>
<path d="M31.7962 35.188L37.2424 32.6493C37.2477 32.7174 37.239 32.7743 37.2336 32.8385C37.2287 33.0171 37.206 33.1952 37.1904 33.37C37.1725 33.5018 37.158 33.6408 37.1401 33.7726C37.1309 33.8474 37.1144 33.9256 37.1125 33.997L31.9487 36.4041L31.4558 35.3467L31.8034 35.1846L31.7962 35.188Z" fill="#E1D6EC"/>
<path d="M32.9656 35.2953C32.9656 35.2953 32.9356 35.3445 32.9207 35.3691C32.8009 35.566 32.6671 35.7518 32.5371 35.927C32.4555 36.0356 32.3667 36.1475 32.285 36.2561L30.8873 36.9077L25.9842 39.1932C25.8466 39.2573 25.6897 39.2423 25.5483 39.1848C25.4349 39.1495 25.3514 39.065 25.2969 38.967C25.2969 38.967 25.2834 38.938 25.28 38.9307C25.2733 38.9163 25.2665 38.9018 25.2598 38.8873C25.199 38.7569 25.1996 38.6068 25.2353 38.4755C25.2353 38.4755 25.2331 38.4707 25.2286 38.461C25.2286 38.461 25.2363 38.4398 25.2402 38.4292C25.2827 38.3124 25.3788 38.197 25.5058 38.129L26.2373 37.7881C26.2373 37.7881 26.2518 37.7813 26.2523 37.7635C26.5632 37.6361 31.7999 35.1775 31.7999 35.1775C31.9176 35.1843 32.0427 35.1877 32.1605 35.1945C32.4211 35.2053 32.6885 35.2305 32.9661 35.2774L32.9656 35.2953Z" fill="#633567"/>
<path opacity="0.3" d="M37.234 32.8387C37.2291 33.0173 37.2063 33.1954 37.1908 33.3701L25.27 38.9269C25.27 38.9269 25.2565 38.898 25.2497 38.8835C25.189 38.7531 25.1895 38.603 25.2253 38.4717C25.2253 38.4717 25.223 38.4669 25.2185 38.4572C25.2185 38.4572 25.2263 38.436 25.2301 38.4254L37.2306 32.8314L37.234 32.8387Z" fill="#633567"/>
<path opacity="0.2" d="M37.1402 33.7726C37.131 33.8474 37.1145 33.9256 37.1126 33.997L25.9884 39.1825C25.8508 39.2466 25.6939 39.2316 25.5525 39.1741L37.1402 33.7726Z" fill="black"/>
<path d="M34.4305 38.8352C34.4811 38.9439 34.5385 39.067 34.5612 39.1534C34.605 39.2476 34.6137 39.3229 34.5987 39.3475C34.548 39.3711 34.2873 39.4926 33.8962 39.6749L30.1302 41.4304C29.9926 41.4946 29.8251 41.4757 29.6871 41.4254C29.5775 41.3795 29.4868 41.2984 29.4289 41.1931C29.4289 41.1931 29.4222 41.1786 29.4188 41.1714C29.412 41.1569 29.4053 41.1424 29.3985 41.1279C29.3344 40.9903 29.3316 40.833 29.3746 40.6983L29.3862 40.6664C29.4287 40.5496 29.5248 40.4343 29.6518 40.3663L29.7242 40.3325C31.0496 39.7147 33.961 38.3576 34.1203 38.2833C34.1488 38.2877 34.1869 38.3316 34.2347 38.4152C34.2998 38.5171 34.3813 38.673 34.4522 38.8251L34.4305 38.8352Z" fill="#633567"/>
<path d="M36.3077 37.2637C36.2806 37.338 36.2608 37.409 36.2338 37.4833C36.1637 37.6923 36.0975 37.8907 36.024 38.0924C35.9699 38.2411 35.9152 38.4076 35.8505 38.5524C35.8229 38.6446 35.7959 38.7189 35.7577 38.8072L33.7588 39.739C33.7588 39.739 33.6097 39.7027 33.4427 39.6659C33.2935 39.6297 33.0985 39.5707 32.9426 39.5199C32.9142 39.5156 32.8929 39.5079 32.8717 39.5001C32.9302 39.323 33.0476 39.0831 33.1345 38.9103C33.1916 38.7868 33.237 38.6951 33.2553 38.6777L36.2971 37.2598L36.3077 37.2637Z" fill="#E1D6EC"/>
<path opacity="0.3" d="M36.234 37.4834C36.1639 37.6924 36.0977 37.8908 36.0242 38.0925L29.4047 41.1782C29.4047 41.1782 29.3912 41.1492 29.3845 41.1347C29.3203 40.9971 29.3175 40.8397 29.3605 40.7051L29.3721 40.6732L36.2378 37.4728L36.234 37.4834Z" fill="#633567"/>
<path opacity="0.2" d="M35.8506 38.5524C35.8231 38.6446 35.796 38.7189 35.7578 38.8072L30.1233 41.4337C29.9857 41.4979 29.8182 41.479 29.6802 41.4287L35.8506 38.5524Z" fill="black"/>
<path d="M31.8131 31.5744C31.8131 31.5744 31.4692 31.9904 31.207 32.2977C31.063 32.4618 30.9447 32.6051 30.9114 32.6471L30.8969 32.6539L23.1766 36.2526C23.1766 36.2526 23.1404 36.2695 23.1259 36.2762C22.9927 36.3119 22.8536 36.2974 22.7441 36.2515L22.7373 36.237C22.6278 36.1911 22.5371 36.1099 22.4826 36.0119L22.4758 35.9974C22.4758 35.9974 22.4555 35.954 22.4488 35.9395C22.3847 35.8019 22.3852 35.6518 22.4248 35.5099C22.4606 35.3786 22.5572 35.2454 22.6915 35.174L30.419 31.5719C30.419 31.5719 31.5853 31.5395 31.8276 31.5677L31.8131 31.5744Z" fill="#633567"/>
<path d="M30.4007 31.5892L36.7305 28.6386C36.7608 28.7038 36.7811 28.7472 36.783 28.8081C36.836 28.9597 36.8785 29.1074 36.9136 29.2585C36.9392 29.37 36.9681 29.4888 36.9936 29.6003C37.0061 29.665 37.0187 29.7297 37.0312 29.7944L30.8897 32.6572L30.629 32.7787C30.5788 32.7845 30.3712 32.7931 30.1207 32.8041C29.8561 32.8039 29.5593 32.8101 29.3237 32.7965C29.288 32.7955 29.2595 32.7911 29.231 32.7868C29.3943 32.5696 29.642 32.269 29.8487 32.0316C29.9816 31.8815 30.0849 31.7628 30.1255 31.7175C30.14 31.7107 30.1472 31.7073 30.1472 31.7073L30.4079 31.5858L30.4007 31.5892Z" fill="#E1D6EC"/>
<path opacity="0.3" d="M36.783 28.8081C36.8361 28.9597 36.8785 29.1075 36.9136 29.2586L22.458 35.997C22.458 35.997 22.4378 35.9535 22.431 35.939C22.3669 35.8014 22.3708 35.6585 22.4104 35.5166L36.7864 28.8154L36.783 28.8081Z" fill="white"/>
<path opacity="0.2" d="M37.0003 29.597C37.0128 29.6617 37.0254 29.7264 37.0379 29.7911L23.1254 36.2763C22.9922 36.312 22.8532 36.2974 22.7436 36.2515L37.0109 29.6009L37.0003 29.597Z" fill="black"/>
</svg>
