<svg width="71" height="71" viewBox="0 0 71 71" fill="none" xmlns="http://www.w3.org/2000/svg">
<path d="M47.7732 44.5253C59.6016 44.5253 69.1905 34.9365 69.1905 23.1081C69.1905 11.2796 59.6016 1.6908 47.7732 1.6908C35.9448 1.6908 26.356 11.2796 26.356 23.1081C26.356 34.9365 35.9448 44.5253 47.7732 44.5253Z" fill="#662658"/>
<path d="M70.8812 23.1081C70.8812 10.3662 60.515 0 47.7731 0C35.0313 0 24.665 10.3662 24.665 23.1081C24.665 35.85 35.0313 46.2162 47.7731 46.2162C60.515 46.2162 70.8812 35.85 70.8812 23.1081ZM28.0467 23.1081C28.0467 12.2304 36.8954 3.38167 47.7731 3.38167C58.6508 3.38167 67.4996 12.2304 67.4996 23.1081C67.4996 33.9858 58.6508 42.8345 47.7731 42.8345C36.8954 42.8345 28.0467 33.9858 28.0467 23.1081Z" fill="#E1D6EC"/>
<path d="M50.0278 29.8715C55.6308 29.8715 60.1728 25.3294 60.1728 19.7264C60.1728 14.1235 55.6308 9.58142 50.0278 9.58142C44.4249 9.58142 39.8828 14.1235 39.8828 19.7264C39.8828 25.3294 44.4249 29.8715 50.0278 29.8715Z" fill="#E1D6EC"/>
<path d="M61.8636 19.7265C61.8636 17.3856 61.1694 15.0972 59.8689 13.1508C58.5684 11.2044 56.7199 9.68741 54.5571 8.79158C52.3944 7.89575 50.0146 7.66136 47.7187 8.11805C45.4228 8.57474 43.3138 9.702 41.6585 11.3573C40.0033 13.0125 38.876 15.1215 38.4193 17.4174C37.9626 19.7134 38.197 22.0931 39.0929 24.2559C39.9887 26.4186 41.5057 28.2671 43.4521 29.5676C45.3985 30.8682 47.6868 31.5623 50.0278 31.5623C53.1657 31.5586 56.174 30.3104 58.3928 28.0916C60.6117 25.8727 61.8599 22.8644 61.8636 19.7265ZM41.5736 19.7265C41.5736 18.0544 42.0694 16.4199 42.9984 15.0296C43.9273 13.6393 45.2477 12.5557 46.7925 11.9158C48.3373 11.276 50.0371 11.1085 51.6771 11.4347C53.317 11.761 54.8234 12.5661 56.0058 13.7485C57.1881 14.9308 57.9933 16.4372 58.3195 18.0772C58.6457 19.7171 58.4783 21.417 57.8384 22.9618C57.1985 24.5066 56.1149 25.8269 54.7246 26.7559C53.3344 27.6848 51.6998 28.1807 50.0278 28.1807C47.7863 28.1781 45.6375 27.2866 44.0525 25.7017C42.4676 24.1168 41.5761 21.9679 41.5736 19.7265Z" fill="#E1D6EC"/>
<path d="M50.0276 24.7989C52.8291 24.7989 55.1001 22.5279 55.1001 19.7264C55.1001 16.925 52.8291 14.6539 50.0276 14.6539C47.2261 14.6539 44.9551 16.925 44.9551 19.7264C44.9551 22.5279 47.2261 24.7989 50.0276 24.7989Z" fill="#662658"/>
<path d="M28.8552 50.0263C29.2039 48.2831 29.7378 48.0073 31.0279 47.3407C31.8708 46.9055 32.9194 46.3637 33.9727 45.3109C34.2899 44.9937 34.4681 44.5635 34.4681 44.115C34.4681 43.6665 34.2899 43.2363 33.9727 42.9192C33.6556 42.602 33.2254 42.4238 32.7769 42.4238C32.3284 42.4238 31.8982 42.602 31.5811 42.9192C30.9001 43.6001 30.2082 43.9576 29.4758 44.3359C27.9435 45.1275 26.2069 46.0248 25.5393 49.3627C25.1512 51.3022 24.5575 52.7858 20.8207 52.7858C20.3723 52.7858 19.9422 52.9639 19.6251 53.281C19.308 53.5981 19.1299 54.0282 19.1299 54.4766C19.1299 54.925 19.308 55.3551 19.6251 55.6722C19.9422 55.9893 20.3723 56.1674 20.8207 56.1674C26.9213 56.1679 28.3286 52.6628 28.8552 50.0263Z" fill="#E1D6EC"/>
<path d="M39.5518 44.5137C42.2968 41.7685 42.5953 38.7888 40.3489 36.5429C38.1024 34.2971 35.1233 34.5949 32.3781 37.34C31.1882 38.5299 30.4552 39.7547 30.1993 40.9798C29.967 42.093 30.0181 43.7477 31.581 45.3108C32.5814 46.3112 33.7263 46.8063 34.9316 46.8063C36.4334 46.8063 38.029 46.0364 39.5518 44.5137Z" fill="#E1D6EC"/>
<path d="M30.449 64.3734C30.7976 62.6303 31.3316 62.3545 32.6218 61.6879C33.4644 61.2525 34.5133 60.7107 35.5667 59.6578C35.7244 59.5009 35.8496 59.3145 35.9351 59.1091C36.0206 58.9038 36.0648 58.6836 36.0651 58.4612C36.0654 58.2387 36.0218 58.0184 35.9368 57.8129C35.8518 57.6073 35.727 57.4206 35.5697 57.2633C35.4124 57.106 35.2257 56.9814 35.0201 56.8964C34.8145 56.8114 34.5942 56.7679 34.3718 56.7682C34.1494 56.7685 33.9292 56.8127 33.7239 56.8983C33.5186 56.9838 33.3321 57.1091 33.1753 57.2668C32.4943 57.9478 31.8025 58.3051 31.0702 58.6834C29.5379 59.4752 27.8013 60.3723 27.1337 63.7103C26.7458 65.6497 26.152 67.1334 22.415 67.1334C21.9665 67.1334 21.5364 67.3115 21.2194 67.6286C20.9023 67.9457 20.7241 68.3758 20.7241 68.8242C20.7241 69.2726 20.9023 69.7027 21.2194 70.0198C21.5364 70.3369 21.9665 70.515 22.415 70.515C28.5152 70.515 29.9218 67.0099 30.449 64.3734Z" fill="#E1D6EC"/>
<path d="M41.1458 58.8608C43.8907 56.1158 44.1893 53.1361 41.9427 50.8902C40.3799 49.3272 38.7248 49.2762 37.612 49.5085C36.3862 49.7643 35.162 50.4973 33.9721 51.6872C31.227 54.4323 30.9286 57.4119 33.1749 59.6579C34.1753 60.6583 35.3201 61.1535 36.5255 61.1535C38.0274 61.1535 39.6229 60.3836 41.1458 58.8608Z" fill="#E1D6EC"/>
<path d="M9.72541 51.6204C10.074 49.8771 10.608 49.6012 11.8983 48.9347C12.7409 48.4995 13.7896 47.9576 14.8424 46.9048C15.1581 46.5874 15.335 46.1577 15.3344 45.7101C15.3338 45.2625 15.1557 44.8333 14.8391 44.5168C14.5226 44.2003 14.0934 44.0222 13.6458 44.0216C13.1982 44.021 12.7686 44.198 12.4512 44.5136C11.7702 45.1946 11.0784 45.5519 10.3461 45.9304C8.81377 46.722 7.07714 47.6193 6.4094 50.9571C6.02163 52.8967 5.42787 54.3802 1.69084 54.3802C1.2424 54.3802 0.812328 54.5584 0.495234 54.8755C0.178141 55.1926 0 55.6226 0 56.0711C0 56.5195 0.178141 56.9496 0.495234 57.2667C0.812328 57.5838 1.2424 57.7619 1.69084 57.7619C7.79166 57.7619 9.19815 54.2568 9.72541 51.6204Z" fill="#E1D6EC"/>
<path d="M20.4221 46.1076C23.1671 43.3627 23.4656 40.3829 21.2191 38.137C19.6563 36.574 18.001 36.5231 16.8884 36.7553C15.6626 37.0111 14.4384 37.7442 13.2485 38.9341C10.5034 41.679 10.205 44.6587 12.4512 46.9047C13.4517 47.9051 14.5965 48.4004 15.8019 48.4002C17.3038 48.4001 18.8992 47.6305 20.4221 46.1076Z" fill="#E1D6EC"/>
</svg>
