<svg width="71" height="71" viewBox="0 0 71 71" fill="none" xmlns="http://www.w3.org/2000/svg">
<path d="M45.7342 7.73792C41.3674 4.02568 38.5496 2.17857 35.3823 2.21878C29.5567 2.21878 29.633 4.02568 25.2662 7.73792C24.907 8.05459 24.522 8.34078 24.1152 8.59353L24.8225 10.9551V10.9038C25.2385 11.091 25.5512 11.5098 25.6261 12.2961C25.6411 12.4787 25.644 12.6622 25.6347 12.8452C25.5057 16.6476 27.376 18.13 28.4742 18.5169C29.5725 18.9038 31.1864 22.7048 29.055 26.3144C26.9236 29.924 29.3925 31.1007 30.0595 32.624C30.3674 33.3236 31.8892 35.916 32.1152 40.0762H39.5993C39.702 35.916 40.9805 33.257 41.287 32.5595C41.954 31.0383 44.0798 29.9195 41.947 26.3112C39.8143 22.703 41.4298 18.9023 42.5295 18.5154C43.6291 18.1285 45.5012 16.6468 45.3722 12.8437C45.365 12.6606 45.3701 12.4773 45.3875 12.295C45.4624 11.5087 45.7786 11.0902 46.2043 10.903L47.4218 8.84938C46.8119 8.55639 46.2442 8.18254 45.7342 7.73792Z" fill="#662658"/>
<path d="M32.3831 26.3143C34.5145 22.7047 32.902 18.9037 31.8024 18.5168C30.7027 18.1299 28.8338 16.6475 28.9628 12.8451C28.9721 12.6621 28.9692 12.4786 28.9542 12.296C28.8793 11.5097 28.5666 11.0909 28.1506 10.9037V10.955L27.4434 8.59345C27.8501 8.3407 28.2351 8.05451 28.5943 7.73785C32.3858 4.5147 32.8287 2.72819 36.6928 2.31328C36.2594 2.24506 35.821 2.21343 35.3823 2.21871C29.5567 2.21871 29.633 4.0256 25.2662 7.73785C24.907 8.05451 24.522 8.3407 24.1152 8.59345L24.8225 10.955V10.9037C25.2385 11.0909 25.5512 11.5097 25.6261 12.296C25.6411 12.4786 25.644 12.6621 25.6347 12.8451C25.5057 16.6475 27.376 18.1299 28.4742 18.5168C29.5725 18.9037 31.1864 22.7047 29.055 26.3143C26.9236 29.924 29.3925 31.1006 30.0595 32.6239C30.3674 33.3235 31.8892 35.916 32.1152 40.0761H35.4433C35.2173 35.916 33.6961 33.3235 33.3877 32.6232C32.7207 31.1006 30.2504 29.9226 32.3831 26.3143Z" fill="#662658"/>
<path d="M65.9912 4.58731C65.6277 4.03215 65.074 3.62874 64.4342 3.45283C63.7943 3.27691 63.1123 3.34057 62.5161 3.63186C62.4925 3.64434 62.4689 3.65682 62.4439 3.6693C61.5322 4.15232 60.5069 4.37991 59.4764 4.32799C57.9956 4.26964 56.5268 4.61526 55.2275 5.32782C54.2279 5.87822 53.3459 6.61931 52.6315 7.50913C51.8536 8.45348 50.0453 10.0676 47.4216 8.85008C33.1606 5.36665 24.2925 8.5034 24.115 8.56719C24.1143 8.56798 24.1133 8.56848 24.1123 8.56858C21.2002 10.2853 19.1977 8.51727 18.3685 7.50913C17.6541 6.61931 16.7721 5.87822 15.7725 5.32782C14.4732 4.61526 13.0044 4.26964 11.5236 4.32799C10.4932 4.37991 9.46781 4.15232 8.55606 3.6693C8.5311 3.65682 8.50753 3.64434 8.48395 3.63186C7.88772 3.34057 7.20567 3.27691 6.56583 3.45283C5.92598 3.62874 5.37235 4.03215 5.00884 4.58731C1.41585 10.008 9.83601 13.4887 9.83601 13.4887L11.5569 11.152C11.4363 11.109 5.96983 9.16764 6.7464 6.89204C7.53128 4.59147 8.21909 6.40252 9.93724 6.35399C11.6554 6.30545 16.0125 6.81022 18.0357 9.87764C18.3467 10.3501 18.7629 10.7441 19.2518 11.0286C19.7382 11.3045 20.2827 11.4623 20.8412 11.4893C21.3998 11.5163 21.9569 11.4117 22.4676 11.1839C23.1624 10.8858 24.1178 10.6029 24.7959 10.9038V10.9024C24.7959 10.9024 27.9188 8.08323 30.4524 10.7998C31.1429 11.5403 31.5479 12.5804 31.6255 13.6759C31.9126 17.6488 32.825 20.2087 33.5572 21.2127C33.8581 21.6259 34.1424 22.5009 34.1646 23.0445C34.2769 25.965 31.301 32.1581 35.5 36.8965C38.5702 31.5576 36.2058 25.2106 36.2211 23.0626C36.2239 22.5176 36.504 21.6259 36.8049 21.2127C37.5371 20.2087 39.0874 17.6488 39.3745 13.6759C39.4522 12.5804 39.8571 11.5403 40.5477 10.7998C43.0812 8.08323 46.2041 10.9038 46.2041 10.9038C46.8822 10.6029 47.8376 10.8858 48.5324 11.1839C49.0431 11.4117 49.6002 11.5163 50.1588 11.4893C50.7174 11.4623 51.2618 11.3045 51.7482 11.0286C52.2371 10.7441 52.6533 10.3501 52.9643 9.87764C54.9876 6.81022 59.346 6.30407 61.0628 6.35399C62.7795 6.40391 63.4687 4.59147 64.2536 6.89204C65.0302 9.16764 59.4015 11.0175 59.2808 11.0577L61.164 13.4887C61.164 13.4887 69.5842 10.008 65.9912 4.58731Z" fill="#E1D6EC"/>
<path d="M31.7793 54.0626H39.2204V60.9102H31.7793V54.0626Z" fill="#662658"/>
<path d="M34.0049 62.3884H36.9946V67.1976H34.0049V62.3884Z" fill="#E1D6EC"/>
<path d="M52.4982 29.2306C54.005 29.0923 55.5224 29.3354 56.9106 29.9375C58.2988 30.5396 59.5132 31.4813 60.4418 32.676C61.3705 33.8707 61.9836 35.2798 62.2246 36.7737C62.4657 38.2675 62.3269 39.798 61.8211 41.2241C61.3153 42.6502 60.4588 43.9261 59.3304 44.9343C58.202 45.9424 56.8381 46.6504 55.3642 46.993C53.8903 47.3356 52.354 47.3018 50.8966 46.8947C49.4392 46.4876 48.1078 45.7203 47.0248 44.6634C46.9124 44.5547 46.7772 44.4723 46.6289 44.4224C46.4807 44.3725 46.3231 44.3563 46.1678 44.375C41.8579 44.8853 41.0259 42.4946 41.0259 42.4946C41.0259 42.4946 43.5774 41.2285 44.2708 39.4729C44.3302 39.3199 44.3529 39.1551 44.3374 38.9918C44.301 38.5596 44.2945 38.1254 44.3179 37.6924C44.4462 35.5375 45.3416 33.4996 46.842 31.9475C48.3424 30.3955 50.3488 29.4317 52.4982 29.2306Z" fill="#662658"/>
<path d="M11.5585 11.152C12.5319 10.572 13.6703 10.3316 14.7951 10.4683C15.8823 10.6028 17.0042 11.0702 17.7904 12.2281C18.0707 12.7007 18.2187 13.24 18.2189 13.7895C18.2188 14.2413 18.1199 14.6877 17.9291 15.0972C17.6095 15.7847 17.0462 16.3293 16.3482 16.6254C14.8617 17.2605 13.6594 17.6432 12.5389 17.4172C10.7764 17.0608 9.53667 14.9724 9.8362 13.4886C10.0414 12.4749 10.6946 11.6775 11.5571 11.152H11.5585Z" fill="#662658"/>
<path d="M59.2794 11.0577H59.2808C60.2224 11.5805 60.9463 12.4126 61.164 13.4887C61.4635 14.9724 60.2238 17.0608 58.4612 17.4172C57.3408 17.6433 56.1385 17.2605 54.6519 16.6254C53.954 16.3293 53.3906 15.7848 53.0711 15.0972C52.8802 14.6877 52.7813 14.2414 52.7812 13.7896C52.7814 13.2401 52.9294 12.7007 53.2097 12.2281C53.996 11.0702 55.1179 10.6029 56.2051 10.4684C57.2662 10.3401 58.3409 10.5462 59.2794 11.0577Z" fill="#662658"/>
<path d="M38.2899 66.9203H32.7083C32.4615 66.9203 32.2249 67.0183 32.0504 67.1928C31.8759 67.3673 31.7778 67.604 31.7778 67.8508C31.7778 68.0976 31.8759 68.3342 32.0504 68.5087C32.2249 68.6832 32.4615 68.7813 32.7083 68.7813H38.2899C38.5366 68.7813 38.7733 68.6832 38.9478 68.5087C39.1223 68.3342 39.2203 68.0976 39.2203 67.8508C39.2203 67.604 39.1223 67.3673 38.9478 67.1928C38.7733 67.0183 38.5366 66.9203 38.2899 66.9203Z" fill="#E1D6EC"/>
<path d="M31.7559 54.082H35.084V60.877H31.7559V54.082Z" fill="#662658"/>
<path d="M39.8988 60.6329H31.1014C30.8318 60.6329 30.5733 60.74 30.3827 60.9307C30.1921 61.1213 30.085 61.3798 30.085 61.6494C30.085 61.919 30.1921 62.1775 30.3827 62.3681C30.5733 62.5588 30.8318 62.6659 31.1014 62.6659H39.8988C40.1684 62.6659 40.4269 62.5588 40.6175 62.3681C40.8081 62.1775 40.9152 61.919 40.9152 61.6494C40.9152 61.3798 40.8081 61.1213 40.6175 60.9307C40.4269 60.74 40.1684 60.6329 39.8988 60.6329Z" fill="#E1D6EC"/>
<path d="M43.7993 43.8813C43.7993 43.8813 46.3509 42.6152 47.0442 40.8597C47.1036 40.7066 47.1264 40.5419 47.1108 40.3785C47.0744 39.9463 47.0679 39.5122 47.0914 39.0791C47.1701 37.7205 47.5552 36.3973 48.2178 35.2085C48.8805 34.0198 49.8034 32.9964 50.9176 32.215C52.0318 31.4335 53.3084 30.9143 54.6517 30.6961C55.995 30.4779 57.3703 30.5665 58.6745 30.9552C57.3673 29.9904 55.8237 29.3967 54.2069 29.2368C52.5901 29.077 50.9601 29.357 49.4893 30.0472C48.0185 30.7375 46.7616 31.8122 45.8513 33.158C44.941 34.5037 44.4112 36.0704 44.3179 37.6924C44.2945 38.1254 44.301 38.5596 44.3374 38.9917C44.3529 39.1551 44.3302 39.3199 44.2708 39.4729C43.5774 41.2285 41.0259 42.4946 41.0259 42.4946C41.0259 42.4946 41.5767 44.0764 44.1022 44.3919C43.9769 44.2374 43.8749 44.0653 43.7993 43.8813Z" fill="#662658"/>
<path d="M51.5059 42.1424C51.309 42.1426 51.1184 42.0727 50.9684 41.9452C50.073 41.1864 49.8704 40.293 49.7225 39.6409C49.5599 38.9235 49.5349 38.8134 48.9544 38.7338C47.834 38.5813 46.9853 37.907 46.4993 36.786C46.4115 36.5835 46.4078 36.3545 46.489 36.1493C46.5701 35.9441 46.7294 35.7795 46.9319 35.6918C47.1344 35.604 47.3634 35.6003 47.5686 35.6815C47.7739 35.7626 47.9384 35.9219 48.0262 36.1244C48.3576 36.8895 48.8434 37.0396 49.1798 37.0853C50.9028 37.321 51.1692 38.4956 51.3454 39.273C51.4675 39.8113 51.5728 40.2762 52.0442 40.6756C52.1742 40.7858 52.2672 40.9333 52.3107 41.0981C52.3542 41.2628 52.346 41.437 52.2873 41.597C52.2286 41.757 52.1221 41.8951 51.9824 41.9926C51.8426 42.0902 51.6763 42.1424 51.5059 42.1424Z" fill="#E1D6EC"/>
<path d="M57.9985 42.5723H57.9846C57.8753 42.5705 57.7675 42.5471 57.6672 42.5036C57.567 42.4602 57.4763 42.3973 57.4003 42.3188C57.3243 42.2402 57.2646 42.1475 57.2244 42.0458C57.1843 41.9442 57.1646 41.8356 57.1664 41.7264C57.1803 40.8928 56.7998 40.5561 56.5123 40.3753C55.0402 39.4498 55.2827 38.2698 55.4432 37.489C55.5541 36.9481 55.6501 36.4812 55.3858 35.9231C55.2913 35.7237 55.2799 35.4949 55.3541 35.2871C55.4284 35.0792 55.5821 34.9094 55.7815 34.815C55.981 34.7205 56.2097 34.7091 56.4176 34.7833C56.6254 34.8576 56.7952 35.0113 56.8897 35.2107C57.3921 36.2714 57.2078 37.1686 57.0731 37.8239C56.9252 38.5443 56.9023 38.6549 57.398 38.9667C58.3549 39.5685 58.8506 40.5324 58.8302 41.754C58.8266 41.9722 58.7374 42.1803 58.5818 42.3333C58.4262 42.4864 58.2167 42.5722 57.9985 42.5723Z" fill="#E1D6EC"/>
<path d="M47.8765 42.1423C47.6837 42.1426 47.4968 42.0759 47.3477 41.9538C47.1986 41.8317 47.0964 41.6616 47.0586 41.4725C47.0209 41.2835 47.0498 41.0872 47.1406 40.9172C47.2313 40.7471 47.3782 40.6138 47.5563 40.5399C47.7343 40.466 47.9325 40.4562 48.117 40.5121C48.3015 40.568 48.4609 40.6861 48.568 40.8464C48.6751 41.0066 48.7234 41.1991 48.7045 41.3909C48.6856 41.5828 48.6008 41.7621 48.4644 41.8984C48.3084 42.0543 48.097 42.142 47.8765 42.1423Z" fill="#E1D6EC"/>
<path d="M50.8926 34.8162C50.6998 34.8164 50.513 34.7497 50.3638 34.6276C50.2147 34.5055 50.1125 34.3354 50.0747 34.1464C50.037 33.9573 50.0659 33.7611 50.1567 33.591C50.2474 33.4209 50.3943 33.2876 50.5724 33.2137C50.7504 33.1399 50.9486 33.13 51.1331 33.1859C51.3176 33.2418 51.477 33.3599 51.5841 33.5202C51.6912 33.6805 51.7395 33.8729 51.7206 34.0647C51.7017 34.2566 51.6169 34.4359 51.4806 34.5722C51.3244 34.7279 51.1131 34.8156 50.8926 34.8162Z" fill="#E1D6EC"/>
<path d="M29.1211 48.303C28.9004 48.303 28.6888 48.2153 28.5328 48.0593C28.3767 47.9033 28.2891 47.6916 28.2891 47.471V47.1436C28.2891 46.9229 28.3767 46.7113 28.5328 46.5552C28.6888 46.3992 28.9004 46.3115 29.1211 46.3115C29.3418 46.3115 29.5534 46.3992 29.7094 46.5552C29.8655 46.7113 29.9531 46.9229 29.9531 47.1436V47.471C29.9531 47.6916 29.8655 47.9033 29.7094 48.0593C29.5534 48.2153 29.3418 48.303 29.1211 48.303Z" fill="#E1D6EC"/>
<path d="M29.1211 59.1054C28.9004 59.1054 28.6888 59.0177 28.5328 58.8617C28.3767 58.7056 28.2891 58.494 28.2891 58.2733V49.856C28.2891 49.6353 28.3767 49.4237 28.5328 49.2676C28.6888 49.1116 28.9004 49.0239 29.1211 49.0239C29.3418 49.0239 29.5534 49.1116 29.7094 49.2676C29.8655 49.4237 29.9531 49.6353 29.9531 49.856V58.2733C29.9531 58.494 29.8655 58.7056 29.7094 58.8617C29.5534 59.0177 29.3418 59.1054 29.1211 59.1054Z" fill="#E1D6EC"/>
<path d="M35.5 39.9342C35.2793 39.9342 35.0677 39.8465 34.9117 39.6905C34.7556 39.5344 34.668 39.3228 34.668 39.1021V33.0642C34.668 32.8435 34.7556 32.6319 34.9117 32.4759C35.0677 32.3198 35.2793 32.2322 35.5 32.2322C35.7207 32.2322 35.9323 32.3198 36.0883 32.4759C36.2444 32.6319 36.332 32.8435 36.332 33.0642V39.1021C36.332 39.3228 36.2444 39.5344 36.0883 39.6905C35.9323 39.8465 35.7207 39.9342 35.5 39.9342Z" fill="#E1D6EC"/>
<path d="M36.8951 40.4977V42.9384H34.105V40.4977C34.1045 40.3591 34.1251 40.2211 34.166 40.0886C34.2368 39.8586 34.3658 39.6508 34.5406 39.4853C34.7153 39.3198 34.9299 39.2023 35.1634 39.1441C35.397 39.0859 35.6416 39.0891 35.8735 39.1532C36.1055 39.2174 36.3169 39.3404 36.4874 39.5104C36.7481 39.7729 36.8947 40.1277 36.8951 40.4977Z" fill="#E1D6EC"/>
<path d="M36.9254 42.9384H34.0743C33.9561 42.9382 33.839 42.9614 33.7297 43.0066C33.6205 43.0518 33.5212 43.1181 33.4376 43.2017C33.354 43.2853 33.2877 43.3845 33.2426 43.4938C33.1974 43.603 33.1742 43.7201 33.1743 43.8383V46.376H37.8254V43.8383C37.8255 43.7201 37.8023 43.603 37.7571 43.4938C37.7119 43.3845 37.6457 43.2853 37.5621 43.2017C37.4785 43.1181 37.3792 43.0518 37.27 43.0066C37.1607 42.9614 37.0436 42.9382 36.9254 42.9384Z" fill="#662658"/>
<path d="M37.1481 42.9962C37.0747 42.9831 36.9997 42.9804 36.9255 42.9883H34.0745C33.5766 42.9883 33.1426 43.3405 33.1426 43.8384V46.3164H36.4707V43.8384C36.4745 43.6428 36.5431 43.4541 36.6657 43.3017C36.7883 43.1493 36.9579 43.0418 37.1481 42.9962Z" fill="#662658"/>
<path d="M38.0403 46.0986H32.9594C32.6464 46.0986 32.3463 46.223 32.1249 46.4443C31.9036 46.6656 31.7793 46.9658 31.7793 47.2787V54.3399H39.2204V47.2787C39.2204 46.9658 39.0961 46.6656 38.8748 46.4443C38.6535 46.223 38.3533 46.0986 38.0403 46.0986Z" fill="#662658"/>
<path d="M36.2877 46.0391H32.9595C32.6381 46.0516 32.3338 46.1874 32.1097 46.4182C31.8856 46.649 31.7589 46.9571 31.7559 47.2788V54.3594H35.084V47.2788C35.0871 46.9571 35.2138 46.649 35.4378 46.4182C35.6619 46.1874 35.9662 46.0516 36.2877 46.0391Z" fill="#662658"/>
<path d="M56.7261 33.4477C56.8579 33.7527 57.199 34.5418 56.7941 35.1672C56.7821 35.1871 56.7686 35.2061 56.7538 35.224C56.6471 35.3534 56.5049 35.4488 56.3448 35.4986L55.6819 35.7149C55.5428 35.7603 55.3947 35.7708 55.2506 35.7455C55.1251 35.7236 55.0035 35.6829 54.8901 35.6248C54.2564 35.2851 54.144 34.5085 54.108 34.2644C53.9887 33.438 54.2564 32.1899 54.9511 31.9722C55.6958 31.7406 56.4502 32.8056 56.7261 33.4477Z" fill="#E1D6EC"/>
<path d="M53.8918 41.6598C54.3425 42.3629 54.6143 43.6109 54.0707 44.0949C53.4883 44.6135 52.3609 43.9535 51.845 43.4834C51.5982 43.2601 50.9631 42.6818 51.0726 41.9455C51.0761 41.9222 51.0807 41.899 51.0865 41.8762C51.1305 41.7147 51.2201 41.5693 51.3444 41.4574L51.5067 41.3104L51.8603 40.9873C51.9682 40.8888 52.0987 40.8183 52.2403 40.782C52.3633 40.7504 52.4905 40.7373 52.6174 40.7432C53.3358 40.7917 53.7587 41.4518 53.8918 41.6598Z" fill="#E1D6EC"/>
</svg>
