<svg width="53" height="69" viewBox="0 0 53 69" fill="none" xmlns="http://www.w3.org/2000/svg">
<path d="M25.4554 21.9132C24.6926 20.5785 24.2914 19.0677 24.2914 17.5304V6.62537L17.3188 5.10608L15.3149 30.1117L28.297 30.1989L29.0938 28.2804L25.4554 21.9132Z" fill="#E1D6EC"/>
<path d="M15.4575 2.2085V17.5305C15.4575 19.0678 15.0564 20.5785 14.2937 21.9133L10.6543 28.2821L15.7195 31.4299L17.7033 21.9133C18 20.5785 18.1561 19.0678 18.1561 17.5305V9.93827C18.1561 8.10876 19.6393 6.62557 21.4688 6.62557H24.2913V2.2085H15.4575Z" fill="#E1D6EC"/>
<path d="M39.341 46.2131L29.0938 28.2805C28.3989 28.5103 27.6184 28.7104 26.2586 28.7104C23.0629 28.7104 23.0629 27.6062 19.8673 27.6062C18.0761 27.6062 17.2896 27.9536 16.3807 28.2587L6.22461 49.7447H36.6819C39.0334 49.7445 40.5076 48.2548 39.341 46.2131Z" fill="#662658"/>
<path d="M17.5757 48.5867C14.7737 48.5867 12.6799 46.0113 13.2517 43.2683L16.3807 28.2585C15.6692 28.4974 14.8828 28.7104 13.4805 28.7104C12.1259 28.7104 11.347 28.5111 10.6544 28.2821L0.408041 46.213C-0.75864 48.2547 0.71559 50.7952 3.06714 50.7952H36.6818C38.1406 50.7952 39.2584 49.8164 39.6211 48.5867H17.5757Z" fill="#662658"/>
<path d="M24.2915 4.41694H15.4575C14.2377 4.41694 13.249 3.4281 13.249 2.20847C13.249 0.988837 14.2379 0 15.4575 0H24.2915C25.5111 0 26.5 0.988837 26.5 2.20847C26.5 3.42824 25.5111 4.41694 24.2915 4.41694Z" fill="#662658"/>
<path d="M53 50.7952C53 55.2865 51.3241 59.3864 48.5636 62.5036C45.3267 66.1589 40.5985 67.9686 35.3321 67.9686C25.5743 67.9686 18.103 60.5528 18.103 50.7951C18.103 45.5068 19.9876 40.7611 23.6693 37.5233C26.7809 34.7868 30.8627 33.1272 35.3321 33.1272C45.0897 33.1273 53 41.0375 53 50.7952Z" fill="#662658"/>
<path d="M36.8609 66.9342C27.1031 66.9342 19.193 59.0241 19.193 49.2663C19.193 44.7769 20.9107 40.6402 23.6692 37.5234C20.012 40.7605 17.6641 45.5272 17.6641 50.7952C17.6641 60.553 25.5742 68.4631 35.3319 68.4631C40.6003 68.4631 45.3265 66.1613 48.5635 62.5036C45.4467 65.2625 41.3507 66.9342 36.8609 66.9342Z" fill="#E1D6EC"/>
<path d="M46.374 50.7952C46.374 49.8514 45.2631 49.0662 45.0306 48.1959C44.7899 47.2953 45.3523 46.0613 44.8961 45.2728C44.4334 44.473 43.0791 44.346 42.4302 43.6969C41.7811 43.0479 41.6541 41.6936 40.8543 41.2308C40.0658 40.7746 38.8317 41.337 37.9311 41.0962C37.0606 40.8635 36.2755 39.7526 35.3317 39.7526C34.3879 39.7526 33.6027 40.8635 32.7324 41.096C31.8318 41.3367 30.5978 40.7743 29.8093 41.2305C29.0095 41.6932 28.8825 43.0475 28.2334 43.6964C27.5844 44.3455 26.2301 44.4725 25.7673 45.2723C25.3111 46.0608 25.8735 47.2949 25.6327 48.1955C25.4 49.0659 24.2891 49.8511 24.2891 50.7949C24.2891 51.7387 25.4 52.5239 25.6325 53.3942C25.8732 54.2948 25.3108 55.5288 25.767 56.3173C26.2297 57.117 27.584 57.2441 28.2329 57.8931C28.882 58.5422 29.009 59.8965 29.8088 60.3591C30.5973 60.8154 31.8314 60.253 32.732 60.4938C33.6025 60.7265 34.3876 61.8374 35.3314 61.8374C36.2752 61.8374 37.0604 60.7265 37.9307 60.4939C38.8313 60.2532 40.0653 60.8157 40.8538 60.3594C41.6535 59.8968 41.7806 58.5425 42.4296 57.8935C43.0787 57.2445 44.433 57.1174 44.8958 56.3177C45.352 55.5292 44.7896 54.2951 45.0304 53.3945C45.2632 52.5241 46.374 51.739 46.374 50.7952Z" fill="#E1D6EC"/>
<path d="M41.9579 50.7952C41.9579 47.136 38.9915 44.1698 35.3325 44.1698C34.0706 44.1698 32.8912 44.5225 31.8874 45.1348C29.9803 46.298 29.0386 48.3979 29.0386 50.7953C29.0386 54.4545 31.6733 57.0342 35.3325 57.0342C37.7284 57.0342 39.8274 56.149 40.991 54.2436C41.6044 53.239 41.9579 52.0584 41.9579 50.7952Z" fill="#662658"/>
<path d="M37.5404 55.2121C33.8813 55.2121 30.915 52.2458 30.915 48.5867C30.915 47.3236 31.2735 46.1391 31.8869 45.1346C29.9814 46.2982 28.7065 48.3991 28.7065 50.7952C28.7065 54.4543 31.6728 57.4206 35.332 57.4206C37.728 57.4206 39.8268 56.1489 40.9905 54.2434C39.986 54.8568 38.8035 55.2121 37.5404 55.2121Z" fill="#662658"/>
<path d="M34.228 54.1079C35.4477 54.1079 36.4365 53.1191 36.4365 51.8994C36.4365 50.6797 35.4477 49.6909 34.228 49.6909C33.0083 49.6909 32.0195 50.6797 32.0195 51.8994C32.0195 53.1191 33.0083 54.1079 34.228 54.1079Z" fill="#E1D6EC"/>
</svg>
