<svg width="71" height="71" viewBox="0 0 71 71" fill="none" xmlns="http://www.w3.org/2000/svg">
<path d="M59.2354 50.3328L49.1691 66.2793C40.3622 66.2793 33.2227 59.1397 33.2227 50.3328C33.2227 41.5259 40.3622 34.3864 49.1691 34.3864L59.2354 50.3328Z" fill="#662658"/>
<path d="M65.1152 50.3329C65.1152 59.1398 57.9756 66.2793 49.1687 66.2793V34.3866C57.9758 34.3866 65.1152 41.5259 65.1152 50.3329Z" fill="#662658"/>
<path d="M56.052 50.3329L49.1692 61.2362C43.1474 61.2362 38.2659 56.3546 38.2659 50.3329C38.2659 44.3111 43.1474 39.4296 49.1692 39.4296L56.052 50.3329Z" fill="#E1D6EC"/>
<path d="M60.0722 50.3329C60.0722 56.3546 55.1907 61.2362 49.1689 61.2362V39.4296C55.1906 39.4296 60.0722 44.3112 60.0722 50.3329Z" fill="#E1D6EC"/>
<path d="M53.8741 50.3328L49.1692 57.7859C45.053 57.7859 41.7161 54.449 41.7161 50.3328C41.7161 46.2166 45.0528 42.8796 49.1692 42.8796L53.8741 50.3328Z" fill="#E1D6EC"/>
<path d="M56.6221 50.3328C56.6221 54.449 53.2853 57.7859 49.1689 57.7859V42.8796C53.2851 42.8798 56.6221 46.2166 56.6221 50.3328Z" fill="#E1D6EC"/>
<path d="M51.0546 50.3327L49.1694 53.319C47.5201 53.319 46.1831 51.982 46.1831 50.3327C46.1831 48.6835 47.5201 47.3464 49.1694 47.3464L51.0546 50.3327Z" fill="#662658"/>
<path d="M52.1555 50.3327C52.1555 51.982 50.8185 53.319 49.1692 53.319V47.3464C50.8185 47.3464 52.1555 48.6835 52.1555 50.3327Z" fill="#662658"/>
<path d="M24.8689 5.87598H12.8943V54.5106C12.8943 61.0104 18.1633 66.2794 24.663 66.2794C24.7321 66.2794 24.8002 66.2753 24.8689 66.2743L27.4312 30.3089L24.8689 5.87598Z" fill="#E1D6EC"/>
<path d="M24.8696 66.2741C31.274 66.1637 36.4325 60.9411 36.4325 54.5105V5.87598H24.8696V66.2741Z" fill="#E1D6EC"/>
<path d="M24.6636 8.75171H11V3H24.6636L26.0232 5.87594L24.6636 8.75171Z" fill="#662658"/>
<path d="M24.6638 3H38.3274V8.75171H24.6638V3Z" fill="#662658"/>
<path d="M24.8158 18.2363H15.9678V54.1723C15.9678 58.9748 19.8611 62.8681 24.6636 62.8681C24.7146 62.8681 24.765 62.8652 24.8158 62.8643L26.7091 36.2895L24.8158 18.2363Z" fill="#662658"/>
<path d="M24.8154 62.8643C29.5476 62.7828 33.3592 58.9239 33.3592 54.1723V18.2363H24.8154V62.8643Z" fill="#662658"/>
<path d="M29.0873 31.1646C27.8317 31.1646 26.814 33.2405 26.814 34.496C26.814 35.7516 27.8317 36.7694 29.0873 36.7694C30.3429 36.7694 31.3607 35.7516 31.3607 34.496C31.3607 33.2405 30.3429 31.1646 29.0873 31.1646Z" fill="#E1D6EC"/>
<path d="M29.2999 39.1798C29.6673 38.5748 30.0472 37.9491 30.0916 36.6828L30.1033 36.3522L28.0947 36.2819L28.107 36.6364C28.1453 37.7301 27.8636 38.2772 27.5651 38.8565C27.2409 39.4857 26.9057 40.1364 26.95 41.4028C26.9944 42.6691 27.3743 43.2948 27.7417 43.8998C28.0801 44.4568 28.3995 44.9828 28.4378 46.0768C28.4431 46.2254 28.4418 46.3633 28.436 46.4932C28.3988 47.3191 28.1538 47.7965 27.8958 48.2971C27.5716 48.9264 27.2365 49.5772 27.2807 50.8435C27.3252 52.1098 27.7051 52.7355 28.0725 53.3406C28.4101 53.8966 28.729 54.4218 28.7683 55.5117V55.5522L29.4298 55.5639C29.4742 54.2973 29.1391 53.6466 28.8147 53.0174C28.5162 52.4381 28.2345 51.8909 28.2728 50.7971C28.311 49.7034 28.6305 49.1773 28.9688 48.6202C29.2983 48.0776 29.6371 47.5166 29.7357 46.4932C29.747 46.3756 29.7559 46.2534 29.7605 46.123C29.805 44.8566 29.4696 44.2059 29.1456 43.5767C28.8471 42.9974 28.5652 42.4503 28.6037 41.3566C28.6423 40.2628 28.9617 39.7368 29.2999 39.1798Z" fill="#E1D6EC"/>
<path d="M21.3383 21.7675C20.0827 21.7675 19.0649 23.8434 19.0649 25.099C19.0649 26.3545 20.0827 27.3723 21.3383 27.3723C22.5939 27.3723 23.6117 26.3545 23.6117 25.099C23.6117 23.8434 22.5937 21.7675 21.3383 21.7675Z" fill="#E1D6EC"/>
<path d="M21.5508 29.7825C21.9182 29.1774 22.2982 28.5518 22.3426 27.2854L22.3542 26.9549L20.3457 26.8845L20.358 27.2391C20.3963 28.3328 20.1145 28.8799 19.8161 29.4592C19.4919 30.0884 19.1567 30.7391 19.201 32.0054C19.2454 33.2718 19.6253 33.8975 19.9927 34.5025C20.331 35.0594 20.6505 35.5855 20.6887 36.6794C20.694 36.8281 20.6928 36.9659 20.687 37.0958C20.6498 37.9218 20.4047 38.3992 20.1468 38.8997C19.8226 39.5291 19.4875 40.1798 19.5317 41.4462C19.5761 42.7125 19.9561 43.3382 20.3235 43.9432C20.6611 44.4993 20.98 45.0245 21.0193 46.1143V46.1549L21.6808 46.1665C21.7252 44.9 21.3901 44.2493 21.0657 43.6201C20.7672 43.0408 20.4855 42.4935 20.5237 41.3998C20.562 40.306 20.8814 39.78 21.2198 39.2229C21.5493 38.6802 21.8881 38.1193 21.9866 37.0958C21.9979 36.9783 22.0069 36.8561 22.0115 36.7256C22.0559 35.4593 21.7206 34.8086 21.3966 34.1794C21.0981 33.6 20.8162 33.0528 20.8546 31.9592C20.8933 30.8657 21.2127 30.3396 21.5508 29.7825Z" fill="#E1D6EC"/>
</svg>
