<svg width="49" height="69" viewBox="0 0 49 69" fill="none" xmlns="http://www.w3.org/2000/svg">
<g clip-path="url(#clip0_906_691)">
<path d="M22.3463 7.13398C22.3463 7.13398 22.3581 7.1594 22.37 7.18482C22.37 7.18482 22.3779 7.20177 22.3818 7.21024C22.4281 7.35371 22.4286 7.48756 22.3958 7.61632C22.3494 7.78234 22.2324 7.9297 22.0714 8.00474C22.063 8.00869 22.046 8.01659 22.0291 8.02449C22.0121 8.03239 21.9952 8.04029 21.9867 8.04424C21.8218 8.11081 21.6337 8.10565 21.4807 8.04289C21.4807 8.04289 21.4807 8.04289 21.4767 8.03442C21.3485 7.98071 21.2463 7.89426 21.1786 7.77111L21.1628 7.73721C21.1549 7.72027 21.147 7.70332 21.1391 7.68637C21.0641 7.52538 21.0562 7.35369 21.1105 7.20461L21.119 7.20066C21.119 7.20066 21.1241 7.16734 21.1286 7.15492C21.1829 7.00584 21.2908 6.88333 21.4394 6.80376C21.4563 6.79586 21.4648 6.79191 21.4818 6.78401C21.4987 6.77611 21.5072 6.77216 21.5241 6.76426C21.6766 6.69317 21.8438 6.69776 21.9929 6.75204C22.0053 6.75656 22.0177 6.76109 22.0302 6.76561C22.0302 6.76561 22.0343 6.76712 22.0426 6.77013C22.1956 6.83289 22.3221 6.94929 22.3932 7.10181L22.3463 7.13398Z" fill="#96C720"/>
<path d="M19.9336 0.873468C22.6076 6.60991 20.4698 12.1138 18.7589 16.5421C18.5163 17.1502 18.2867 17.742 18.0871 18.3095C17.8429 18.9804 17.5161 19.7619 17.1757 20.5807C15.2784 25.0958 12.4104 31.9097 15.6966 38.9595L14.8323 39.3624C11.3684 31.9313 14.3308 24.8774 16.2909 20.2092C16.6267 19.4029 16.949 18.6338 17.1927 17.9838C17.4047 17.4208 17.6303 16.8206 17.8689 16.204C19.5165 11.9497 21.5774 6.65691 19.0732 1.28482L19.9375 0.881941L19.9336 0.873468Z" fill="#E1D6EC"/>
<path d="M21.789 0.00856386C24.8303 6.53302 22.4262 12.749 20.6582 17.2761C20.4241 17.8803 20.2036 18.4472 20.0085 19.0023C19.7462 19.7228 19.4064 20.5207 19.057 21.3643C17.1998 25.7886 14.645 31.8582 17.5481 38.0861L15.6924 38.9511C12.4062 31.9013 15.2742 25.0874 17.1716 20.5723C17.5119 19.7535 17.8426 18.9805 18.083 18.3012C18.2911 17.7297 18.5246 17.1464 18.7547 16.5337C20.4656 12.1055 22.6034 6.60153 19.9294 0.865091L21.785 9.05397e-05L21.789 0.00856386Z" fill="#E1D6EC"/>
<path d="M20.9247 0.41139C23.7962 6.5715 21.4695 12.5554 19.7682 16.9379C19.5342 17.5421 19.3007 18.1254 19.1056 18.6805C18.8477 19.3886 18.5209 20.1701 18.1761 21.0013C16.2516 25.591 13.6029 31.8797 16.6877 38.4974L15.6963 38.9595C12.4101 31.9097 15.2782 25.0958 17.1755 20.5807C17.5158 19.7619 17.8466 18.9889 18.0869 18.3096C18.295 17.7381 18.5285 17.1548 18.7586 16.5421C20.4695 12.1139 22.6073 6.60995 19.9333 0.873514L20.9247 0.41139Z" fill="#E1D6EC"/>
<path d="M21.8529 2.40264C21.8529 2.40264 21.8687 2.43653 21.8766 2.45348C21.8806 2.46195 21.8845 2.47043 21.8885 2.4789C21.9347 2.62237 21.9352 2.75622 21.894 2.88893C21.894 2.88893 21.8924 2.89307 21.8894 2.90135C21.843 3.06738 21.7261 3.21473 21.5651 3.28978C21.5651 3.28978 21.5481 3.29768 21.5312 3.30558C21.5142 3.31348 21.5058 3.31743 21.4888 3.32533C21.3239 3.3919 21.1358 3.38673 20.9828 3.32398C20.9828 3.32398 20.9786 3.32247 20.9704 3.31945C20.8422 3.26575 20.74 3.17929 20.6723 3.05614C20.6723 3.05614 20.6604 3.03072 20.6565 3.02225C20.6486 3.0053 20.6407 2.98835 20.6328 2.97141C20.5577 2.81041 20.5499 2.63872 20.6042 2.48964C20.6042 2.48964 20.6057 2.4855 20.6087 2.47722C20.6087 2.47722 20.6177 2.45237 20.6223 2.43995C20.6766 2.29087 20.7845 2.16836 20.933 2.08879L20.9415 2.08484C20.9415 2.08484 20.9669 2.07299 20.9754 2.06904C20.9839 2.0651 20.9924 2.06114 21.0093 2.05325L21.0178 2.0493C21.1703 1.9782 21.3375 1.98279 21.4865 2.03707L21.5238 2.05064C21.5238 2.05064 21.5238 2.05064 21.5362 2.05517C21.6893 2.11792 21.8157 2.23432 21.8868 2.38684L21.8529 2.40264Z" fill="#F7C23E"/>
<path d="M22.3464 7.13392C22.3464 7.13392 22.3582 7.15934 22.3701 7.18476C22.3701 7.18476 22.378 7.2017 22.3819 7.21018C22.4282 7.35365 22.4287 7.4875 22.3959 7.61626C22.3495 7.78228 22.2325 7.92964 22.0715 8.00468L14.0388 11.7491L13.4622 10.512L21.4949 6.76758C21.6474 6.69648 21.8146 6.70107 21.9636 6.75535C21.9761 6.75988 21.9885 6.7644 22.0009 6.76892C22.0009 6.76892 22.005 6.77043 22.0133 6.77345C22.1664 6.8362 22.2928 6.9526 22.3639 7.10512L22.3464 7.13392Z" fill="#662658"/>
<path d="M6.56035 14.4924C6.79774 14.0723 7.07519 13.716 7.35265 13.3598C7.7249 13.2069 13.8432 10.3343 13.8432 10.3343C14.286 10.3548 14.7372 10.3714 15.2161 10.4472C14.9663 10.8628 14.6973 11.2151 14.4199 11.5714C14.4199 11.5714 8.29367 14.4271 7.92932 14.5969C7.48654 14.5764 7.03925 14.5683 6.55245 14.4754L6.56035 14.4924Z" fill="#E1D6EC"/>
<path opacity="0.3" d="M22.3462 7.13398C22.3462 7.13398 22.3581 7.1594 22.3699 7.18482L6.59261 14.5393L6.36353 14.0479L21.9544 6.78027C21.9544 6.78027 21.9793 6.78931 21.9917 6.79384C21.9917 6.79384 21.9959 6.79534 22.0041 6.79836C22.1572 6.86112 22.2836 6.97751 22.3547 7.13003L22.3462 7.13398Z" fill="white"/>
<path opacity="0.2" d="M22.3789 7.62423C22.3325 7.79025 22.2155 7.93761 22.0545 8.01266C22.0461 8.01661 22.0291 8.0245 22.0122 8.0324L6.85338 15.0986L6.75464 14.8867L22.371 7.60728L22.3789 7.62423Z" fill="black"/>
<path d="M12.0321 6.22765L3.11816 10.3828L3.69483 11.6199L12.6088 7.46475L12.0321 6.22765Z" fill="#E1D6EC"/>
<path d="M21.8529 2.40256C21.8529 2.40256 21.8687 2.43646 21.8766 2.4534C21.8806 2.46188 21.8845 2.47035 21.8885 2.47882C21.9347 2.62229 21.9352 2.75615 21.8939 2.88885C21.8939 2.88885 21.8924 2.89299 21.8894 2.90127C21.843 3.0673 21.7261 3.21465 21.5651 3.2897L12.4986 7.51596C12.4986 7.51596 12.4986 7.51596 12.4901 7.51991C12.4314 7.52666 12.1885 7.53672 11.8915 7.54111C11.5859 7.54945 11.2346 7.54817 10.959 7.53224C10.9172 7.53109 10.8839 7.52599 10.8506 7.5209C11.0331 7.27078 11.3399 6.91115 11.5773 6.64581C11.7327 6.47023 11.8575 6.33982 11.905 6.28675C11.9219 6.27885 11.9265 6.26643 11.9265 6.26643L20.9082 2.07967C20.9082 2.07967 20.9121 2.08814 20.9206 2.08419L20.9969 2.04864C21.1494 1.97755 21.3166 1.98214 21.4656 2.03642L21.5029 2.04999C21.5029 2.04999 21.5029 2.04999 21.5153 2.05452C21.6684 2.11727 21.7948 2.23367 21.8659 2.38619L21.8529 2.40256Z" fill="#662658"/>
<path opacity="0.3" d="M21.5024 2.07095C21.6554 2.1337 21.7819 2.2501 21.853 2.40262C21.8609 2.41957 21.8688 2.43652 21.8767 2.45346L3.43026 11.0521L3.20117 10.5607L21.4527 2.05285L21.49 2.06642C21.49 2.06642 21.49 2.06642 21.5024 2.07095Z" fill="white"/>
<path opacity="0.2" d="M21.8856 2.89282C21.8856 2.89282 21.8856 2.89282 21.881 2.90524C21.8347 3.07126 21.7177 3.21862 21.5567 3.29367L3.69494 11.6198L3.59619 11.408L21.8816 2.88434L21.8856 2.89282Z" fill="black"/>
<path d="M21.312 12.5051C21.312 12.5051 21.3278 12.539 21.3357 12.5559C21.3357 12.5559 21.3436 12.5729 21.3475 12.5814C21.3938 12.7248 21.3943 12.8587 21.3615 12.9874C21.3615 12.9874 21.36 12.9916 21.357 12.9999C21.3106 13.1659 21.1936 13.3132 21.0326 13.3883C21.0326 13.3883 21.0157 13.3962 20.9987 13.4041C20.9902 13.408 20.9733 13.4159 20.9648 13.4199L20.9563 13.4238C20.7914 13.4904 20.6033 13.4852 20.4503 13.4225C20.4503 13.4225 20.4462 13.421 20.4379 13.418C20.3137 13.3727 20.2075 13.2778 20.1398 13.1547C20.1398 13.1547 20.128 13.1292 20.124 13.1208C20.1161 13.1038 20.1082 13.0869 20.1003 13.0699C20.0253 12.9089 20.0174 12.7372 20.0717 12.5882C20.0717 12.5882 20.0732 12.584 20.0762 12.5757L20.0898 12.5385C20.1441 12.3894 20.252 12.2669 20.4006 12.1873C20.4175 12.1794 20.4345 12.1715 20.4429 12.1676C20.4514 12.1636 20.4768 12.1518 20.4853 12.1478C20.6378 12.0767 20.805 12.0813 20.9541 12.1356C20.9665 12.1401 20.9789 12.1446 20.9913 12.1492C20.9913 12.1492 20.9955 12.1507 21.0038 12.1537C21.1568 12.2164 21.2833 12.3328 21.3544 12.4854L21.312 12.5051Z" fill="#795E81"/>
<path d="M15.8042 14.3196L10.8643 16.6223L11.4409 17.8594L16.3809 15.5567L15.8042 14.3196Z" fill="#E1D6EC"/>
<path d="M21.3122 12.5051C21.3122 12.5051 21.328 12.539 21.3359 12.5559C21.3359 12.5559 21.3438 12.5729 21.3477 12.5813C21.394 12.7248 21.3945 12.8586 21.3617 12.9874C21.3617 12.9874 21.3602 12.9915 21.3572 12.9998C21.3108 13.1658 21.1938 13.3132 21.0328 13.3883L16.1522 15.6633C16.1189 15.6582 15.9692 15.6248 15.7862 15.5864C15.6033 15.5479 15.3876 15.4834 15.2012 15.4155C15.1764 15.4065 15.147 15.4099 15.1267 15.3884C15.1951 15.1812 15.324 14.9045 15.4382 14.7069C15.5049 14.5623 15.558 14.455 15.5795 14.4347L20.4177 12.1794C20.4347 12.1715 20.4516 12.1636 20.4601 12.1596C20.6126 12.0885 20.7798 12.0931 20.9289 12.1474C20.9413 12.1519 20.9537 12.1564 20.9661 12.161C20.9661 12.161 20.9703 12.1625 20.9786 12.1655C21.1316 12.2282 21.258 12.3446 21.3291 12.4972L21.3122 12.5051Z" fill="#662658"/>
<path opacity="0.3" d="M20.9701 12.1695C21.1231 12.2323 21.2495 12.3487 21.3206 12.5012C21.3285 12.5181 21.3364 12.5351 21.3443 12.552L11.1764 17.2917L10.9473 16.8003L20.9119 12.1554C20.9119 12.1554 20.9367 12.1644 20.9492 12.1689C20.9492 12.1689 20.9533 12.1704 20.9616 12.1735L20.9701 12.1695Z" fill="#662658"/>
<path opacity="0.2" d="M21.349 12.9829C21.349 12.9829 21.349 12.9829 21.3445 12.9953C21.2981 13.1613 21.1812 13.3087 21.0202 13.3837L11.4368 17.8509L11.342 17.6476L21.3406 12.9868L21.349 12.9829Z" fill="black"/>
<path d="M15.319 31.5337C15.319 31.5337 15.3427 31.5846 15.3461 31.6139C15.3923 31.7574 15.3929 31.8913 15.36 32.02C15.36 32.02 15.3585 32.0242 15.3555 32.0324C15.3091 32.1985 15.1922 32.3458 15.0312 32.4209C15.0227 32.4248 15.0058 32.4327 14.9888 32.4406C14.9719 32.4485 14.9549 32.4564 14.9464 32.4604C14.7815 32.5269 14.5934 32.5218 14.4404 32.459C14.4404 32.459 14.4363 32.4575 14.428 32.4545C14.3037 32.4093 14.1976 32.3143 14.1214 32.1951C14.1214 32.1951 14.0853 32.1398 14.0734 32.1144C13.9984 31.9534 13.9906 31.7817 14.0449 31.6326C14.0449 31.6326 14.0464 31.6284 14.0494 31.6202C14.0997 31.4626 14.2167 31.3153 14.3737 31.2317C14.3907 31.2238 14.4076 31.2159 14.4161 31.212C14.4246 31.208 14.45 31.1962 14.4585 31.1922C14.6194 31.1172 14.8075 31.1224 14.9645 31.1936C14.9645 31.1936 14.9686 31.1951 14.9769 31.1981C15.1299 31.2609 15.2564 31.3773 15.3275 31.5298L15.319 31.5337Z" fill="#F7C23E"/>
<path d="M22.5211 27.4236L23.0977 28.6607L14.9379 32.4643C14.773 32.5309 14.5849 32.5257 14.4319 32.463C14.4319 32.463 14.4278 32.4615 14.4195 32.4585C14.2952 32.4132 14.1891 32.3183 14.1129 32.1991C14.1129 32.1991 14.0768 32.1437 14.0649 32.1183C13.9899 31.9573 13.9821 31.7856 14.0363 31.6365C14.0363 31.6365 14.0379 31.6324 14.0409 31.6241C14.0912 31.4666 14.2082 31.3192 14.3652 31.2357L22.525 27.4321L22.5211 27.4236Z" fill="#633567"/>
<path d="M29.9778 24.7006C29.9778 24.7006 29.9168 24.7909 29.8902 24.8446C29.7761 25.0422 29.6195 25.2596 29.4805 25.4481C29.3155 25.6695 29.1895 25.8417 29.1895 25.8417L23.1056 28.6776L22.695 28.8587C22.695 28.8587 22.486 28.853 22.2228 28.8416C21.989 28.8268 21.7219 28.8069 21.4971 28.7673C21.4344 28.7656 21.3802 28.7599 21.3305 28.7418C21.4492 28.5317 21.6623 28.2365 21.8357 28.0112C21.9923 27.7938 22.1307 27.6261 22.1307 27.6261L28.6213 24.6006C28.6213 24.6006 28.8263 24.5979 29.1143 24.6183C29.4024 24.6388 29.7446 24.6649 29.9903 24.7051L29.9778 24.7006Z" fill="#EAE2F2"/>
<path opacity="0.3" d="M29.7842 24.2854L30.0133 24.7769L14.1089 32.1906C14.1089 32.1906 14.0728 32.1353 14.0609 32.1098C13.9859 31.9489 13.978 31.7772 14.0323 31.6281L29.7842 24.2854Z" fill="white"/>
<path opacity="0.2" d="M30.1714 25.1158L30.2702 25.3276L23.1017 28.6691L15.0227 32.4248C15.0142 32.4287 14.9973 32.4366 14.9803 32.4445C14.9634 32.4524 14.9464 32.4603 14.938 32.4643C14.773 32.5309 14.585 32.5257 14.4319 32.4629L30.1754 25.1243L30.1714 25.1158Z" fill="black"/>
<path d="M15.9649 36.194C15.9649 36.194 15.9886 36.2448 15.992 36.2742C16.0428 36.4052 16.0388 36.5515 16.0059 36.6803C15.9635 36.8548 15.8465 37.0021 15.681 37.0896C15.681 37.0896 15.6641 37.0975 15.6471 37.1054C15.6302 37.1133 15.6217 37.1172 15.6048 37.1251C15.4313 37.1957 15.2478 37.1781 15.0863 37.1193C14.9581 37.0656 14.852 36.9706 14.7843 36.8475C14.7639 36.826 14.7521 36.8006 14.7402 36.7752C14.6652 36.6142 14.6619 36.4301 14.7122 36.2725C14.7625 36.115 14.8795 35.9676 15.0366 35.8841C15.0366 35.8841 15.062 35.8722 15.0789 35.8643C15.0959 35.8564 15.1044 35.8525 15.1128 35.8485C15.2738 35.7735 15.4619 35.7787 15.6189 35.8499C15.7719 35.9126 15.9068 36.0251 15.9858 36.1946L15.9649 36.194Z" fill="#57739A"/>
<path d="M16.1243 26.2693C16.1243 26.2693 16.148 26.3201 16.1514 26.3495C16.2022 26.4806 16.1981 26.6268 16.1653 26.7556C16.1229 26.9301 16.0059 27.0774 15.8365 27.1564C15.828 27.1604 15.811 27.1683 15.7941 27.1762C15.7771 27.1841 15.7602 27.192 15.7517 27.1959C15.5783 27.2665 15.3863 27.2528 15.2333 27.1901C15.1051 27.1364 14.999 27.0414 14.9312 26.9183C14.9109 26.8968 14.8991 26.8714 14.8872 26.846C14.8122 26.685 14.8089 26.5009 14.8592 26.3433C14.9095 26.1858 15.0265 26.0384 15.1835 25.9549C15.2005 25.947 15.209 25.943 15.2259 25.9351C15.2428 25.9272 15.2513 25.9233 15.2683 25.9154C15.4293 25.8403 15.6173 25.8455 15.7743 25.9167C15.9273 25.9795 16.0623 26.0919 16.1413 26.2614L16.1243 26.2693Z" fill="#96C720"/>
<path d="M32.8348 27.5771L23.9209 31.7323L24.4976 32.9694L33.4115 28.8142L32.8348 27.5771Z" fill="#EAE2F2"/>
<path d="M25.7007 31.6557C25.7007 31.6557 25.6396 31.746 25.6006 31.7951C25.4317 32.008 25.2237 32.2699 25.0299 32.4737C24.857 32.6781 24.6977 32.8452 24.6502 32.8983C24.6333 32.9062 24.6287 32.9186 24.6287 32.9186L15.6724 37.0935L15.5838 37.1245C15.4103 37.195 15.2268 37.1775 15.0653 37.1187C14.9371 37.0649 14.831 36.97 14.7633 36.8469C14.7429 36.8254 14.7311 36.8 14.7192 36.7746C14.6442 36.6136 14.6409 36.4294 14.6912 36.2719C14.7416 36.1143 14.8585 35.967 15.0156 35.8835L24.0481 31.673C24.0481 31.673 24.0481 31.673 24.0566 31.6691C24.1069 31.6663 24.3413 31.6601 24.622 31.6428C24.9693 31.6356 25.4002 31.6307 25.7007 31.6557Z" fill="#633567"/>
<path opacity="0.3" d="M32.9382 27.7766L33.1673 28.268L14.7632 36.8469C14.7632 36.8469 14.7311 36.8 14.7192 36.7746C14.6442 36.6136 14.6409 36.4295 14.6912 36.272L32.9427 27.7641L32.9382 27.7766Z" fill="white"/>
<path opacity="0.2" d="M33.3254 28.6069L33.4202 28.8102L15.5839 37.1245C15.4105 37.195 15.2269 37.1775 15.0654 37.1187L33.317 28.6108L33.3254 28.6069Z" fill="black"/>
<path d="M25.0889 21.3375L20.1489 23.6403L20.7256 24.8774L25.6655 22.5746L25.0889 21.3375Z" fill="#EAE2F2"/>
<path d="M21.4288 23.7967C21.4288 23.7967 21.4016 23.8712 21.3881 23.9085C21.3202 24.0949 21.2445 24.2643 21.1648 24.4252C21.1032 24.5364 21.0416 24.6476 20.9799 24.7589C20.8698 24.8102 19.7259 25.3434 18.4718 25.928L15.7434 27.1998C15.57 27.2704 15.378 27.2567 15.225 27.194C15.0968 27.1403 14.9907 27.0453 14.9229 26.9222C14.9026 26.9007 14.8908 26.8753 14.8789 26.8499C14.8039 26.6889 14.8006 26.5048 14.8509 26.3472C14.9012 26.1897 15.0182 26.0423 15.1752 25.9588L15.26 25.9193C16.8191 25.1925 20.2253 23.6047 20.4117 23.5178C20.5366 23.5422 20.6529 23.5705 20.7777 23.5948C20.9979 23.6468 21.2097 23.7029 21.4497 23.7973L21.4288 23.7967Z" fill="#662658"/>
<path opacity="0.3" d="M25.1923 21.537L25.4214 22.0285L14.9229 26.9222C14.9229 26.9222 14.8907 26.8754 14.8789 26.8499C14.8038 26.6889 14.8005 26.5048 14.8509 26.3473L25.1968 21.5246L25.1923 21.537Z" fill="white"/>
<path opacity="0.2" d="M25.5793 22.3673L25.674 22.5707L15.7433 27.1998C15.5699 27.2704 15.3779 27.2567 15.2249 27.194L25.5793 22.3673Z" fill="black"/>
<path d="M35.6132 29.6652L34.749 30.0681C31.4627 23.0183 24.4 20.8335 19.7221 19.3834C18.8762 19.1176 18.0715 18.8739 17.3967 18.6211C16.8252 18.413 16.2283 18.2168 15.6111 17.9991C11.1235 16.4706 5.53362 14.5688 2.85962 8.8324L3.7239 8.42952C6.22806 13.8016 11.6068 15.6265 15.9244 17.1001C16.554 17.3223 17.1633 17.5231 17.7224 17.7267C18.3768 17.9579 19.1646 18.2096 20.0066 18.4669C24.8421 19.9674 32.1493 22.2341 35.6132 29.6652Z" fill="#662658"/>
<path d="M34.7491 30.068L32.8935 30.933C29.9904 24.7051 23.7076 22.755 19.1165 21.3366C18.2458 21.0617 17.4162 20.8089 16.6957 20.5466C16.1491 20.3475 15.5607 20.1474 14.9559 19.9342C10.352 18.3774 4.04548 16.2217 1.00415 9.69727L2.85981 8.83226C5.53381 14.5687 11.1237 16.4705 15.6152 18.0074C16.237 18.2127 16.8378 18.4174 17.4008 18.6295C18.0716 18.8737 18.8803 19.126 19.7262 19.3918C24.4042 20.8419 31.4669 23.0266 34.7531 30.0765L34.7491 30.068Z" fill="#662658"/>
<path d="M34.7489 30.068L33.7575 30.5301C30.6727 23.9125 24.1533 21.8974 19.4008 20.4201C18.5339 20.1538 17.7253 19.9015 17.0257 19.6397C16.479 19.4407 15.8822 19.2445 15.265 19.0268C10.827 17.5163 4.73965 15.4545 1.86816 9.29443L2.85954 8.83231C5.53354 14.5688 11.1234 16.4705 15.615 18.0075C16.2367 18.2128 16.8375 18.4175 17.4005 18.6295C18.0714 18.8738 18.88 19.126 19.726 19.3918C24.4039 20.8419 31.4666 23.0267 34.7528 30.0765L34.7489 30.068Z" fill="#662658"/>
<path d="M36.1705 36.7907C36.1705 36.7907 36.1863 36.8246 36.1942 36.8415C36.1942 36.8415 36.2021 36.8585 36.206 36.8669C36.2523 37.0104 36.2528 37.1443 36.22 37.273C36.1736 37.439 36.0566 37.5864 35.8956 37.6614C35.8871 37.6654 35.8702 37.6733 35.8532 37.6812C35.8363 37.6891 35.8193 37.697 35.8109 37.7009C35.6459 37.7675 35.4579 37.7623 35.3048 37.6996C35.3048 37.6996 35.3048 37.6996 35.3009 37.6911C35.1767 37.6459 35.0705 37.5509 35.0067 37.4363L34.9909 37.4024C34.983 37.3854 34.9751 37.3685 34.9672 37.3515C34.8922 37.1905 34.8844 37.0188 34.9387 36.8698C34.9387 36.8698 34.9402 36.8656 34.9432 36.8573C34.9432 36.8573 34.9522 36.8325 34.9567 36.8201C35.011 36.671 35.119 36.5485 35.2675 36.4689C35.2845 36.461 35.2929 36.4571 35.3099 36.4492C35.3268 36.4413 35.3353 36.4373 35.3523 36.4294C35.5048 36.3583 35.6719 36.3629 35.821 36.4172C35.8334 36.4217 35.8459 36.4262 35.8583 36.4308C35.8583 36.4308 35.8624 36.4323 35.8707 36.4353C36.0237 36.4981 36.1502 36.6144 36.2213 36.767L36.1705 36.7907Z" fill="#96C720"/>
<path d="M33.7575 30.5302C36.4315 36.2666 34.2937 41.7706 32.5828 46.1988C32.3403 46.807 32.1107 47.3988 31.9111 47.9663C31.6668 48.6371 31.3401 49.4186 30.9997 50.2374C29.1024 54.7525 26.2344 61.5664 29.5206 68.6162L28.6563 69.0191C25.1923 61.588 28.1548 54.5341 30.1149 49.866C30.4507 49.0596 30.773 48.2905 31.0167 47.6406C31.2287 47.0776 31.4543 46.4773 31.6929 45.8607C33.3405 41.6064 35.4014 36.3136 32.8972 30.9416L33.7615 30.5387L33.7575 30.5302Z" fill="#633567"/>
<path d="M35.6132 29.6652C38.6545 36.1896 36.2465 42.3972 34.4824 46.9327C34.2484 47.5369 34.0279 48.1038 33.8328 48.6589C33.5704 49.3795 33.2306 50.1773 32.8812 51.021C31.024 55.4452 28.4692 61.5148 31.3723 67.7427L29.5166 68.6077C26.2304 61.5579 29.0985 54.744 30.9958 50.2289C31.3361 49.4101 31.6669 48.6371 31.9072 47.9578C32.1153 47.3863 32.3488 46.803 32.5789 46.1903C34.2898 41.7621 36.4276 36.2581 33.7536 30.5217L35.6093 29.6567L35.6132 29.6652Z" fill="#633567"/>
<path d="M34.7491 30.068C37.6206 36.2281 35.294 42.212 33.5927 46.5945C33.3586 47.1987 33.1251 47.782 32.93 48.3371C32.6722 49.0452 32.3454 49.8267 32.0005 50.658C30.0761 55.2476 27.4274 61.5364 30.5122 68.154L29.5208 68.6162C26.2346 61.5664 29.1026 54.7524 30.9999 50.2373C31.3403 49.4186 31.671 48.6455 31.9113 47.9662C32.1194 47.3947 32.3529 46.8114 32.5831 46.1987C34.294 41.7705 36.4317 36.2666 33.7578 30.5301L34.7491 30.068Z" fill="#662658"/>
<path d="M29.1432 61.1904C29.1432 61.1904 29.1669 61.2412 29.1703 61.2706C29.2166 61.414 29.2171 61.5479 29.1843 61.6766C29.1843 61.6766 29.1828 61.6808 29.1797 61.6891C29.1334 61.8551 29.0164 62.0024 28.8554 62.0775C28.8469 62.0814 28.83 62.0893 28.813 62.0972C28.7961 62.1051 28.7791 62.113 28.7707 62.117C28.6057 62.1836 28.4176 62.1784 28.2646 62.1156C28.2646 62.1156 28.2605 62.1141 28.2522 62.1111C28.124 62.0574 28.0218 61.971 27.9456 61.8518C27.9456 61.8518 27.9095 61.7964 27.8977 61.771C27.8226 61.61 27.8148 61.4383 27.8691 61.2892C27.8691 61.2892 27.8706 61.2851 27.8736 61.2768C27.9239 61.1192 28.0409 60.9719 28.1979 60.8884C28.2149 60.8805 28.2318 60.8726 28.2403 60.8686C28.2488 60.8647 28.2742 60.8528 28.2827 60.8489C28.4437 60.7738 28.6317 60.779 28.7887 60.8502C28.7887 60.8502 28.7929 60.8517 28.8011 60.8547C28.9542 60.9175 29.0806 61.0339 29.1517 61.1864L29.1432 61.1904Z" fill="#F7C23E"/>
<path d="M36.3453 57.0802L36.922 58.3173L28.7622 62.1209C28.5972 62.1875 28.4091 62.1824 28.2561 62.1196C28.2561 62.1196 28.252 62.1181 28.2437 62.1151C28.1155 62.0614 28.0133 61.9749 27.9371 61.8557C27.9371 61.8557 27.901 61.8003 27.8892 61.7749C27.8141 61.6139 27.8063 61.4422 27.8606 61.2932C27.8606 61.2932 27.8621 61.289 27.8651 61.2807C27.9154 61.1232 28.0324 60.9758 28.1894 60.8923L36.3492 57.0887L36.3453 57.0802Z" fill="#E1D6EC"/>
<path d="M43.8021 54.3573C43.8021 54.3573 43.7411 54.4476 43.7145 54.5012C43.6003 54.6989 43.4438 54.9162 43.3048 55.1048C43.1398 55.3261 43.0138 55.4983 43.0138 55.4983L36.9299 58.3343L36.5192 58.5154C36.5192 58.5154 36.3103 58.5097 36.0471 58.4982C35.8133 58.4835 35.5462 58.4636 35.3214 58.4239C35.2587 58.4222 35.2045 58.4166 35.1548 58.3985C35.2735 58.1884 35.4865 57.8931 35.66 57.6679C35.8165 57.4505 35.951 57.2743 35.951 57.2743L42.4416 54.2488C42.4416 54.2488 42.6466 54.2461 42.9386 54.275C43.2266 54.2955 43.5689 54.3216 43.8145 54.3618L43.8021 54.3573Z" fill="#642F61"/>
<path opacity="0.3" d="M43.6085 53.9421L43.8375 54.4335L27.9331 61.8472C27.9331 61.8472 27.897 61.7919 27.8851 61.7665C27.8101 61.6055 27.8023 61.4338 27.8565 61.2847L43.6085 53.9421Z" fill="#E1D6EC"/>
<path opacity="0.2" d="M43.9956 54.7725L44.0944 54.9843L36.9259 58.3258L28.8469 62.0815C28.8384 62.0854 28.8215 62.0933 28.8046 62.1012C28.7876 62.1091 28.7707 62.117 28.7622 62.121C28.5972 62.1875 28.4092 62.1824 28.2561 62.1196L43.9996 54.7809L43.9956 54.7725Z" fill="#642F61"/>
<path d="M29.7889 65.8506C29.7889 65.8506 29.8126 65.9014 29.816 65.9308C29.8667 66.0619 29.8627 66.2081 29.8299 66.3369C29.7875 66.5114 29.6705 66.6587 29.505 66.7462C29.505 66.7462 29.488 66.7541 29.4711 66.762C29.4542 66.7699 29.4457 66.7739 29.4287 66.7818C29.2553 66.8523 29.0757 66.8432 28.9103 66.7759C28.7821 66.7222 28.676 66.6272 28.6082 66.5041C28.5879 66.4826 28.5761 66.4572 28.5642 66.4318C28.4892 66.2708 28.4859 66.0867 28.5362 65.9291C28.5865 65.7716 28.7035 65.6242 28.8605 65.5407C28.8605 65.5407 28.886 65.5288 28.9029 65.5209C28.9199 65.513 28.9283 65.5091 28.9368 65.5051C29.0978 65.4301 29.2859 65.4353 29.4428 65.5065C29.5959 65.5692 29.7308 65.6817 29.8098 65.8512L29.7889 65.8506Z" fill="#57739A"/>
<path d="M29.9485 55.9259C29.9485 55.9259 29.9722 55.9768 29.9756 56.0061C30.0264 56.1372 30.0224 56.2835 29.9896 56.4122C29.9471 56.5867 29.8301 56.7341 29.6646 56.8215C29.6562 56.8255 29.6392 56.8334 29.6223 56.8413C29.6053 56.8492 29.5884 56.8571 29.5799 56.861C29.4065 56.9316 29.2145 56.9179 29.0575 56.8467C28.9293 56.793 28.8271 56.7065 28.7555 56.5749C28.7351 56.5534 28.7233 56.528 28.7114 56.5026C28.6364 56.3416 28.6331 56.1575 28.6834 55.9999C28.7337 55.8424 28.8507 55.695 29.0078 55.6115C29.0247 55.6036 29.0332 55.5996 29.0501 55.5917C29.0671 55.5839 29.0755 55.5799 29.0925 55.572C29.2535 55.497 29.4416 55.5021 29.5985 55.5734C29.7516 55.6361 29.8865 55.7486 29.9655 55.918L29.9485 55.9259Z" fill="#96C720"/>
<path d="M46.6591 57.2338L37.7451 61.389L38.3218 62.6261L47.2357 58.4709L46.6591 57.2338Z" fill="#642F61"/>
<path d="M39.5249 61.3123C39.5249 61.3123 39.4639 61.4027 39.4249 61.4518C39.2559 61.6646 39.048 61.9266 38.8541 62.1304C38.6812 62.3348 38.5219 62.5019 38.4744 62.5549C38.4575 62.5628 38.453 62.5753 38.453 62.5753L29.4967 66.7502L29.408 66.7812C29.2346 66.8517 29.055 66.8426 28.8895 66.7753C28.7613 66.7216 28.6552 66.6267 28.5875 66.5035C28.5672 66.4821 28.5553 66.4567 28.5435 66.4312C28.4684 66.2702 28.4651 66.0861 28.5154 65.9286C28.5658 65.771 28.6827 65.6237 28.8398 65.5401L37.8723 61.3297C37.8723 61.3297 37.8724 61.3297 37.8808 61.3257C37.9311 61.3229 38.1655 61.3168 38.4462 61.2994C38.7935 61.2922 39.2244 61.2873 39.5249 61.3123Z" fill="#E1D6EC"/>
<path opacity="0.3" d="M46.7624 57.4332L46.9915 57.9246L28.5875 66.5035C28.5875 66.5035 28.5553 66.4567 28.5434 66.4312C28.4684 66.2702 28.4651 66.0861 28.5154 65.9286L46.767 57.4208L46.7624 57.4332Z" fill="#642F61"/>
<path opacity="0.2" d="M47.1494 58.2636L47.2442 58.4669L29.4079 66.7812C29.2344 66.8517 29.0549 66.8426 28.8894 66.7753L47.1409 58.2675L47.1494 58.2636Z" fill="#E1D6EC"/>
<path d="M38.9131 50.9942L33.9731 53.2969L34.5498 54.534L39.4898 52.2313L38.9131 50.9942Z" fill="#642F61"/>
<path d="M35.253 53.4533C35.253 53.4533 35.2259 53.5279 35.2123 53.5651C35.1444 53.7515 35.0687 53.9209 34.989 54.0818C34.9274 54.193 34.8658 54.3043 34.8081 54.424C34.698 54.4753 33.5541 55.0085 32.3 55.5931L29.5716 56.8649C29.3982 56.9355 29.2062 56.9218 29.0492 56.8506C28.921 56.7969 28.8188 56.7104 28.7472 56.5788C28.7268 56.5573 28.715 56.5319 28.7031 56.5065C28.6281 56.3455 28.6248 56.1614 28.6751 56.0038C28.7254 55.8463 28.8424 55.6989 28.9995 55.6154L29.0842 55.5759C30.6433 54.8491 34.0496 53.2613 34.236 53.1744C34.3608 53.1988 34.4771 53.2271 34.6019 53.2514C34.8221 53.3035 35.0339 53.3595 35.2739 53.4539L35.253 53.4533Z" fill="#E1D6EC"/>
<path opacity="0.3" d="M39.0165 51.1936L39.2456 51.685L28.7471 56.5788C28.7471 56.5788 28.715 56.5319 28.7031 56.5065C28.6281 56.3455 28.6247 56.1614 28.6751 56.0038L39.021 51.1812L39.0165 51.1936Z" fill="#642F61"/>
<path opacity="0.2" d="M39.4035 52.024L39.5022 52.2358L29.5715 56.8649C29.3981 56.9355 29.206 56.9218 29.0491 56.8506L39.4035 52.024Z" fill="black"/>
<path d="M49.4375 59.3218L48.5732 59.7247C45.287 52.6749 38.2243 50.4901 33.5463 49.04C32.7004 48.7742 31.8957 48.5304 31.2209 48.2777C30.6495 48.0696 30.0526 47.8734 29.4354 47.6556C24.9438 46.1187 19.3539 44.2169 16.6799 38.4805L17.5442 38.0776C20.0444 43.4412 25.4271 45.2745 29.7447 46.7482C30.3743 46.9704 30.9836 47.1712 31.5427 47.3747C32.1971 47.606 32.9849 47.8577 33.8269 48.115C38.6624 49.6154 45.9696 51.8822 49.4335 59.3133L49.4375 59.3218Z" fill="#E1D6EC"/>
<path d="M48.5731 59.7247L46.7175 60.5897C43.8144 54.3618 37.5355 52.4203 32.9405 50.9933C32.0698 50.7185 31.2402 50.4657 30.5197 50.2033C29.9731 50.0043 29.3846 49.8041 28.7799 49.5909C24.172 48.0256 17.8695 45.8785 14.8281 39.354L16.6838 38.489C19.3578 44.2254 24.9477 46.1272 29.4392 47.6642C30.061 47.8695 30.6618 48.0742 31.2248 48.2862C31.8956 48.5305 32.7043 48.7827 33.5502 49.0485C38.2282 50.4986 45.2909 52.6834 48.5771 59.7332L48.5731 59.7247Z" fill="#E1D6EC"/>
<path d="M48.5731 59.7247L47.5818 60.1868C44.497 53.5691 37.9815 51.5625 33.225 50.0768C32.3582 49.8104 31.5496 49.5582 30.8499 49.2964C30.3033 49.0974 29.7064 48.9011 29.0892 48.6834C24.6473 47.1645 18.56 45.1027 15.6885 38.9426L16.6799 38.4805C19.3539 44.2169 24.9437 46.1187 29.4353 47.6557C30.057 47.861 30.6579 48.0657 31.2208 48.2777C31.8917 48.522 32.7003 48.7742 33.5463 49.04C38.2242 50.4901 45.2869 52.6749 48.5731 59.7247Z" fill="#E1D6EC"/>
<path d="M27.6714 39.9994L34.0434 37.0292C34.0496 37.1088 34.0394 37.1755 34.0331 37.2506C34.0274 37.4595 34.0007 37.6679 33.9826 37.8724C33.9616 38.0265 33.9446 38.1892 33.9236 38.3434C33.9129 38.4309 33.8936 38.5224 33.8913 38.606L27.8499 41.4222L27.2732 40.1851L27.6799 39.9955L27.6714 39.9994Z" fill="#E1D6EC"/>
<path d="M29.0399 40.1248C29.0399 40.1248 29.0048 40.1824 28.9873 40.2112C28.8472 40.4416 28.6906 40.659 28.5386 40.8639C28.4431 40.9909 28.3391 41.1219 28.2436 41.249L26.6083 42.0113L20.8718 44.6853C20.7108 44.7603 20.5273 44.7427 20.3618 44.6754C20.2291 44.6342 20.1315 44.5353 20.0677 44.4206C20.0677 44.4206 20.0519 44.3867 20.048 44.3782C20.0401 44.3613 20.0322 44.3443 20.0243 44.3274C19.9532 44.1749 19.9538 43.9992 19.9957 43.8456C19.9957 43.8456 19.993 43.84 19.9878 43.8287C19.9878 43.8287 19.9968 43.8038 20.0013 43.7914C20.0511 43.6548 20.1635 43.5198 20.3121 43.4403L21.1679 43.0413C21.1679 43.0413 21.1849 43.0334 21.1854 43.0125C21.5492 42.8636 27.676 39.987 27.676 39.987C27.8138 39.995 27.9601 39.999 28.0979 40.007C28.4029 40.0195 28.7157 40.049 29.0405 40.1039L29.0399 40.1248Z" fill="#633567"/>
<path opacity="0.3" d="M34.0331 37.2506C34.0274 37.4595 34.0008 37.6679 33.9826 37.8724L20.0355 44.3737C20.0355 44.3737 20.0197 44.3398 20.0118 44.3229C19.9407 44.1703 19.9414 43.9947 19.9832 43.8411C19.9832 43.8411 19.9806 43.8355 19.9753 43.8242C19.9753 43.8242 19.9844 43.7993 19.9889 43.7869L34.0292 37.2421L34.0331 37.2506Z" fill="#633567"/>
<path opacity="0.2" d="M33.9238 38.3433C33.913 38.4309 33.8938 38.5223 33.8915 38.6059L20.8764 44.6728C20.7154 44.7478 20.5319 44.7302 20.3665 44.663L33.9238 38.3433Z" fill="black"/>
<path d="M30.7539 44.2665C30.8132 44.3936 30.8803 44.5376 30.9068 44.6387C30.9582 44.7489 30.9683 44.837 30.9508 44.8658C30.8915 44.8934 30.5864 45.0356 30.1289 45.2489L25.7227 47.3028C25.5618 47.3778 25.3658 47.3557 25.2043 47.2969C25.0761 47.2432 24.97 47.1483 24.9023 47.0251C24.9023 47.0251 24.8944 47.0082 24.8904 46.9997C24.8825 46.9828 24.8746 46.9658 24.8667 46.9489C24.7917 46.7879 24.7883 46.6038 24.8387 46.4462L24.8523 46.4089C24.902 46.2723 25.0145 46.1374 25.163 46.0578L25.2478 46.0183C26.7984 45.2955 30.2047 43.7077 30.3911 43.6208C30.4244 43.6259 30.469 43.6773 30.5249 43.775C30.601 43.8942 30.6964 44.0767 30.7794 44.2546L30.7539 44.2665Z" fill="#633567"/>
<path d="M32.95 42.4279C32.9183 42.5149 32.8951 42.5979 32.8635 42.6848C32.7815 42.9293 32.704 43.1614 32.6181 43.3975C32.5547 43.5714 32.4908 43.7662 32.4151 43.9356C32.3828 44.0435 32.3512 44.1304 32.3065 44.2338L29.9679 45.3239C29.9679 45.3239 29.7934 45.2815 29.598 45.2385C29.4235 45.196 29.1953 45.127 29.0129 45.0676C28.9796 45.0626 28.9548 45.0535 28.9299 45.0445C28.9984 44.8372 29.1357 44.5566 29.2375 44.3544C29.3042 44.2099 29.3573 44.1026 29.3788 44.0823L32.9376 42.4234L32.95 42.4279Z" fill="#E1D6EC"/>
<path opacity="0.3" d="M32.8635 42.6849C32.7815 42.9294 32.704 43.1615 32.618 43.3975L24.8734 47.0076C24.8734 47.0076 24.8576 46.9737 24.8497 46.9568C24.7747 46.7958 24.7714 46.6117 24.8217 46.4541L24.8353 46.4168L32.868 42.6725L32.8635 42.6849Z" fill="#633567"/>
<path opacity="0.2" d="M32.4151 43.9357C32.3828 44.0436 32.3512 44.1305 32.3065 44.2339L25.7143 47.3068C25.5533 47.3818 25.3573 47.3597 25.1958 47.3009L32.4151 43.9357Z" fill="black"/>
<path d="M27.6914 35.7714C27.6914 35.7714 27.2891 36.2581 26.9823 36.6177C26.8139 36.8097 26.6754 36.9774 26.6364 37.0265L26.6195 37.0344L17.5869 41.2448C17.5869 41.2448 17.5446 41.2646 17.5276 41.2725C17.3717 41.3142 17.2091 41.2972 17.0809 41.2435L17.073 41.2265C16.9448 41.1728 16.8387 41.0779 16.7749 40.9632L16.767 40.9463C16.767 40.9463 16.7433 40.8954 16.7354 40.8785C16.6604 40.7175 16.661 40.5419 16.7074 40.3758C16.7492 40.2222 16.8623 40.0664 17.0193 39.9829L26.0603 35.7685C26.0603 35.7685 27.4249 35.7307 27.7084 35.7635L27.6914 35.7714Z" fill="#633567"/>
<path d="M26.0387 35.7888L33.4444 32.3367C33.4799 32.413 33.5036 32.4638 33.5059 32.535C33.5679 32.7124 33.6175 32.8852 33.6587 33.062C33.6886 33.1925 33.7224 33.3314 33.7523 33.4619C33.7669 33.5376 33.7816 33.6133 33.7962 33.689L26.6108 37.0384L26.3058 37.1806C26.2471 37.1873 26.0042 37.1974 25.7111 37.2102C25.4016 37.2101 25.0542 37.2173 24.7786 37.2014C24.7369 37.2002 24.7035 37.1951 24.6702 37.19C24.8612 36.9359 25.1511 36.5842 25.3929 36.3065C25.5483 36.1309 25.6693 35.992 25.7167 35.9389C25.7337 35.931 25.7421 35.9271 25.7421 35.9271L26.0472 35.7849L26.0387 35.7888Z" fill="#E1D6EC"/>
<path opacity="0.3" d="M33.5061 32.535C33.5682 32.7124 33.6178 32.8853 33.6589 33.062L16.7462 40.9458C16.7462 40.9458 16.7225 40.895 16.7146 40.878C16.6395 40.717 16.6441 40.5498 16.6905 40.3838L33.5101 32.5435L33.5061 32.535Z" fill="white"/>
<path opacity="0.2" d="M33.7609 33.458C33.7755 33.5337 33.7902 33.6094 33.8048 33.6851L17.5276 41.2726C17.3717 41.3143 17.209 41.2973 17.0809 41.2436L33.7733 33.4625L33.7609 33.458Z" fill="black"/>
</g>
<defs>
<clipPath id="clip0_906_691">
<rect width="22.9323" height="65.4408" fill="white" transform="translate(0 9.68884) rotate(-24.9922)"/>
</clipPath>
</defs>
</svg>
