<svg width="415" height="206" viewBox="0 0 415 206" fill="none" xmlns="http://www.w3.org/2000/svg">
<path d="M139.699 150L144.015 157.359L152.397 159.162L146.683 165.513L147.547 173.986L139.699 170.552L131.85 173.986L132.714 165.513L127 159.162L135.382 157.359L139.699 150Z" fill="#FFCB45"/>
<path d="M173.562 150L177.878 157.359L186.26 159.162L180.546 165.513L181.41 173.986L173.562 170.552L165.713 173.986L166.577 165.513L160.863 159.162L169.245 157.359L173.562 150Z" fill="#FFCB45"/>
<path d="M207.425 150L211.741 157.359L220.123 159.162L214.409 165.513L215.273 173.986L207.425 170.552L199.577 173.986L200.44 165.513L194.726 159.162L203.108 157.359L207.425 150Z" fill="#FFCB45"/>
<path d="M241.288 150L245.604 157.359L253.986 159.162L248.272 165.513L249.136 173.986L241.288 170.552L233.439 173.986L234.303 165.513L228.589 159.162L236.971 157.359L241.288 150Z" fill="#FFCB45"/>
<path d="M275.151 150L279.467 157.359L287.849 159.162L282.135 165.513L282.999 173.986L275.151 170.552L267.302 173.986L268.166 165.513L262.452 159.162L270.834 157.359L275.151 150Z" fill="#FFCB45"/>
<path d="M186.819 85.7172C186.819 99.3095 176.187 109.326 163.137 109.326C150.087 109.326 139.454 99.3095 139.454 85.7172C139.454 72.125 150.087 62.1084 163.137 62.1084C176.187 62.1084 186.819 72.0276 186.819 85.7172ZM176.453 85.7172C176.453 77.224 170.291 71.412 163.137 71.412C155.983 71.412 149.821 77.224 149.821 85.7172C149.821 94.2104 155.983 100.022 163.137 100.022C170.291 100.022 176.453 94.1157 176.453 85.7172Z" fill="#EA4335"/>
<path d="M237.91 85.7172C237.91 99.3095 227.278 109.326 214.228 109.326C201.177 109.326 190.545 99.3095 190.545 85.7172C190.545 72.125 201.177 62.1084 214.228 62.1084C227.278 62.1084 237.91 72.0276 237.91 85.7172ZM227.541 85.7172C227.541 77.224 221.379 71.412 214.225 71.412C207.071 71.412 200.909 77.224 200.909 85.7172C200.909 94.2104 207.071 100.022 214.225 100.022C221.379 100.022 227.541 94.1157 227.541 85.7172Z" fill="#FBBC05"/>
<path d="M286.87 63.5346V105.919C286.87 123.353 276.587 130.475 264.432 130.475C252.989 130.475 246.103 122.821 243.507 116.564L252.531 112.807C254.139 116.649 258.078 121.185 264.421 121.185C272.201 121.185 277.024 116.385 277.024 107.348V103.953H276.661C274.34 106.816 269.87 109.318 264.229 109.318C252.426 109.318 241.612 99.036 241.612 85.8068C241.612 72.5776 252.426 62.1138 264.229 62.1138C269.86 62.1138 274.33 64.6159 276.661 67.3944H277.024V63.553H286.87V63.5425V63.5346ZM277.761 85.8015C277.761 77.4899 272.214 71.4121 265.158 71.4121C258.101 71.4121 252.013 77.4899 252.013 85.8015C252.013 94.1132 258.007 100.023 265.158 100.023C272.309 100.023 277.761 94.029 277.761 85.8015Z" fill="#4285F4"/>
<path d="M303.104 38.6914V107.876H292.992V38.6914H303.104Z" fill="#34A853"/>
<path d="M342.507 93.4871L350.553 98.8519C347.956 102.693 341.696 109.316 330.882 109.316C317.472 109.316 307.455 98.9493 307.455 85.707C307.455 71.6674 317.556 62.0981 329.722 62.0981C341.888 62.0981 347.966 71.849 349.924 77.1164L351 79.7975L319.44 92.8688C321.855 97.6048 325.612 100.023 330.882 100.023C336.153 100.023 339.823 97.4259 342.507 93.4871ZM317.738 84.9913L338.834 76.2324C337.673 73.2829 334.182 71.2307 330.075 71.2307C324.807 71.2307 317.472 75.8825 317.738 84.9939V84.9913Z" fill="#EA4335"/>
<path d="M101.18 79.5736V69.557H134.932C135.261 71.3014 135.432 73.3668 135.432 75.6033C135.432 83.1177 133.377 92.4107 126.757 99.0306C120.319 105.737 112.089 109.313 101.191 109.313C80.989 109.313 64 92.858 64 72.6564C64 52.4549 80.9864 36 101.191 36C112.367 36 120.329 40.386 126.31 46.1008L119.243 53.1679C114.954 49.145 109.142 46.0166 101.18 46.0166C86.4275 46.0166 74.8901 57.9065 74.8901 72.6591C74.8901 87.4116 86.4275 99.3016 101.18 99.3016C110.749 99.3016 116.198 95.4602 119.69 91.9687C122.521 89.1376 124.384 85.0936 125.118 79.5683L101.18 79.5789V79.5736Z" fill="#4285F4"/>
</svg>
