<svg width="80" height="80" viewBox="0 0 80 80" fill="none" xmlns="http://www.w3.org/2000/svg">
<g clip-path="url(#clip0_77_3285)">
<path d="M33.3422 12.1256C33.3422 12.1256 33.3541 12.151 33.3659 12.1764C33.3659 12.1764 33.3738 12.1933 33.3778 12.2018C33.424 12.3453 33.4245 12.4791 33.3917 12.6079C33.3453 12.7739 33.2284 12.9213 33.0674 12.9963C33.0589 13.0003 33.0419 13.0082 33.025 13.0161C33.0081 13.024 32.9911 13.0319 32.9826 13.0358C32.8177 13.1024 32.6296 13.0972 32.4766 13.0345C32.4766 13.0345 32.4766 13.0345 32.4726 13.026C32.3445 12.9723 32.2423 12.8858 32.1746 12.7627L32.1588 12.7288C32.1509 12.7118 32.143 12.6949 32.1351 12.678C32.06 12.517 32.0522 12.3453 32.1065 12.1962L32.1149 12.1922C32.1149 12.1922 32.12 12.1589 32.1246 12.1465C32.1788 11.9974 32.2868 11.8749 32.4353 11.7953C32.4523 11.7874 32.4608 11.7835 32.4777 11.7756C32.4946 11.7677 32.5031 11.7637 32.5201 11.7558C32.6726 11.6847 32.8398 11.6893 32.9888 11.7436C33.0013 11.7481 33.0137 11.7527 33.0261 11.7572C33.0261 11.7572 33.0302 11.7587 33.0385 11.7617C33.1916 11.8245 33.318 11.9409 33.3891 12.0934L33.3422 12.1256Z" fill="#96C720"/>
<path d="M30.9294 5.86505C33.6034 11.6015 31.4656 17.1054 29.7547 21.5337C29.5122 22.1418 29.2826 22.7336 29.083 23.3011C28.8387 23.972 28.512 24.7535 28.1716 25.5722C26.2743 30.0874 23.4063 36.9013 26.6925 43.9511L25.8282 44.3539C22.3642 36.9228 25.3267 29.869 27.2868 25.2008C27.6226 24.3944 27.9449 23.6254 28.1886 22.9754C28.4006 22.4124 28.6262 21.8122 28.8648 21.1955C30.5124 16.9412 32.5733 11.6485 30.0691 6.2764L30.9334 5.87352L30.9294 5.86505Z" fill="#FFAB82"/>
<path d="M32.785 5.00014C35.8263 11.5246 33.4222 17.7406 31.6542 22.2676C31.4201 22.8719 31.1996 23.4388 31.0046 23.9939C30.7422 24.7144 30.4024 25.5123 30.053 26.3559C28.1958 30.7801 25.641 36.8498 28.5441 43.0777L26.6884 43.9427C23.4022 36.8929 26.2702 30.079 28.1676 25.5639C28.5079 24.7451 28.8386 23.9721 29.079 23.2927C29.2871 22.7213 29.5206 22.138 29.7507 21.5253C31.4616 17.097 33.5994 11.5931 30.9254 5.85667L32.781 4.99167L32.785 5.00014Z" fill="#F97B52"/>
<path d="M31.9208 5.40297C34.7922 11.5631 32.4656 17.547 30.7643 21.9295C30.5303 22.5337 30.2967 23.117 30.1017 23.6721C29.8438 24.3802 29.517 25.1617 29.1722 25.9929C27.2477 30.5826 24.599 36.8713 27.6838 43.489L26.6924 43.9511C23.4062 36.9013 26.2742 30.0874 28.1716 25.5723C28.5119 24.7535 28.8426 23.9805 29.083 23.3012C29.2911 22.7297 29.5246 22.1464 29.7547 21.5337C31.4656 17.1055 33.6034 11.6015 30.9294 5.86509L31.9208 5.40297Z" fill="#F94910"/>
<path d="M32.849 7.39422C32.849 7.39422 32.8648 7.42811 32.8727 7.44506C32.8766 7.45353 32.8806 7.462 32.8845 7.47048C32.9308 7.61395 32.9313 7.7478 32.89 7.88051C32.89 7.88051 32.8885 7.88465 32.8855 7.89293C32.8391 8.05895 32.7221 8.20631 32.5611 8.28135C32.5611 8.28135 32.5442 8.28925 32.5272 8.29715C32.5103 8.30505 32.5018 8.309 32.4849 8.3169C32.3199 8.38347 32.1319 8.37831 31.9788 8.31555C31.9788 8.31555 31.9747 8.31405 31.9664 8.31103C31.8382 8.25732 31.7361 8.17087 31.6683 8.04772C31.6683 8.04772 31.6565 8.0223 31.6525 8.01382C31.6446 7.99688 31.6367 7.97993 31.6288 7.96298C31.5538 7.80199 31.546 7.6303 31.6002 7.48122C31.6002 7.48122 31.6017 7.47708 31.6048 7.4688C31.6048 7.4688 31.6138 7.44395 31.6183 7.43153C31.6726 7.28245 31.7805 7.15994 31.9291 7.08037L31.9376 7.07642C31.9376 7.07642 31.963 7.06457 31.9715 7.06062C31.98 7.05667 31.9884 7.05272 32.0054 7.04482L32.0138 7.04087C32.1664 6.96978 32.3335 6.97437 32.4826 7.02865L32.5199 7.04222C32.5199 7.04222 32.5199 7.04222 32.5323 7.04674C32.6853 7.1095 32.8118 7.2259 32.8829 7.37842L32.849 7.39422Z" fill="#F7C23E"/>
<path d="M33.3422 12.1255C33.3422 12.1255 33.3541 12.1509 33.3659 12.1763C33.3659 12.1763 33.3738 12.1933 33.3778 12.2018C33.424 12.3452 33.4245 12.4791 33.3917 12.6078C33.3454 12.7739 33.2284 12.9212 33.0674 12.9963L25.0347 16.7406L24.458 15.5035L32.4907 11.7592C32.6432 11.6881 32.8104 11.6926 32.9595 11.7469C32.9719 11.7515 32.9843 11.756 32.9968 11.7605C32.9968 11.7605 33.0009 11.762 33.0092 11.765C33.1622 11.8278 33.2887 11.9442 33.3598 12.0967L33.3422 12.1255Z" fill="#96C720"/>
<path d="M17.5564 19.484C17.7938 19.0639 18.0713 18.7076 18.3487 18.3514C18.721 18.1985 24.8393 15.3258 24.8393 15.3258C25.2821 15.3464 25.7333 15.3629 26.2122 15.4388C25.9624 15.8544 25.6934 16.2067 25.4159 16.5629C25.4159 16.5629 19.2897 19.4186 18.9254 19.5885C18.4826 19.5679 18.0353 19.5598 17.5485 19.467L17.5564 19.484Z" fill="#57739A"/>
<path opacity="0.3" d="M33.3422 12.1256C33.3422 12.1256 33.3541 12.151 33.3659 12.1764L17.5886 19.5309L17.3595 19.0394L32.9504 11.7718C32.9504 11.7718 32.9753 11.7809 32.9877 11.7854C32.9877 11.7854 32.9919 11.7869 33.0001 11.7899C33.1532 11.8527 33.2796 11.9691 33.3507 12.1216L33.3422 12.1256Z" fill="white"/>
<path opacity="0.2" d="M33.3748 12.6158C33.3284 12.7818 33.2114 12.9292 33.0504 13.0042C33.0419 13.0082 33.025 13.0161 33.008 13.024L17.8493 20.0901L17.7505 19.8783L33.3669 12.5989L33.3748 12.6158Z" fill="black"/>
<path d="M23.0281 11.2192L14.1142 15.3744L14.6909 16.6115L23.6048 12.4563L23.0281 11.2192Z" fill="#795E81"/>
<path d="M32.849 7.39414C32.849 7.39414 32.8648 7.42803 32.8727 7.44498C32.8767 7.45345 32.8806 7.46193 32.8846 7.4704C32.9308 7.61387 32.9313 7.74772 32.89 7.88043C32.89 7.88043 32.8885 7.88457 32.8855 7.89285C32.8391 8.05888 32.7221 8.20623 32.5612 8.28128L23.4947 12.5075C23.4947 12.5075 23.4947 12.5075 23.4862 12.5115C23.4275 12.5182 23.1846 12.5283 22.8876 12.5327C22.582 12.541 22.2307 12.5397 21.9551 12.5238C21.9133 12.5227 21.88 12.5176 21.8467 12.5125C22.0292 12.2624 22.336 11.9027 22.5734 11.6374C22.7287 11.4618 22.8536 11.3314 22.9011 11.2783C22.918 11.2704 22.9226 11.258 22.9226 11.258L31.9043 7.07125C31.9043 7.07125 31.9082 7.07972 31.9167 7.07577L31.993 7.04022C32.1455 6.96913 32.3127 6.97372 32.4617 7.028L32.499 7.04157C32.499 7.04157 32.499 7.04157 32.5114 7.04609C32.6644 7.10885 32.7909 7.22525 32.862 7.37777L32.849 7.39414Z" fill="#F7C23E"/>
<path opacity="0.3" d="M32.4984 7.06253C32.6514 7.12528 32.7779 7.24168 32.849 7.3942C32.8569 7.41115 32.8648 7.42809 32.8727 7.44504L14.4263 16.0437L14.1972 15.5522L32.4487 7.04443L32.486 7.058C32.486 7.058 32.486 7.058 32.4984 7.06253Z" fill="white"/>
<path opacity="0.2" d="M32.8815 7.8844C32.8815 7.8844 32.8815 7.8844 32.877 7.89682C32.8306 8.06284 32.7136 8.2102 32.5526 8.28524L14.6909 16.6114L14.5921 16.3995L32.8776 7.87592L32.8815 7.8844Z" fill="black"/>
<path d="M32.3081 17.4967C32.3081 17.4967 32.3238 17.5306 32.3317 17.5475C32.3317 17.5475 32.3396 17.5645 32.3436 17.5729C32.3898 17.7164 32.3904 17.8503 32.3575 17.979C32.3575 17.979 32.356 17.9832 32.353 17.9914C32.3066 18.1575 32.1897 18.3048 32.0287 18.3799C32.0287 18.3799 32.0117 18.3878 31.9948 18.3957C31.9863 18.3996 31.9694 18.4075 31.9609 18.4115L31.9524 18.4154C31.7875 18.482 31.5994 18.4768 31.4464 18.4141C31.4464 18.4141 31.4422 18.4126 31.434 18.4095C31.3097 18.3643 31.2036 18.2694 31.1359 18.1462C31.1359 18.1462 31.124 18.1208 31.1201 18.1123C31.1122 18.0954 31.1043 18.0784 31.0964 18.0615C31.0213 17.9005 31.0135 17.7288 31.0678 17.5797C31.0678 17.5797 31.0693 17.5756 31.0723 17.5673L31.0859 17.53C31.1401 17.381 31.2481 17.2585 31.3966 17.1789C31.4136 17.171 31.4305 17.1631 31.439 17.1591C31.4475 17.1552 31.4729 17.1433 31.4814 17.1394C31.6339 17.0683 31.8011 17.0729 31.9501 17.1272C31.9626 17.1317 31.975 17.1362 31.9874 17.1407C31.9874 17.1407 31.9916 17.1422 31.9998 17.1453C32.1529 17.208 32.2793 17.3244 32.3504 17.4769L32.3081 17.4967Z" fill="#795E81"/>
<path d="M26.8001 19.3112L21.8602 21.6139L22.4369 22.851L27.3768 20.5483L26.8001 19.3112Z" fill="#F7C23E"/>
<path d="M32.3081 17.4966C32.3081 17.4966 32.3239 17.5305 32.3318 17.5475C32.3318 17.5475 32.3397 17.5644 32.3436 17.5729C32.3899 17.7164 32.3904 17.8502 32.3576 17.979C32.3576 17.979 32.3561 17.9831 32.353 17.9914C32.3067 18.1574 32.1897 18.3048 32.0287 18.3798L27.1481 20.6549C27.1147 20.6498 26.9651 20.6164 26.7821 20.5779C26.5992 20.5394 26.3834 20.475 26.1971 20.4071C26.1722 20.3981 26.1429 20.4014 26.1225 20.38C26.191 20.1727 26.3199 19.896 26.434 19.6984C26.5007 19.5539 26.5539 19.4466 26.5753 19.4263L31.4136 17.1709C31.4306 17.163 31.4475 17.1551 31.456 17.1512C31.6085 17.0801 31.7757 17.0847 31.9247 17.139C31.9372 17.1435 31.9496 17.148 31.962 17.1525C31.962 17.1525 31.9662 17.1541 31.9744 17.1571C32.1275 17.2198 32.2539 17.3362 32.325 17.4887L32.3081 17.4966Z" fill="#795E81"/>
<path opacity="0.3" d="M31.9659 17.1611C32.119 17.2238 32.2454 17.3402 32.3165 17.4928C32.3244 17.5097 32.3323 17.5266 32.3402 17.5436L22.1722 22.2833L21.9431 21.7919L31.9078 17.1469C31.9078 17.1469 31.9326 17.156 31.945 17.1605C31.945 17.1605 31.9492 17.162 31.9575 17.165L31.9659 17.1611Z" fill="white"/>
<path opacity="0.2" d="M32.3451 17.9745C32.3451 17.9745 32.3451 17.9745 32.3406 17.9869C32.2942 18.1529 32.1773 18.3003 32.0163 18.3753L22.4329 22.8425L22.3381 22.6392L32.3367 17.9784L32.3451 17.9745Z" fill="black"/>
<path d="M26.3149 36.5253C26.3149 36.5253 26.3386 36.5762 26.342 36.6055C26.3883 36.749 26.3888 36.8828 26.356 37.0116C26.356 37.0116 26.3544 37.0157 26.3514 37.024C26.305 37.19 26.1881 37.3374 26.0271 37.4125C26.0186 37.4164 26.0017 37.4243 25.9847 37.4322C25.9678 37.4401 25.9508 37.448 25.9424 37.4519C25.7774 37.5185 25.5893 37.5134 25.4363 37.4506C25.4363 37.4506 25.4322 37.4491 25.4239 37.4461C25.2997 37.4008 25.1935 37.3059 25.1173 37.1867C25.1173 37.1867 25.0812 37.1313 25.0694 37.1059C24.9943 36.9449 24.9865 36.7732 25.0408 36.6242C25.0408 36.6242 25.0423 36.62 25.0453 36.6117C25.0956 36.4542 25.2126 36.3068 25.3696 36.2233C25.3866 36.2154 25.4035 36.2075 25.412 36.2036C25.4205 36.1996 25.4459 36.1878 25.4544 36.1838C25.6154 36.1088 25.8034 36.1139 25.9604 36.1852C25.9604 36.1852 25.9645 36.1867 25.9728 36.1897C26.1259 36.2524 26.2523 36.3688 26.3234 36.5214L26.3149 36.5253Z" fill="#F7C23E"/>
<path d="M33.517 32.4152L34.0937 33.6523L25.9338 37.4559C25.7689 37.5225 25.5808 37.5173 25.4278 37.4546C25.4278 37.4546 25.4237 37.453 25.4154 37.45C25.2912 37.4048 25.185 37.3099 25.1088 37.1907C25.1088 37.1907 25.0727 37.1353 25.0609 37.1099C24.9858 36.9489 24.978 36.7772 25.0323 36.6281C25.0323 36.6281 25.0338 36.624 25.0368 36.6157C25.0871 36.4581 25.2041 36.3108 25.3611 36.2273L33.5209 32.4236L33.517 32.4152Z" fill="#F7C23E"/>
<path d="M40.9738 29.6922C40.9738 29.6922 40.9127 29.7825 40.8862 29.8362C40.772 30.0338 40.6155 30.2511 40.4765 30.4397C40.3114 30.661 40.1854 30.8332 40.1854 30.8332L34.1016 33.6692L33.6909 33.8503C33.6909 33.8503 33.4819 33.8446 33.2188 33.8332C32.985 33.8184 32.7178 33.7985 32.4931 33.7589C32.4304 33.7571 32.3762 33.7515 32.3265 33.7334C32.4452 33.5233 32.6582 33.228 32.8317 33.0028C32.9882 32.7854 33.1267 32.6177 33.1267 32.6177L39.6172 29.5922C39.6172 29.5922 39.8222 29.5895 40.1103 29.6099C40.3983 29.6304 40.7405 29.6565 40.9862 29.6967L40.9738 29.6922Z" fill="#795E81"/>
<path opacity="0.3" d="M40.7803 29.277L41.0094 29.7685L25.1049 37.1822C25.1049 37.1822 25.0688 37.1268 25.057 37.1014C24.9819 36.9404 24.9741 36.7687 25.0284 36.6197L40.7803 29.277Z" fill="white"/>
<path opacity="0.2" d="M41.1674 30.1074L41.2661 30.3192L34.0977 33.6607L26.0186 37.4164C26.0102 37.4203 25.9932 37.4282 25.9763 37.4361C25.9593 37.444 25.9424 37.4519 25.9339 37.4559C25.769 37.5224 25.5809 37.5173 25.4279 37.4545L41.1713 30.1158L41.1674 30.1074Z" fill="black"/>
<path d="M26.9608 41.1856C26.9608 41.1856 26.9845 41.2364 26.9879 41.2658C27.0386 41.3968 27.0346 41.5431 27.0018 41.6718C26.9594 41.8463 26.8424 41.9937 26.6769 42.0812C26.6769 42.0812 26.66 42.0891 26.643 42.097C26.6261 42.1049 26.6176 42.1088 26.6006 42.1167C26.4272 42.1872 26.2437 42.1697 26.0822 42.1108C25.954 42.0571 25.8479 41.9622 25.7801 41.8391C25.7598 41.8176 25.748 41.7922 25.7361 41.7667C25.6611 41.6058 25.6578 41.4216 25.7081 41.2641C25.7584 41.1065 25.8754 40.9592 26.0324 40.8757C26.0324 40.8757 26.0579 40.8638 26.0748 40.8559C26.0918 40.848 26.1002 40.8441 26.1087 40.8401C26.2697 40.7651 26.4578 40.7702 26.6147 40.8415C26.7678 40.9042 26.9027 41.0167 26.9817 41.1861L26.9608 41.1856Z" fill="#57739A"/>
<path d="M27.1203 31.2609C27.1203 31.2609 27.144 31.3117 27.1474 31.3411C27.1982 31.4721 27.1941 31.6184 27.1613 31.7472C27.1189 31.9217 27.0019 32.069 26.8325 32.148C26.824 32.152 26.807 32.1599 26.7901 32.1678C26.7732 32.1757 26.7562 32.1836 26.7477 32.1875C26.5743 32.258 26.3823 32.2444 26.2293 32.1816C26.1011 32.1279 25.995 32.033 25.9272 31.9099C25.9069 31.8884 25.8951 31.863 25.8832 31.8375C25.8082 31.6766 25.8049 31.4924 25.8552 31.3349C25.9055 31.1773 26.0225 31.03 26.1795 30.9465C26.1965 30.9386 26.205 30.9346 26.2219 30.9267C26.2389 30.9188 26.2473 30.9149 26.2643 30.907C26.4253 30.8319 26.6133 30.8371 26.7703 30.9083C26.9233 30.9711 27.0583 31.0835 27.1373 31.253L27.1203 31.2609Z" fill="#96C720"/>
<path d="M43.8309 32.5687L34.917 36.7239L35.4936 37.961L44.4076 33.8058L43.8309 32.5687Z" fill="#96C720"/>
<path d="M36.6966 36.6472C36.6966 36.6472 36.6356 36.7376 36.5966 36.7867C36.4277 36.9995 36.2197 37.2615 36.0259 37.4653C35.853 37.6697 35.6937 37.8368 35.6462 37.8898C35.6292 37.8977 35.6247 37.9102 35.6247 37.9102L26.6684 42.0851L26.5797 42.1161C26.4063 42.1866 26.2228 42.169 26.0613 42.1102C25.9331 42.0565 25.827 41.9616 25.7592 41.8384C25.7389 41.817 25.7271 41.7916 25.7152 41.7661C25.6402 41.6051 25.6369 41.421 25.6872 41.2635C25.7375 41.1059 25.8545 40.9586 26.0115 40.875L35.0441 36.6646C35.0441 36.6646 35.0441 36.6646 35.0526 36.6606C35.1028 36.6578 35.3372 36.6517 35.6179 36.6343C35.9653 36.6271 36.3962 36.6222 36.6966 36.6472Z" fill="#57739A"/>
<path opacity="0.3" d="M43.9342 32.7681L44.1633 33.2596L25.7592 41.8385C25.7592 41.8385 25.7271 41.7916 25.7152 41.7662C25.6402 41.6052 25.6369 41.4211 25.6872 41.2635L43.9387 32.7557L43.9342 32.7681Z" fill="white"/>
<path opacity="0.2" d="M44.3213 33.5985L44.4161 33.8018L26.5797 42.1161C26.4063 42.1866 26.2228 42.169 26.0613 42.1102L44.3128 33.6024L44.3213 33.5985Z" fill="black"/>
<path d="M36.0849 26.3291L31.145 28.6318L31.7216 29.8689L36.6616 27.5662L36.0849 26.3291Z" fill="#57739A"/>
<path d="M32.4246 28.7883C32.4246 28.7883 32.3975 28.8628 32.3839 28.9001C32.3161 29.0864 32.2403 29.2558 32.1606 29.4168C32.099 29.528 32.0374 29.6392 31.9758 29.7505C31.8656 29.8018 30.7217 30.335 29.4677 30.9196L26.7393 32.1914C26.5659 32.2619 26.3738 32.2483 26.2208 32.1855C26.0926 32.1318 25.9865 32.0369 25.9188 31.9138C25.8985 31.8923 25.8866 31.8669 25.8748 31.8415C25.7997 31.6805 25.7964 31.4963 25.8467 31.3388C25.8971 31.1812 26.014 31.0339 26.1711 30.9504L26.2558 30.9109C27.8149 30.1841 31.2212 28.5963 31.4076 28.5094C31.5324 28.5337 31.6487 28.562 31.7735 28.5864C31.9938 28.6384 32.2055 28.6944 32.4455 28.7889L32.4246 28.7883Z" fill="#96C720"/>
<path opacity="0.3" d="M36.1881 26.5286L36.4172 27.0201L25.9188 31.9138C25.9188 31.9138 25.8866 31.8669 25.8748 31.8415C25.7997 31.6805 25.7964 31.4964 25.8467 31.3389L36.1927 26.5162L36.1881 26.5286Z" fill="white"/>
<path opacity="0.2" d="M36.5752 27.3589L36.67 27.5623L26.7393 32.1914C26.5659 32.2619 26.3739 32.2483 26.2208 32.1855L36.5752 27.3589Z" fill="black"/>
<path d="M46.6092 34.6568L45.745 35.0597C42.4587 28.0099 35.396 25.8251 30.7181 24.375C29.8722 24.1092 29.0675 23.8654 28.3927 23.6127C27.8212 23.4046 27.2243 23.2084 26.6071 22.9907C22.1195 21.4622 16.5296 19.5604 13.8556 13.824L14.7199 13.4211C17.2241 18.7932 22.6028 20.618 26.9204 22.0917C27.55 22.3139 28.1593 22.5147 28.7184 22.7182C29.3728 22.9495 30.1606 23.2012 31.0026 23.4585C35.8381 24.9589 43.1453 27.2257 46.6092 34.6568Z" fill="#A6DAF0"/>
<path d="M45.745 35.0596L43.8894 35.9246C40.9863 29.6967 34.7034 27.7466 30.1124 26.3282C29.2417 26.0533 28.4121 25.8005 27.6916 25.5381C27.145 25.3391 26.5566 25.1389 25.9518 24.9257C21.3478 23.3689 15.0414 21.2133 12 14.6888L13.8557 13.8238C16.5297 19.5603 22.1196 21.462 26.6111 22.999C27.2329 23.2043 27.8337 23.409 28.3967 23.621C29.0675 23.8653 29.8762 24.1176 30.7221 24.3834C35.4001 25.8335 42.4628 28.0182 45.749 35.068L45.745 35.0596Z" fill="#4FA0CB"/>
<path d="M45.745 35.0596L44.7536 35.5217C41.6688 28.9041 35.1494 26.889 30.3969 25.4117C29.53 25.1453 28.7214 24.8931 28.0217 24.6313C27.4751 24.4323 26.8782 24.236 26.261 24.0183C21.8231 22.5079 15.7357 20.4461 12.8643 14.286L13.8556 13.8239C16.5296 19.5603 22.1195 21.4621 26.6111 22.9991C27.2328 23.2043 27.8336 23.4091 28.3966 23.6211C29.0675 23.8654 29.8761 24.1176 30.722 24.3834C35.4 25.8335 42.4627 28.0183 45.7489 35.0681L45.745 35.0596Z" fill="#74BAD7"/>
<path d="M47.1664 41.7822C47.1664 41.7822 47.1822 41.8161 47.1901 41.8331C47.1901 41.8331 47.198 41.85 47.2019 41.8585C47.2482 42.002 47.2487 42.1358 47.2159 42.2646C47.1695 42.4306 47.0525 42.578 46.8915 42.653C46.8831 42.657 46.8661 42.6649 46.8492 42.6728C46.8322 42.6807 46.8153 42.6886 46.8068 42.6925C46.6419 42.7591 46.4538 42.7539 46.3008 42.6912C46.3008 42.6912 46.3008 42.6912 46.2968 42.6827C46.1726 42.6375 46.0665 42.5425 46.0027 42.4278L45.9869 42.394C45.979 42.377 45.9711 42.3601 45.9632 42.3431C45.8881 42.1821 45.8803 42.0104 45.9346 41.8613C45.9346 41.8613 45.9361 41.8572 45.9391 41.8489C45.9391 41.8489 45.9482 41.8241 45.9527 41.8117C46.007 41.6626 46.1149 41.5401 46.2635 41.4605C46.2804 41.4526 46.2889 41.4486 46.3058 41.4407C46.3228 41.4328 46.3312 41.4289 46.3482 41.421C46.5007 41.3499 46.6679 41.3545 46.817 41.4088C46.8294 41.4133 46.8418 41.4178 46.8542 41.4223C46.8542 41.4223 46.8584 41.4239 46.8667 41.4269C47.0197 41.4896 47.1461 41.606 47.2172 41.7585L47.1664 41.7822Z" fill="#96C720"/>
<path d="M44.7536 35.5218C47.4276 41.2582 45.2898 46.7622 43.5789 51.1904C43.3363 51.7985 43.1068 52.3903 42.9071 52.9578C42.6629 53.6287 42.3361 54.4102 41.9958 55.229C40.0984 59.7441 37.2304 66.558 40.5166 73.6078L39.6523 74.0107C36.1884 66.5796 39.1508 59.5257 41.1109 54.8575C41.4467 54.0512 41.769 53.2821 42.0127 52.6322C42.2247 52.0692 42.4503 51.4689 42.6889 50.8523C44.3365 46.598 46.3974 41.3052 43.8932 35.9331L44.7575 35.5303L44.7536 35.5218Z" fill="#4FA0CB"/>
<path d="M46.6092 34.6568C49.6505 41.1812 47.2425 47.3887 45.4784 51.9243C45.2444 52.5285 45.0239 53.0954 44.8288 53.6505C44.5664 54.371 44.2266 55.1689 43.8772 56.0125C42.02 60.4368 39.4652 66.5064 42.3683 72.7343L40.5126 73.5993C37.2264 66.5495 40.0945 59.7356 41.9918 55.2205C42.3321 54.4017 42.6629 53.6287 42.9032 52.9493C43.1113 52.3779 43.3448 51.7946 43.5749 51.1819C45.2858 46.7537 47.4236 41.2497 44.7496 35.5133L46.6053 34.6483L46.6092 34.6568Z" fill="#A6DAF0"/>
<path d="M45.745 35.0596C48.6165 41.2197 46.2898 47.2036 44.5885 51.5861C44.3545 52.1903 44.121 52.7736 43.9259 53.3287C43.668 54.0368 43.3413 54.8183 42.9964 55.6495C41.0719 60.2392 38.4232 66.5279 41.508 73.1456L40.5166 73.6077C37.2304 66.5579 40.0985 59.744 41.9958 55.2289C42.3361 54.4101 42.6669 53.6371 42.9072 52.9578C43.1153 52.3863 43.3488 51.803 43.5789 51.1903C45.2898 46.7621 47.4276 41.2581 44.7536 35.5217L45.745 35.0596Z" fill="#74BAD7"/>
<path d="M40.1392 66.1819C40.1392 66.1819 40.1629 66.2328 40.1662 66.2621C40.2125 66.4056 40.213 66.5395 40.1802 66.6682C40.1802 66.6682 40.1787 66.6724 40.1757 66.6806C40.1293 66.8467 40.0123 66.994 39.8513 67.0691C39.8428 67.073 39.8259 67.0809 39.8089 67.0888C39.792 67.0967 39.775 67.1046 39.7666 67.1086C39.6016 67.1751 39.4136 67.17 39.2605 67.1072C39.2605 67.1072 39.2564 67.1057 39.2481 67.1027C39.1199 67.049 39.0177 66.9625 38.9415 66.8433C38.9415 66.8433 38.9054 66.788 38.8936 66.7625C38.8185 66.6016 38.8107 66.4299 38.865 66.2808C38.865 66.2808 38.8665 66.2766 38.8695 66.2684C38.9198 66.1108 39.0368 65.9635 39.1939 65.8799C39.2108 65.872 39.2277 65.8641 39.2362 65.8602C39.2447 65.8562 39.2701 65.8444 39.2786 65.8404C39.4396 65.7654 39.6276 65.7706 39.7846 65.8418C39.7846 65.8418 39.7888 65.8433 39.797 65.8463C39.9501 65.9091 40.0765 66.0255 40.1476 66.178L40.1392 66.1819Z" fill="#F7C23E"/>
<path d="M47.3412 62.0718L47.9179 63.3089L39.7581 67.1125C39.5932 67.1791 39.4051 67.1739 39.2521 67.1112C39.2521 67.1112 39.2479 67.1097 39.2396 67.1067C39.1115 67.0529 39.0093 66.9665 38.9331 66.8473C38.9331 66.8473 38.897 66.7919 38.8851 66.7665C38.8101 66.6055 38.8022 66.4338 38.8565 66.2847C38.8565 66.2847 38.858 66.2806 38.861 66.2723C38.9114 66.1148 39.0283 65.9674 39.1854 65.8839L47.3452 62.0803L47.3412 62.0718Z" fill="#F7C23E"/>
<path d="M54.7981 59.3488C54.7981 59.3488 54.737 59.4392 54.7105 59.4928C54.5963 59.6904 54.4398 59.9078 54.3008 60.0964C54.1357 60.3177 54.0097 60.4899 54.0097 60.4899L47.9259 63.3259L47.5152 63.507C47.5152 63.507 47.3062 63.5012 47.0431 63.4898C46.8093 63.475 46.5421 63.4552 46.3174 63.4155C46.2547 63.4138 46.2005 63.4081 46.1508 63.39C46.2695 63.18 46.4825 62.8847 46.656 62.6594C46.8125 62.4421 46.947 62.2659 46.947 62.2659L53.4376 59.2404C53.4376 59.2404 53.6426 59.2376 53.9346 59.2666C54.2226 59.287 54.5648 59.3132 54.8105 59.3534L54.7981 59.3488Z" fill="#795E81"/>
<path opacity="0.3" d="M54.6045 58.9336L54.8336 59.4251L38.9291 66.8388C38.9291 66.8388 38.893 66.7835 38.8812 66.758C38.8061 66.597 38.7983 66.4253 38.8526 66.2763L54.6045 58.9336Z" fill="white"/>
<path opacity="0.2" d="M54.9916 59.7641L55.0903 59.9759L47.9219 63.3174L39.8429 67.0731C39.8344 67.0771 39.8175 67.085 39.8005 67.0929C39.7836 67.1008 39.7666 67.1087 39.7582 67.1126C39.5932 67.1792 39.4051 67.174 39.2521 67.1113L54.9956 59.7726L54.9916 59.7641Z" fill="black"/>
<path d="M40.7849 70.8422C40.7849 70.8422 40.8086 70.893 40.812 70.9224C40.8628 71.0534 40.8588 71.1997 40.8259 71.3285C40.7835 71.503 40.6665 71.6503 40.501 71.7378C40.501 71.7378 40.4841 71.7457 40.4671 71.7536C40.4502 71.7615 40.4417 71.7654 40.4248 71.7733C40.2513 71.8439 40.0718 71.8347 39.9063 71.7675C39.7781 71.7137 39.672 71.6188 39.6043 71.4957C39.5839 71.4742 39.5721 71.4488 39.5602 71.4234C39.4852 71.2624 39.4819 71.0782 39.5322 70.9207C39.5826 70.7631 39.6995 70.6158 39.8566 70.5323C39.8566 70.5323 39.882 70.5204 39.8989 70.5125C39.9159 70.5046 39.9244 70.5007 39.9328 70.4967C40.0938 70.4217 40.2819 70.4268 40.4389 70.4981C40.5919 70.5608 40.7268 70.6733 40.8058 70.8427L40.7849 70.8422Z" fill="#57739A"/>
<path d="M40.9445 60.9175C40.9445 60.9175 40.9682 60.9683 40.9716 60.9977C41.0224 61.1288 41.0184 61.275 40.9856 61.4038C40.9431 61.5783 40.8262 61.7256 40.6606 61.8131C40.6522 61.8171 40.6352 61.825 40.6183 61.8329C40.6013 61.8408 40.5844 61.8487 40.5759 61.8526C40.4025 61.9231 40.2105 61.9095 40.0535 61.8383C39.9253 61.7846 39.8231 61.6981 39.7515 61.5665C39.7311 61.545 39.7193 61.5196 39.7074 61.4942C39.6324 61.3332 39.6291 61.1491 39.6794 60.9915C39.7297 60.834 39.8467 60.6866 40.0038 60.6031C40.0207 60.5952 40.0292 60.5912 40.0461 60.5833C40.0631 60.5754 40.0715 60.5715 40.0885 60.5636C40.2495 60.4885 40.4376 60.4937 40.5945 60.5649C40.7476 60.6277 40.8825 60.7401 40.9615 60.9096L40.9445 60.9175Z" fill="#96C720"/>
<path d="M57.6551 62.2253L48.7412 66.3805L49.3179 67.6176L58.2318 63.4624L57.6551 62.2253Z" fill="#96C720"/>
<path d="M50.5208 66.3038C50.5208 66.3038 50.4597 66.3942 50.4207 66.4433C50.2518 66.6561 50.0438 66.9181 49.85 67.1219C49.6771 67.3263 49.5178 67.4934 49.4703 67.5465C49.4534 67.5544 49.4488 67.5668 49.4488 67.5668L40.4925 71.7417L40.4039 71.7727C40.2304 71.8432 40.0509 71.8341 39.8854 71.7668C39.7572 71.7131 39.6511 71.6182 39.5834 71.4951C39.563 71.4736 39.5512 71.4482 39.5393 71.4227C39.4643 71.2618 39.461 71.0776 39.5113 70.9201C39.5616 70.7625 39.6786 70.6152 39.8357 70.5317L48.8682 66.3212C48.8682 66.3212 48.8682 66.3212 48.8767 66.3173C48.927 66.3145 49.1614 66.3083 49.4421 66.2909C49.7894 66.2838 50.2203 66.2789 50.5208 66.3038Z" fill="#57739A"/>
<path opacity="0.3" d="M57.7583 62.4248L57.9874 62.9162L39.5834 71.4951C39.5834 71.4951 39.5512 71.4482 39.5393 71.4228C39.4643 71.2618 39.461 71.0777 39.5113 70.9201L57.7629 62.4123L57.7583 62.4248Z" fill="white"/>
<path opacity="0.2" d="M58.1454 63.2552L58.2402 63.4586L40.4039 71.7728C40.2305 71.8434 40.0509 71.8342 39.8854 71.767L58.1369 63.2592L58.1454 63.2552Z" fill="black"/>
<path d="M49.909 55.9857L44.9691 58.2885L45.5458 59.5256L50.4857 57.2228L49.909 55.9857Z" fill="#57739A"/>
<path d="M46.2489 58.4449C46.2489 58.4449 46.2217 58.5194 46.2082 58.5567C46.1403 58.7431 46.0646 58.9124 45.9849 59.0734C45.9233 59.1846 45.8617 59.2958 45.804 59.4156C45.6938 59.4669 44.5499 60.0001 43.2959 60.5847L40.5675 61.8565C40.3941 61.927 40.202 61.9134 40.0451 61.8422C39.9169 61.7885 39.8147 61.702 39.743 61.5704C39.7227 61.5489 39.7109 61.5235 39.699 61.4981C39.624 61.3371 39.6207 61.153 39.671 60.9954C39.7213 60.8379 39.8383 60.6905 39.9953 60.607L40.0801 60.5675C41.6392 59.8407 45.0454 58.2529 45.2318 58.166C45.3567 58.1904 45.473 58.2187 45.5978 58.243C45.818 58.295 46.0298 58.351 46.2698 58.4455L46.2489 58.4449Z" fill="#96C720"/>
<path opacity="0.3" d="M50.0124 56.1852L50.2415 56.6767L39.743 61.5704C39.743 61.5704 39.7108 61.5235 39.699 61.4981C39.6239 61.3371 39.6206 61.153 39.671 60.9955L50.0169 56.1728L50.0124 56.1852Z" fill="white"/>
<path opacity="0.2" d="M50.3994 57.0155L50.4982 57.2274L40.5675 61.8565C40.394 61.927 40.202 61.9134 40.045 61.8422L50.3994 57.0155Z" fill="black"/>
<path d="M60.4334 64.3134L59.5691 64.7162C56.2829 57.6664 49.2202 55.4817 44.5422 54.0316C43.6963 53.7658 42.8916 53.522 42.2168 53.2692C41.6454 53.0612 41.0485 52.8649 40.4313 52.6472C35.9397 51.1102 30.3498 49.2085 27.6758 43.472L28.5401 43.0692C31.0403 48.4328 36.423 50.2661 40.7406 51.7398C41.3702 51.962 41.9795 52.1627 42.5386 52.3663C43.1931 52.5976 43.9808 52.8492 44.8228 53.1066C49.6583 54.607 56.9655 56.8738 60.4295 64.3049L60.4334 64.3134Z" fill="#F97B52"/>
<path d="M59.5692 64.7163L57.7135 65.5813C54.8104 59.3534 48.5315 57.4118 43.9366 55.9849C43.0658 55.7101 42.2362 55.4573 41.5157 55.1949C40.9691 54.9959 40.3807 54.7957 39.7759 54.5825C35.168 53.0172 28.8655 50.87 25.8242 44.3456L27.6798 43.4806C30.3538 49.217 35.9437 51.1188 40.4353 52.6558C41.057 52.861 41.6578 53.0657 42.2208 53.2778C42.8917 53.5221 43.7003 53.7743 44.5462 54.0401C49.2242 55.4902 56.2869 57.675 59.5731 64.7248L59.5692 64.7163Z" fill="#FFAB82"/>
<path d="M59.5691 64.7163L58.5778 65.1784C55.493 58.5607 48.9775 56.5541 44.221 55.0684C43.3542 54.802 42.5456 54.5498 41.8459 54.288C41.2993 54.0889 40.7024 53.8927 40.0852 53.675C35.6434 52.1561 29.556 50.0943 26.6845 43.9342L27.6759 43.4721C30.3499 49.2085 35.9397 51.1103 40.4313 52.6473C41.053 52.8525 41.6539 53.0572 42.2168 53.2693C42.8877 53.5136 43.6963 53.7658 44.5423 54.0316C49.2202 55.4817 56.2829 57.6665 59.5691 64.7163Z" fill="#F94910"/>
<path d="M38.6675 44.991L45.0394 42.0208C45.0456 42.1004 45.0354 42.167 45.0292 42.2422C45.0234 42.4511 44.9968 42.6595 44.9786 42.8639C44.9577 43.0181 44.9406 43.1808 44.9197 43.3349C44.9089 43.4225 44.8897 43.514 44.8874 43.5976L38.8459 46.4137L38.2692 45.1766L38.6759 44.987L38.6675 44.991Z" fill="#96C720"/>
<path d="M40.0358 45.1164C40.0358 45.1164 40.0008 45.174 39.9833 45.2028C39.8431 45.4332 39.6866 45.6505 39.5346 45.8555C39.4391 45.9825 39.3351 46.1135 39.2396 46.2405L37.6042 47.0028L31.8678 49.6768C31.7068 49.7519 31.5233 49.7343 31.3578 49.667C31.2251 49.6257 31.1275 49.5269 31.0637 49.4122C31.0637 49.4122 31.0479 49.3783 31.0439 49.3698C31.036 49.3529 31.0281 49.3359 31.0202 49.319C30.9491 49.1665 30.9498 48.9908 30.9916 48.8372C30.9916 48.8372 30.989 48.8316 30.9837 48.8203C30.9837 48.8203 30.9928 48.7954 30.9973 48.783C31.0471 48.6463 31.1595 48.5114 31.3081 48.4318L32.1639 48.0329C32.1639 48.0329 32.1808 48.025 32.1814 48.0041C32.5452 47.8552 38.672 44.9786 38.672 44.9786C38.8098 44.9865 38.9561 44.9906 39.0939 44.9985C39.3988 45.0111 39.7117 45.0406 40.0364 45.0955L40.0358 45.1164Z" fill="#57739A"/>
<path opacity="0.3" d="M45.0291 42.2422C45.0234 42.4511 44.9968 42.6595 44.9786 42.864L31.0315 49.3653C31.0315 49.3653 31.0157 49.3314 31.0078 49.3144C30.9367 49.1619 30.9374 48.9863 30.9792 48.8327C30.9792 48.8327 30.9766 48.827 30.9713 48.8157C30.9713 48.8157 30.9804 48.7909 30.9849 48.7785L45.0252 42.2337L45.0291 42.2422Z" fill="white"/>
<path opacity="0.2" d="M44.9197 43.3349C44.9089 43.4224 44.8897 43.5139 44.8874 43.5975L31.8724 49.6644C31.7114 49.7394 31.5278 49.7218 31.3624 49.6545L44.9197 43.3349Z" fill="black"/>
<path d="M41.7499 49.258C41.8091 49.3851 41.8763 49.5292 41.9028 49.6303C41.9541 49.7405 41.9643 49.8286 41.9467 49.8574C41.8874 49.885 41.5824 50.0272 41.1248 50.2405L36.7187 52.2944C36.5577 52.3694 36.3617 52.3473 36.2002 52.2885C36.072 52.2348 35.9659 52.1399 35.8982 52.0167C35.8982 52.0167 35.8903 51.9998 35.8863 51.9913C35.8784 51.9743 35.8705 51.9574 35.8626 51.9405C35.7876 51.7795 35.7843 51.5953 35.8346 51.4378L35.8482 51.4005C35.898 51.2639 36.0104 51.1289 36.159 51.0494L36.2437 51.0099C37.7943 50.2871 41.2006 48.6992 41.387 48.6124C41.4203 48.6175 41.4649 48.6689 41.5208 48.7666C41.597 48.8858 41.6924 49.0683 41.7753 49.2462L41.7499 49.258Z" fill="#F7C23E"/>
<path d="M43.9459 47.4195C43.9143 47.5064 43.8911 47.5894 43.8594 47.6764C43.7774 47.9209 43.6999 48.153 43.614 48.389C43.5507 48.563 43.4868 48.7578 43.411 48.9272C43.3788 49.035 43.3471 49.122 43.3024 49.2253L40.9638 50.3155C40.9638 50.3155 40.7893 50.273 40.5939 50.23C40.4194 50.1876 40.1913 50.1186 40.0089 50.0592C39.9756 50.0541 39.9507 50.0451 39.9259 50.036C39.9943 49.8288 40.1317 49.5482 40.2334 49.346C40.3001 49.2015 40.3533 49.0942 40.3747 49.0739L43.9335 47.4149L43.9459 47.4195Z" fill="#795E81"/>
<path opacity="0.3" d="M43.8595 47.6765C43.7775 47.921 43.7 48.1531 43.614 48.3891L35.8694 51.9992C35.8694 51.9992 35.8536 51.9653 35.8457 51.9484C35.7707 51.7874 35.7674 51.6032 35.8177 51.4457L35.8313 51.4084L43.864 47.664L43.8595 47.6765Z" fill="white"/>
<path opacity="0.2" d="M43.411 48.9273C43.3787 49.0351 43.347 49.1221 43.3024 49.2254L36.7101 52.2984C36.5491 52.3734 36.3532 52.3513 36.1917 52.2925L43.411 48.9273Z" fill="black"/>
<path d="M38.6873 40.763C38.6873 40.763 38.285 41.2497 37.9782 41.6093C37.8098 41.8013 37.6714 41.9689 37.6324 42.0181L37.6154 42.026L28.5829 46.2364C28.5829 46.2364 28.5405 46.2562 28.5236 46.2641C28.3677 46.3058 28.205 46.2888 28.0768 46.2351L28.0689 46.2181C27.9407 46.1644 27.8346 46.0695 27.7708 45.9548L27.7629 45.9379C27.7629 45.9379 27.7392 45.887 27.7313 45.8701C27.6563 45.7091 27.6569 45.5334 27.7033 45.3674C27.7452 45.2138 27.8582 45.058 28.0152 44.9745L37.0563 40.76C37.0563 40.76 38.4208 40.7222 38.7043 40.7551L38.6873 40.763Z" fill="#795E81"/>
<path d="M37.0348 40.7804L44.4405 37.3283C44.476 37.4046 44.4997 37.4554 44.502 37.5266C44.564 37.7039 44.6136 37.8768 44.6548 38.0536C44.6847 38.184 44.7185 38.323 44.7484 38.4535C44.763 38.5292 44.7777 38.6048 44.7923 38.6805L37.6069 42.0299L37.3019 42.1721C37.2432 42.1789 37.0003 42.1889 36.7072 42.2018C36.3977 42.2017 36.0503 42.2089 35.7747 42.1929C35.7329 42.1918 35.6996 42.1867 35.6663 42.1816C35.8573 41.9275 36.1472 41.5758 36.389 41.298C36.5444 41.1225 36.6653 40.9836 36.7128 40.9305C36.7298 40.9226 36.7382 40.9187 36.7382 40.9187L37.0433 40.7765L37.0348 40.7804Z" fill="#F7C23E"/>
<path opacity="0.3" d="M44.502 37.5266C44.5641 37.704 44.6137 37.8768 44.6548 38.0536L27.7421 45.9374C27.7421 45.9374 27.7184 45.8865 27.7105 45.8696C27.6354 45.7086 27.64 45.5414 27.6864 45.3754L44.506 37.5351L44.502 37.5266Z" fill="white"/>
<path opacity="0.2" d="M44.7568 38.4496C44.7715 38.5253 44.7862 38.601 44.8008 38.6766L28.5236 46.2642C28.3677 46.3059 28.205 46.2889 28.0768 46.2352L44.7693 38.4541L44.7568 38.4496Z" fill="black"/>
</g>
<defs>
<clipPath id="clip0_77_3285">
<rect width="22.9323" height="65.4408" fill="white" transform="translate(12 14.6888) rotate(-24.9922)"/>
</clipPath>
</defs>
</svg>
