<svg width="147" height="73" viewBox="0 0 147 73" fill="none" xmlns="http://www.w3.org/2000/svg">
<g clip-path="url(#clip0_59_261)">
<path fill-rule="evenodd" clip-rule="evenodd" d="M19.8002 31.057C19.8002 28.3767 17.6116 26.2034 14.9112 26.2034C12.2102 26.2034 10.0207 28.3767 10.0207 31.057C10.0207 33.738 12.2102 35.9111 14.9112 35.9111C17.6116 35.9111 19.8002 33.738 19.8002 31.057ZM136.952 31.057C136.952 28.3767 134.763 26.2034 132.063 26.2034C129.363 26.2034 127.173 28.3767 127.173 31.057C127.173 33.738 129.363 35.9111 132.063 35.9111C134.763 35.9111 136.952 33.738 136.952 31.057Z" fill="#2CB7DF"/>
<path fill-rule="evenodd" clip-rule="evenodd" d="M85.0587 35.4138C82.6829 35.4138 80.7567 33.6752 80.7567 31.057C80.7567 28.4387 82.6829 26.7011 85.0587 26.7011C86.5884 26.7011 87.9113 27.4119 88.7063 28.6576L92.6831 25.8214C91.0112 23.4209 88.2204 21.8475 85.0587 21.8475C79.9411 21.8475 75.7921 25.9668 75.7921 31.0491C75.7921 36.1305 79.9411 40.2503 85.0587 40.2503C88.0961 40.2503 90.8109 38.9078 92.8828 36.0819L88.865 33.3199C88.0203 34.5605 86.722 35.4138 85.0587 35.4138ZM64.2551 35.4138C61.8785 35.4138 59.9518 33.6752 59.9518 31.057C59.9518 28.4387 61.8785 26.7011 64.2551 26.7011C66.6312 26.7011 68.5576 28.4516 68.5576 31.057C68.5576 33.6628 66.6312 35.4138 64.2551 35.4138ZM68.6531 23.8786C67.4188 22.7162 65.7722 21.8475 63.4621 21.8475C59.0633 21.8475 54.9868 25.5279 54.9868 31.0491C54.9868 36.5696 59.0247 40.2503 63.4621 40.2503C65.6016 40.2503 67.2339 39.4237 68.4685 38.218V39.7311H73.4335V22.3755H68.6531V23.8786ZM47.8088 24.3976V22.3755H43.0234V39.7311H47.985V31.4997C47.985 28.0421 49.9188 27.1033 52.0653 27.1033C52.5922 27.1033 53.1551 27.138 53.7535 27.277V22.3755C53.4013 22.2705 52.8736 22.2008 52.3459 22.2008C50.939 22.2008 48.9152 22.6592 47.8088 24.3976ZM99.584 17.3123H94.6192V34.2394C94.6192 37.6961 96.7442 39.8669 100.951 39.8669C102.638 39.8669 104.216 39.6218 105.264 39.345V34.9336C104.291 35.211 103.207 35.4204 101.863 35.4204C100.477 35.4204 99.584 35.0358 99.584 33.6048V26.7011H105.347V22.3499H99.584V17.3123ZM115.848 35.4138C113.472 35.4138 111.545 33.6752 111.545 31.057C111.545 28.4387 113.472 26.7011 115.848 26.7011C118.224 26.7011 120.151 28.4516 120.151 31.057C120.151 33.6628 118.224 35.4138 115.848 35.4138ZM115.848 21.8475C110.73 21.8475 106.581 25.9668 106.581 31.0491C106.581 36.1305 110.73 40.2503 115.848 40.2503C120.966 40.2503 125.116 36.1305 125.116 31.0491C125.116 25.9668 120.966 21.8475 115.848 21.8475ZM31.3965 35.4138C29.0197 35.4138 27.0933 33.6628 27.0933 31.057C27.0933 28.4516 29.0197 26.7011 31.3965 26.7011C33.7724 26.7011 35.699 28.4387 35.699 31.057C35.699 33.6752 33.7724 35.4138 31.3965 35.4138ZM32.1895 21.8475C29.8787 21.8475 28.2324 22.7162 26.9978 23.8786V22.3755H22.2181V45.902H27.1831L27.1826 38.218C28.4177 39.4237 30.0497 40.2503 32.1895 40.2503C36.6264 40.2503 40.6648 36.5696 40.6648 31.0491C40.6648 25.5279 36.5875 21.8475 32.1895 21.8475Z" fill="#263077"/>
</g>
<path d="M49.5 53L51.0296 55.608L54 56.2467L51.975 58.4973L52.2812 61.5L49.5 60.283L46.7188 61.5L47.025 58.4973L45 56.2467L47.9704 55.608L49.5 53Z" fill="#FFCB45"/>
<path d="M61.5 53L63.0296 55.608L66 56.2467L63.975 58.4973L64.2812 61.5L61.5 60.283L58.7188 61.5L59.025 58.4973L57 56.2467L59.9704 55.608L61.5 53Z" fill="#FFCB45"/>
<path d="M73.5 53L75.0296 55.608L78 56.2467L75.975 58.4973L76.2812 61.5L73.5 60.283L70.7188 61.5L71.025 58.4973L69 56.2467L71.9704 55.608L73.5 53Z" fill="#FFCB45"/>
<path d="M85.5 53L87.0296 55.608L90 56.2467L87.975 58.4973L88.2812 61.5L85.5 60.283L82.7188 61.5L83.025 58.4973L81 56.2467L83.9704 55.608L85.5 53Z" fill="#FFCB45"/>
<path d="M97.5 53L99.0296 55.608L102 56.2467L99.975 58.4973L100.281 61.5L97.5 60.283L94.7188 61.5L95.025 58.4973L93 56.2467L95.9704 55.608L97.5 53Z" fill="#FFCB45"/>
<defs>
<clipPath id="clip0_59_261">
<rect width="127" height="29" fill="white" transform="translate(10 17)"/>
</clipPath>
</defs>
</svg>
