<svg width="415" height="206" viewBox="0 0 415 206" fill="none" xmlns="http://www.w3.org/2000/svg">
<g clip-path="url(#clip0_328_1336)">
<path d="M139.704 150L144.022 157.363L152.408 159.166L146.691 165.52L147.556 173.997L139.704 170.561L131.853 173.997L132.717 165.52L127 159.166L135.386 157.363L139.704 150Z" fill="#FFCB45"/>
<path d="M173.582 150L177.9 157.363L186.286 159.166L180.569 165.52L181.433 173.997L173.582 170.561L165.73 173.997L166.594 165.52L160.878 159.166L169.263 157.363L173.582 150Z" fill="#FFCB45"/>
<path d="M207.459 150L211.778 157.363L220.163 159.166L214.446 165.52L215.311 173.997L207.459 170.561L199.608 173.997L200.472 165.52L194.755 159.166L203.141 157.363L207.459 150Z" fill="#FFCB45"/>
<path d="M241.337 150L245.655 157.363L254.041 159.166L248.324 165.52L249.188 173.997L241.337 170.561L233.485 173.997L234.349 165.52L228.633 159.166L237.018 157.363L241.337 150Z" fill="#FFCB45"/>
<path d="M275.214 150L279.533 157.363L287.918 159.166L282.202 165.52L283.066 173.997L275.214 170.561L267.363 173.997L268.227 165.52L262.51 159.166L270.896 157.363L275.214 150Z" fill="#FFCB45"/>
<path d="M109 79.0114C109.167 77.8941 109.317 76.7744 109.508 75.6595C110.096 72.2254 111.244 69.0355 113.641 66.4091C115.595 64.2664 118.108 62.9556 120.724 61.8553C126.659 59.3595 132.763 58.7186 139.085 60.218C146.018 61.8625 150.604 66.0004 152.959 72.7139C154.676 77.6111 155.012 82.6438 154.669 87.7539C154.391 91.8893 153.467 95.8748 151.491 99.5532C148.763 104.632 144.867 108.33 139.02 109.428C134.338 110.308 129.793 109.88 125.675 107.215C123.96 106.105 122.674 104.559 121.438 102.837C121.423 103.106 121.397 103.374 121.397 103.64C121.394 109.268 121.409 114.898 121.387 120.526C121.377 123.44 119.527 125.858 116.811 126.547C116.212 126.7 115.578 126.758 114.959 126.772C112.973 126.816 110.988 126.816 109.002 126.833C109.002 110.891 109.002 94.9486 109.002 79.0065L109 79.0114ZM142.313 85.1323C142.304 81.1565 141.74 78.2713 140.681 75.8602C137.455 68.5228 128.642 68.9412 125.165 72.4938C123.74 73.9497 122.758 75.6329 122.224 77.5894C121.385 80.668 121.189 83.824 121.472 86.9679C121.646 88.9195 121.999 90.9341 122.717 92.7455C124.321 96.789 127.353 99.1155 131.842 99.1639C136.149 99.2098 138.988 96.9897 140.749 93.1977C141.989 90.5205 142.294 87.6741 142.313 85.1299V85.1323Z" fill="#07C4EF"/>
<path d="M209.497 40C209.801 40.104 210.104 40.2225 210.411 40.312C212.984 41.0593 214.691 43.2382 214.723 45.9009C214.752 48.3483 214.73 50.7981 214.73 53.2456C214.73 71.3884 214.73 89.5336 214.73 107.676V108.847H202.026V107.73C202.026 85.5336 202.026 63.3351 202.026 41.1391C202.026 40.7594 201.995 40.3797 201.978 40.0024C204.483 40.0024 206.989 40.0024 209.494 40.0024L209.497 40Z" fill="#07C4EF"/>
<path d="M273.18 87.9397C273.303 91.5842 274.012 94.8466 276.788 97.2844C278.921 99.1586 281.519 99.5262 284.22 99.2892C286.856 99.0595 289.175 98.1743 290.784 95.872C291.417 94.9651 292.389 94.2856 293.516 94.2372C297.04 94.0848 300.568 94.0437 304.22 93.9567C304.041 94.5854 303.932 95.0304 303.79 95.4633C301.18 103.342 295.645 107.853 287.586 109.355C283.163 110.179 278.73 110.061 274.438 108.622C268.283 106.559 264.329 102.223 262.128 96.2203C260.568 91.9712 260.213 87.5455 260.317 83.0594C260.399 79.5309 260.873 76.0678 262.126 72.7546C265.074 64.9504 270.687 60.503 279.016 59.6009C283.57 59.1076 288.044 59.4824 292.327 61.2237C298.075 63.5623 301.555 67.9468 303.41 73.7316C304.791 78.0315 305.062 82.4717 304.989 86.9506C304.977 87.6906 304.714 87.9639 303.915 87.9615C294.061 87.9324 284.206 87.9421 274.351 87.9421C274.002 87.9421 273.654 87.9421 273.178 87.9421L273.18 87.9397ZM291.782 79.7728C292.198 76.6748 290.297 72.5152 287.557 71.0956C283.993 69.2479 280.348 69.2697 276.97 71.5962C274.152 73.5357 273.323 76.4813 273.19 79.7728H291.785H291.782Z" fill="#07C4EF"/>
<path d="M216.316 92.9821H228.522C228.602 93.4368 228.67 93.86 228.752 94.2808C229.182 96.4525 230.353 98.1115 232.389 98.9942C236.092 100.598 239.874 100.743 243.671 99.2941C244.766 98.8757 245.661 98.1696 246.205 97.0958C246.892 95.7415 246.762 94.3558 245.608 93.3811C244.733 92.6411 243.705 91.9543 242.629 91.6085C240.488 90.9216 238.268 90.4863 236.082 89.947C232.411 89.0377 228.745 88.1066 225.279 86.5419C217.393 82.9772 214.875 74.3097 219.593 67.0182C221.758 63.6736 224.856 61.6107 228.619 60.5683C235.383 58.6941 242.111 58.8706 248.604 61.6324C254.128 63.9831 256.839 68.491 257.536 74.3218C257.567 74.5878 257.54 74.8611 257.54 75.2214C257.308 75.248 257.078 75.2988 256.849 75.2988C254.37 75.3036 251.893 75.3157 249.415 75.2939C247.637 75.277 246.121 74.5733 245.153 73.1005C243.173 70.0799 240.3 69.0279 236.882 69.1851C235.402 69.2528 233.903 69.4729 232.479 69.8671C231.734 70.0726 230.982 70.6917 230.505 71.3278C229.313 72.9215 229.693 74.6579 231.366 75.7559C233.596 77.219 236.159 77.7752 238.701 78.3919C243.132 79.4681 247.649 80.2565 251.802 82.2783C253.872 83.2867 255.867 84.3678 257.226 86.3339C259.037 88.9555 259.456 91.8866 259.231 94.97C258.725 101.923 254.481 106.731 247.698 108.499C240.67 110.329 233.555 110.542 226.582 108.312C219.32 105.988 216.174 100.365 216.258 93.3207C216.258 93.2409 216.287 93.1611 216.321 92.9821H216.316Z" fill="#07C4EF"/>
<path d="M199.013 60.6071C199.032 60.8707 199.061 61.0835 199.061 61.2964C199.051 71.2239 199.095 81.1538 198.998 91.0813C198.962 94.6606 198.316 98.1721 196.558 101.381C195.414 103.466 193.789 105.043 191.707 106.201C187.579 108.499 183.143 109.751 178.447 109.785C172.73 109.826 167.409 108.254 162.662 105.031C159.699 103.019 158.246 99.9423 157.61 96.5542C157.131 94.0028 156.855 91.3788 156.829 88.7863C156.737 79.7294 156.792 70.6701 156.792 61.6132C156.792 60.8876 157.166 60.5241 157.914 60.5225C161.399 60.5225 164.884 60.5225 168.372 60.5225C168.693 60.5225 169.015 60.5225 169.465 60.5225C169.465 60.9457 169.465 61.2867 169.465 61.6301C169.465 71.5044 169.46 81.3787 169.474 91.2506C169.474 92.0898 169.552 92.9387 169.699 93.7633C170.181 96.4357 171.827 98.1914 174.287 99.1684C177.247 100.344 180.147 100.119 182.923 98.5276C185.163 97.2458 186.29 95.2748 186.51 92.7476C186.563 92.1527 186.568 91.5529 186.568 90.9556C186.572 82.9579 186.572 74.9627 186.568 66.9651C186.568 65.635 186.783 64.3653 187.547 63.2383C188.507 61.8236 189.777 60.7377 191.508 60.6434C193.973 60.5104 196.449 60.6095 199.008 60.6095L199.013 60.6071Z" fill="#07C4EF"/>
</g>
<defs>
<clipPath id="clip0_328_1336">
<rect width="415" height="206" fill="white"/>
</clipPath>
</defs>
</svg>
