<svg width="148" height="22" viewBox="0 0 148 22" fill="none" xmlns="http://www.w3.org/2000/svg">
<path d="M11.6471 0L15.6061 6.75002L23.2941 8.40325L18.0529 14.2282L18.8453 22L11.6471 18.85L4.44878 22L5.24117 14.2282L0 8.40325L7.688 6.75002L11.6471 0Z" fill="#FFCB45"/>
<path d="M42.7059 0L46.6649 6.75002L54.3529 8.40325L49.1117 14.2282L49.9041 22L42.7059 18.85L35.5076 22L36.3 14.2282L31.0588 8.40325L38.7468 6.75002L42.7059 0Z" fill="#FFCB45"/>
<path d="M73.7647 0L77.7237 6.75002L85.4117 8.40325L80.1706 14.2282L80.9629 22L73.7647 18.85L66.5664 22L67.3588 14.2282L62.1176 8.40325L69.8056 6.75002L73.7647 0Z" fill="#FFCB45"/>
<path d="M104.824 0L108.783 6.75002L116.471 8.40325L111.229 14.2282L112.022 22L104.824 18.85L97.6252 22L98.4176 14.2282L93.1765 8.40325L100.864 6.75002L104.824 0Z" fill="#FFCB45"/>
<path d="M135.882 0L139.841 6.75002L147.529 8.40325L142.288 14.2282L143.081 22L135.882 18.85L128.684 22L129.476 14.2282L124.235 8.40325L131.923 6.75002L135.882 0Z" fill="#FFCB45"/>
</svg>
