<svg width="36" height="36" viewBox="0 0 36 36" fill="none" xmlns="http://www.w3.org/2000/svg">
<path d="M3.22424 33.0047L5.32087 25.3495C4.02774 23.1092 3.34741 20.5675 3.34824 17.9638C3.35156 9.81815 9.98049 3.19116 18.1265 3.19116C22.0795 3.19309 25.7897 4.73145 28.5802 7.52391C31.3699 10.3164 32.906 14.028 32.9047 17.9757C32.9011 26.1209 26.271 32.749 18.1265 32.749C18.1259 32.749 18.1271 32.749 18.1265 32.749H18.1201C15.647 32.748 13.2169 32.1276 11.0583 30.9505L3.22424 33.0047Z" fill="white"/>
<path d="M18.1311 5.68677C11.3558 5.68677 5.84588 11.1947 5.84338 17.9648C5.84238 20.2848 6.49164 22.5444 7.72111 24.4996L8.01339 24.9641L6.77223 29.495L11.4211 28.276L11.87 28.542C13.7555 29.6611 15.9171 30.2528 18.1217 30.2539H18.1264C24.8965 30.2539 30.4064 24.7454 30.4091 17.9747C30.4104 14.6938 29.134 11.6085 26.8149 9.28767C24.4957 6.96685 21.4121 5.68815 18.1311 5.68677Z" fill="url(#paint0_linear_51_5891)"/>
<path fill-rule="evenodd" clip-rule="evenodd" d="M14.4331 11.7877C14.1564 11.1729 13.8652 11.1605 13.6022 11.1497C13.3869 11.1406 13.1406 11.1411 12.8945 11.1411C12.6482 11.1411 12.2482 11.2336 11.91 11.6031C11.5715 11.9726 10.6174 12.8657 10.6174 14.6825C10.6174 16.4993 11.9407 18.2547 12.1251 18.5013C12.3097 18.7476 14.6795 22.5949 18.4329 24.0749C21.552 25.3049 22.1866 25.0602 22.8639 24.9988C23.5409 24.9373 25.0485 24.1056 25.3561 23.2434C25.6638 22.3812 25.6638 21.6425 25.5717 21.4881C25.4792 21.3339 25.2332 21.2417 24.8637 21.0571C24.4944 20.8725 22.679 19.979 22.3405 19.8559C22.002 19.7327 21.756 19.6713 21.5096 20.0408C21.2636 20.4103 20.5564 21.2417 20.3408 21.4881C20.1254 21.7347 19.9101 21.7654 19.5406 21.5808C19.1714 21.3956 17.982 21.0062 16.5713 19.7482C15.4736 18.7695 14.7326 17.5608 14.517 17.1913C14.3017 16.8218 14.494 16.622 14.6792 16.4379C14.845 16.2724 15.0484 16.0067 15.2333 15.7911C15.4174 15.5754 15.4791 15.4216 15.602 15.1755C15.7252 14.9289 15.6637 14.7133 15.5713 14.5287C15.4791 14.344 14.7614 12.5178 14.4331 11.7877Z" fill="white"/>
<defs>
<linearGradient id="paint0_linear_51_5891" x1="17.8762" y1="7.16106" x2="18.0008" y2="28.1551" gradientUnits="userSpaceOnUse">
<stop stop-color="#57D163"/>
<stop offset="1" stop-color="#23B33A"/>
</linearGradient>
</defs>
</svg>
